<svg id="Capa_1" enable-background="new 0 0 512 512" height="512" viewBox="0 0 512 512" width="512" xmlns="http://www.w3.org/2000/svg"><g><path d="m447.959 204.604c-13.362 53.446-60.637 88.389-25.693 151.076 34.934 62.697 23.859 120.264-35.448 156.32l-125.456-22.714-136.19 22.714c-59.297-36.056-70.382-93.623-35.438-156.32 34.944-62.687-12.331-97.63-25.693-151.076-13.361-53.446 49.336-66.807 56.639-82.404l79.973-13.403 55.352-9.282 135.314 22.685c7.304 15.597 70.001 28.958 56.64 82.404z" fill="#ffc250"/><path d="m267.193 477.633-25.301 14.9-116.72 19.467c-59.297-36.056-70.382-93.623-35.438-156.32 34.944-62.687-12.331-97.63-25.693-151.076-13.361-53.446 49.336-66.807 56.639-82.404l79.973-13.403c-8.757 14.361-28.021 55.187 13.094 85.186 50.706 37.004 53.446 283.65 53.446 283.65z" fill="#e7a52e"/><path d="m377.921 80.963c4.264-36.685-46.67-80.963-121.92-80.963s-126.184 44.278-121.92 80.963" fill="#ffc250"/><path d="m218.855 80.963h-84.774c-4.255-36.685 46.678-80.962 121.922-80.962-22.922 0-38.446 44.277-37.148 80.962z" fill="#e7a52e"/><path d="m386.822 512h-261.642c21.24-35.903 56.829-62.308 98.878-71.306v-55.359h63.886v55.359c42.049 8.998 77.638 35.403 98.878 71.306z" fill="#ffddce"/><g fill="#ffcbbe"><path d="m224.06 385.33h63.882v22.736h-63.882z"/><path d="m242.506 385.33v55.364c-17.77 8.993-32.803 35.405-41.776 71.306h-75.55c21.239-35.901 56.83-62.313 98.875-71.306v-55.364z"/><g><circle cx="114.009" cy="272.337" r="40.902"/><circle cx="398" cy="272.337" r="40.902"/></g></g><path d="m134.499 283.34c-2.714 0-5.346-1.432-6.76-3.972-2.383-4.286-6.446-6.702-12.418-7.385-5.234-.598-9.815.456-9.86.467-4.138.975-8.307-1.576-9.301-5.711s1.522-8.291 5.653-9.304c.691-.171 6.984-1.639 14.684-.866 11.255 1.131 19.812 6.418 24.746 15.289 2.073 3.729.732 8.434-2.997 10.508-1.188.659-2.476.974-3.747.974z" fill="#eaac9d"/><path d="m377.51 283.34c-1.271 0-2.559-.314-3.749-.975-3.729-2.074-5.07-6.779-2.997-10.508 4.935-8.872 13.492-14.158 24.746-15.289 7.693-.773 13.992.696 14.684.866 4.145 1.017 6.68 5.201 5.663 9.345-1.015 4.134-5.179 6.664-9.314 5.67-.146-.034-4.682-1.059-9.857-.466-5.972.683-10.034 3.099-12.418 7.385-1.411 2.539-4.044 3.972-6.758 3.972z" fill="#eaac9d"/><path d="m377.514 179.062v96.551c0 61.838-50.129 111.967-111.967 111.967h-19.081c-61.838 0-111.977-50.129-111.977-111.967v-96.551c7.537 1.631 15.364 2.488 23.387 2.488 42.664 0 79.68-24.151 98.131-59.525 18.451 35.374 55.467 59.525 98.121 59.525 8.022.001 15.848-.857 23.386-2.488z" fill="#ffddce"/><path d="m289.578 384.987c-7.734 1.704-15.777 2.592-24.027 2.592h-19.081c-61.838 0-111.977-50.129-111.977-111.967v-96.552c7.537 1.631 15.364 2.488 23.387 2.488 15.539 0 30.336-3.211 43.748-8.993v103.056c-.001 53.589 37.655 98.39 87.95 109.376z" fill="#ffcbbe"/><g fill="#2b4d66"><path d="m198.291 236.44c-2.936 0-5.649 1.3-7.87 3.482l-5.119-3.641c-3.479-2.474-8.302-1.659-10.775 1.817-2.474 3.477-1.66 8.301 1.817 10.775l8.403 5.978c0 .052-.006.101-.006.153 0 10.236 6.078 18.563 13.549 18.563s13.549-8.327 13.549-18.563c.001-10.237-6.077-18.564-13.548-18.564z"/><path d="m337.482 238.098c-2.473-3.476-7.297-4.291-10.775-1.817l-5.119 3.641c-2.221-2.183-4.934-3.482-7.87-3.482-7.471 0-13.549 8.327-13.549 18.563s6.078 18.563 13.549 18.563 13.549-8.327 13.549-18.563c0-.052-.005-.101-.006-.153l8.403-5.978c3.478-2.473 4.292-7.297 1.818-10.774z"/></g><path d="m215.71 217.647c-1.977 0-3.955-.755-5.464-2.263-6.151-6.151-16.159-6.151-22.31 0-3.018 3.017-7.909 3.017-10.928 0-3.017-3.017-3.017-7.909 0-10.927 12.177-12.176 31.988-12.176 44.165 0 3.017 3.017 3.017 7.909 0 10.927-1.508 1.509-3.486 2.263-5.463 2.263z" fill="#eaac9d"/><path d="m330.703 217.647c-1.977 0-3.955-.755-5.464-2.263-6.151-6.151-16.159-6.151-22.31 0-3.018 3.017-7.909 3.017-10.928 0-3.017-3.017-3.017-7.909 0-10.927 12.177-12.176 31.988-12.176 44.165 0 3.017 3.017 3.017 7.909 0 10.927-1.508 1.509-3.486 2.263-5.463 2.263z" fill="#eaac9d"/><path d="m256.004 314.508c-14.293 0-27.125-9.558-31.204-23.244-1.219-4.089 1.108-8.392 5.197-9.612 4.092-1.22 8.391 1.108 9.612 5.197 2.142 7.187 8.884 12.206 16.395 12.206 7.52 0 14.262-5.016 16.394-12.198 1.213-4.091 5.517-6.422 9.606-5.208 4.091 1.215 6.423 5.516 5.207 9.606-4.064 13.691-16.897 23.253-31.207 23.253z" fill="#e04b66"/><path d="m377.921 80.963c-80.443-16.483-163.397-16.483-243.84 0-11.587 2.374-19.871 12.633-19.871 24.461 0 15.614 14.171 27.448 29.515 24.562 74.198-13.956 150.353-13.956 224.552 0 15.344 2.886 29.515-8.948 29.515-24.562 0-11.828-8.284-22.087-19.871-24.461z" fill="#e04b66"/><path d="m201.127 122.01c-19.213 1.731-38.374 4.389-57.402 7.974-1.566.299-3.111.433-4.636.433-13.444 0-24.879-10.971-24.879-24.992 0-11.837 8.283-22.087 19.872-24.467 21.86-4.481 43.906-7.737 66.045-9.776-7.191 6.037-11.641 15.102-11.641 25.013 0 10.609 5.007 19.881 12.641 25.815z" fill="#de1d49"/><g fill="#e04b66"><circle cx="330.518" cy="292.989" r="15.416"/><circle cx="181.484" cy="292.989" r="15.416"/></g><circle cx="256.001" cy="68.601" fill="#6dd3ff" r="28.89"/><path d="m267.432 95.138c-3.503 1.514-7.366 2.349-11.425 2.349-15.958 0-28.897-12.929-28.897-28.886s12.939-28.886 28.897-28.886c4.059 0 7.922.834 11.425 2.349-10.281 4.42-17.482 14.629-17.482 26.537s7.201 22.118 17.482 26.537z" fill="#59a8f6"/><path d="m256.001 105.217c-20.19 0-36.617-16.426-36.617-36.616s16.427-36.616 36.617-36.616 36.617 16.426 36.617 36.616-16.427 36.616-36.617 36.616zm0-57.78c-11.67 0-21.164 9.494-21.164 21.164s9.494 21.163 21.164 21.163 21.164-9.494 21.164-21.163c0-11.67-9.494-21.164-21.164-21.164z" fill="#b3e59f"/></g></svg>