<svg id="Capa_1" enable-background="new 0 0 512 512" height="512" viewBox="0 0 512 512" width="512" xmlns="http://www.w3.org/2000/svg"><g><path d="m255.997 442.426c3.445 14.302 13.977 26.55 28.973 31.501 23.061 7.613 47.927-4.91 55.539-27.971 4.898-14.836 1.451-30.413-7.764-41.668 9.499-5.249 17.261-13.683 21.531-24.421.983.405 1.98.789 3.005 1.128 23.061 7.613 47.927-4.911 55.539-27.971 7.613-23.061-4.91-47.927-27.971-55.539-20.867-6.889-43.211 2.712-52.914 21.687-2.349-1.238-4.825-2.308-7.431-3.168-25.376-8.377-52.738 5.404-61.115 30.78-5.821 17.633-.936 36.219 11.097 48.733-7.953 5.257-14.268 13.117-17.489 22.873-.391 1.185-.716 2.375-1.002 3.567" fill="#ffc250"/><path d="m255.997 421.954c-.286-1.192-.611-2.382-1.002-3.567-3.221-9.756-9.535-17.615-17.489-22.873 12.033-12.515 16.918-31.1 11.097-48.733-8.377-25.376-35.739-39.157-61.115-30.78-2.605.86-5.081 1.93-7.431 3.168-9.703-18.975-32.046-28.575-52.914-21.687-23.061 7.613-35.584 32.479-27.971 55.539 7.613 23.061 32.479 35.584 55.539 27.971 1.025-.338 2.022-.723 3.005-1.128 4.27 10.738 12.033 19.172 21.531 24.421-9.215 11.256-12.662 26.832-7.764 41.668 7.613 23.061 32.478 35.584 55.539 27.971 14.996-4.951 25.529-17.199 28.973-31.501" fill="#e7a52e"/><path d="m358.003 498.058h-210.343c9.68-16.36-.527-16.81 14.351-28.492 17.866-14.028 38.945-24.147 61.957-29.07v-55.516h64.067v55.516c23.084 4.94 44.225 15.111 62.128 29.212 14.8 11.656-1.802 12.056 7.84 28.35z" fill="#ffddce"/><path d="m238.061 384.979v55.516c-18.757 7.166-35.221 25.334-47.179 50.539-3.102 6.538-43.749-9.787-28.871-21.469 17.866-14.028 38.945-24.147 61.957-29.07v-55.516z" fill="#ffcbbe"/><path d="m288.03 384.979v25.353c-7.263 1.473-14.773 2.246-22.468 2.246h-19.13c-7.695 0-15.205-.773-22.468-2.246v-25.353z" fill="#ffcbbe"/><path d="m368.087 246.502c0 27.623 22.393 50.016 50.016 50.016s50.016-22.393 50.016-50.016c0-11.136-3.643-21.418-9.797-29.73 21.966-5.277 38.295-25.036 38.295-48.621 0-23.676-16.456-43.496-38.551-48.681 2.06-5.477 3.196-11.407 3.196-17.605 0-27.623-22.393-50.016-50.016-50.016-7.013 0-13.685 1.449-19.743 4.055-4.666-22.789-24.83-39.931-48.999-39.931-13.811 0-26.314 5.598-35.365 14.648-9.78-18.225-29.009-30.621-51.139-30.621s-41.359 12.396-51.138 30.621c-9.051-9.05-21.554-14.648-35.365-14.648-24.169 0-44.333 17.142-48.999 39.931-6.058-2.606-12.73-4.055-19.743-4.055-27.623 0-50.016 22.393-50.016 50.016 0 6.197 1.135 12.128 3.196 17.605-22.095 5.185-38.551 25.004-38.551 48.681 0 23.585 16.329 43.344 38.295 48.621-6.154 8.311-9.797 18.594-9.797 29.73 0 27.623 22.393 50.016 50.016 50.016s50.016-22.393 50.016-50.016" fill="#ffc250"/><path d="m256.002 0c15.793 0 30.112 6.315 40.558 16.555-2.503-.391-5.068-.587-7.685-.587-24.168 0-44.329 17.142-48.995 39.94-6.057-2.606-12.733-4.059-19.748-4.059-27.619 0-50.015 22.396-50.015 50.015 0 6.202 1.133 12.125 3.194 17.606-22.087 5.182-38.549 25.003-38.549 48.676 0 23.591 16.328 43.35 38.292 48.624-6.15 8.314-9.797 18.595-9.797 29.731h-19.337c0 27.619-22.396 50.015-50.026 50.015-27.619 0-50.015-22.396-50.015-50.015 0-11.136 3.647-21.417 9.797-29.731-21.963-5.274-38.292-25.033-38.292-48.624 0-23.674 16.452-43.494 38.549-48.676-2.06-5.481-3.193-11.404-3.193-17.606 0-27.619 22.396-50.015 50.015-50.015 7.015 0 13.691 1.453 19.749 4.059 4.667-22.798 24.827-39.94 48.995-39.94 13.815 0 26.311 5.604 35.366 14.649 9.775-18.224 29.009-30.617 51.137-30.617z" fill="#e7a52e"/><g fill="#ffcbbe"><circle cx="114.327" cy="272.881" r="40.809"/><circle cx="397.673" cy="272.881" r="40.809"/></g><path d="m139.922 283.876c-2.714 0-5.347-1.433-6.76-3.972-2.375-4.271-6.424-6.679-12.374-7.36-5.227-.598-9.788.454-9.833.465-4.136.973-8.307-1.576-9.301-5.711s1.522-8.291 5.652-9.305c.692-.169 6.982-1.635 14.657-.864 11.235 1.129 19.778 6.406 24.704 15.263 2.073 3.729.732 8.434-2.997 10.508-1.189.662-2.478.976-3.748.976z" fill="#eaac9d"/><path d="m372.078 283.876c-1.271 0-2.559-.314-3.748-.976-3.729-2.074-5.07-6.778-2.997-10.508 4.927-8.857 13.469-14.135 24.704-15.263 7.683-.772 13.967.695 14.657.864 4.145 1.017 6.68 5.201 5.663 9.345-1.015 4.134-5.181 6.663-9.314 5.67-.142-.033-4.659-1.056-9.83-.465-5.952.681-10 3.089-12.375 7.36-1.413 2.54-4.047 3.973-6.76 3.973z" fill="#eaac9d"/><path d="m377.234 200.051v76.1c0 52.137-35.727 95.941-84.032 108.262h-.01c-8.849 2.256-18.121 3.451-27.671 3.451h-19.038c-61.698 0-111.723-50.015-111.723-111.713v-79.52c20.305-5.47 35.345-23.777 35.922-45.678 4.059 1.092 8.324 1.689 12.723 1.689 9.467 0 18.296-2.709 25.765-7.397 2.761-1.731 5.336-3.729 7.696-5.954 8.458 19.213 27.66 32.636 50.005 32.636 18.378 0 34.624-9.086 44.525-23.004 4.409 29.103 29.535 51.416 59.864 51.416 2.018 0 4.006-.103 5.974-.288z" fill="#ffddce"/><path d="m293.191 384.412c-8.849 2.256-18.121 3.451-27.671 3.451h-19.038c-61.698 0-111.723-50.015-111.723-111.713v-79.52c20.305-5.47 35.345-23.777 35.922-45.678 4.059 1.092 8.324 1.689 12.723 1.689 9.467 0 18.296-2.709 25.765-7.397v130.906c.001 52.138 35.727 95.931 84.022 108.262z" fill="#ffcbbe"/><g fill="#2b4d66"><path d="m198.417 231.914c-7.454 0-13.518 8.309-13.518 18.522s6.064 18.522 13.518 18.522c7.455 0 13.519-8.309 13.519-18.522s-6.064-18.522-13.519-18.522z"/><path d="m313.582 231.914c-7.454 0-13.518 8.309-13.518 18.522s6.064 18.522 13.518 18.522c7.455 0 13.519-8.309 13.519-18.522s-6.064-18.522-13.519-18.522z"/></g><path d="m215.798 218.333c-1.977 0-3.955-.754-5.463-2.263-6.131-6.13-16.107-6.131-22.235 0-3.018 3.018-7.909 3.017-10.928 0-3.017-3.017-3.017-7.909 0-10.927 12.155-12.156 31.934-12.154 44.089 0 3.018 3.017 3.018 7.909.001 10.927-1.51 1.508-3.488 2.263-5.464 2.263z" fill="#eaac9d"/><path d="m330.529 218.333c-1.978 0-3.955-.754-5.464-2.263-2.969-2.97-6.917-4.605-11.117-4.605-4.199 0-8.148 1.635-11.117 4.605-3.018 3.018-7.909 3.017-10.928 0-3.017-3.017-3.017-7.909 0-10.927 5.888-5.888 13.717-9.131 22.044-9.131s16.156 3.243 22.044 9.131c3.017 3.017 3.017 7.909 0 10.927-1.507 1.508-3.485 2.263-5.462 2.263z" fill="#eaac9d"/><path d="m256 304.671c-14.268 0-27.076-9.541-31.151-23.202-1.219-4.089 1.108-8.393 5.196-9.612 4.092-1.221 8.392 1.107 9.613 5.196 2.136 7.163 8.856 12.166 16.342 12.166 7.495 0 14.214-4.999 16.34-12.157 1.213-4.091 5.518-6.424 9.606-5.208 4.091 1.215 6.423 5.515 5.207 9.606-4.058 13.666-16.868 23.211-31.153 23.211z" fill="#eaa598"/><path d="m387.185 512h-262.377c9.653-16.339 22.283-30.72 37.138-42.392l.381.361c11.394 3.904 22.963 7.067 34.655 9.498 50.613 10.559 103.358 7.386 152.683-9.498l.494-.258c14.805 11.651 27.384 25.992 37.026 42.289z" fill="#698ed5"/><path d="m196.983 479.467c-5.614 9.591-10.477 20.531-14.464 32.533h-57.711c9.653-16.339 22.283-30.72 37.138-42.392l.381.361c11.394 3.904 22.963 7.067 34.656 9.498z" fill="#4073c8"/><g><g><path d="m94.898 79.046-6.286-4.049-4.049 6.286c-13.441 20.864-7.423 48.673 13.441 62.113l6.286 4.049 4.049-6.286c13.44-20.864 7.423-48.673-13.441-62.113z" fill="#95d6a4"/><path d="m132.592 20.533-6.286-4.049-4.049 6.286c-13.441 20.864-7.423 48.673 13.441 62.113l6.286 4.049 4.049-6.286c13.441-20.863 7.423-48.672-13.441-62.113z" fill="#95d6a4"/><path d="m170.452 127.718 6.286 4.049-4.049 6.286c-13.441 20.864-41.25 26.881-62.113 13.441l-6.286-4.049 4.049-6.286c13.44-20.864 41.249-26.881 62.113-13.441z" fill="#b3e59f"/><path d="m208.146 69.206 6.286 4.049-4.049 6.286c-13.441 20.864-41.25 26.881-62.113 13.441l-6.286-4.049 4.049-6.286c13.441-20.864 41.25-26.882 62.113-13.441z" fill="#b3e59f"/><path d="m84.245 186.275c-1.434 0-2.883-.398-4.177-1.232-3.588-2.311-4.622-7.092-2.311-10.68l61.781-95.901c2.311-3.588 7.095-4.621 10.679-2.311 3.588 2.311 4.622 7.092 2.311 10.68l-61.781 95.901c-1.477 2.293-3.963 3.543-6.502 3.543z" fill="#95d6a4"/></g><g><path d="m417.102 79.046 6.286-4.049 4.049 6.286c13.441 20.864 7.423 48.673-13.441 62.113l-6.286 4.049-4.049-6.286c-13.44-20.864-7.423-48.673 13.441-62.113z" fill="#b3e59f"/><path d="m379.408 20.533 6.286-4.049 4.049 6.286c13.441 20.864 7.423 48.673-13.441 62.113l-6.286 4.049-4.049-6.286c-13.441-20.863-7.423-48.672 13.441-62.113z" fill="#b3e59f"/><path d="m341.548 127.718-6.286 4.049 4.049 6.286c13.441 20.864 41.25 26.881 62.113 13.441l6.286-4.049-4.049-6.286c-13.44-20.864-41.249-26.881-62.113-13.441z" fill="#95d6a4"/><path d="m303.854 69.206-6.286 4.049 4.049 6.286c13.441 20.864 41.25 26.881 62.113 13.441l6.286-4.049-4.049-6.286c-13.441-20.864-41.25-26.882-62.113-13.441z" fill="#95d6a4"/><path d="m427.754 186.275c-2.538 0-5.025-1.25-6.502-3.543l-61.781-95.901c-2.311-3.587-1.277-8.369 2.311-10.68 3.585-2.31 8.368-1.277 10.679 2.311l61.781 95.901c2.311 3.587 1.277 8.369-2.311 10.68-1.293.834-2.743 1.232-4.177 1.232z" fill="#b3e59f"/></g></g></g></svg>