<svg id="Capa_1" enable-background="new 0 0 512 512" height="512" viewBox="0 0 512 512" width="512" xmlns="http://www.w3.org/2000/svg"><g><path d="m44.203 233.175h28.777v251.66h-28.777z" fill="#365e7d"/><path d="m44.203 233.175h13.657v251.66h-13.657z" fill="#2b4d66"/><path d="m61.221 446.859h-5.259c-12.756 0-23.096 10.341-23.096 23.096v18.948c0 12.756 10.341 23.096 23.096 23.096h5.259c12.756 0 23.096-10.341 23.096-23.096v-18.948c0-12.755-10.341-23.096-23.096-23.096z" fill="#ffddce"/><path d="m69.376 510.512c-2.534.958-5.284 1.483-8.157 1.483h-5.263c-12.751 0-23.091-10.34-23.091-23.091v-18.951c0-12.75 10.34-23.091 23.091-23.091h5.263c2.874 0 5.623.525 8.157 1.483-8.724 3.296-14.934 11.731-14.934 21.608v18.951c0 9.877 6.211 18.312 14.934 21.608z" fill="#ffcbbe"/><path d="m79.738 167.665h-42.293v66.333c0 5.366 4.35 9.716 9.716 9.716h22.86c5.366 0 9.716-4.35 9.716-9.716v-66.333z" fill="#ede6e3"/><path d="m62.818 243.715h-18.611c-5.366 0-9.712-4.346-9.712-9.722v-66.327h18.611v66.327c-.001 5.375 4.346 9.722 9.712 9.722z" fill="#d8cec9"/><path d="m97.607 157.358-13.118 33.904c-.72 1.861-2.51 3.087-4.505 3.087h-42.786c-1.995 0-3.785-1.227-4.505-3.087l-13.118-33.904c-2.929-7.57-3.016-15.946-.244-23.575l28.889-79.508c3.52-9.688 17.221-9.688 20.741 0l28.889 79.508c2.773 7.629 2.686 16.004-.243 23.575z" fill="#ede6e3"/><path d="m58.582 47.012c-1.483.01-2.956 2.431-3.564 7.261l-9.939 79.51c-.958 7.632-.927 16.005.082 23.575l4.511 33.905c.247 1.864.865 3.09 1.555 3.09h-14.036c-1.988 0-3.78-1.226-4.501-3.09l-13.121-33.905c-2.925-7.57-3.018-15.943-.237-23.575l28.879-79.51c1.761-4.841 6.066-7.261 10.371-7.261z" fill="#d8cec9"/><path d="m426.145 512h-262.321c13.43-22.71 32.587-41.619 55.482-54.751h151.357c22.895 13.132 42.052 32.041 55.482 54.751z" fill="#ede6e3"/><path d="m370.661 457.249-2.801 2.801c-36.263 30.98-87.337 35.192-127.628 12.627-6.344-3.533-12.421-7.755-18.126-12.627l-2.801-2.801c13.399-7.693 28.086-13.41 43.658-16.736v-55.502h64.051v55.502c15.561 3.327 30.247 9.043 43.647 16.736z" fill="#ffddce"/><path d="m277.049 385.008v55.502c-13.822 5.283-26.387 16.53-36.82 32.164-6.344-3.533-12.421-7.755-18.127-12.627l-2.801-2.801c13.399-7.693 28.086-13.41 43.658-16.736v-55.502z" fill="#ffcbbe"/><path d="m327.012 385.011v22.844c-7.261 1.473-14.769 2.245-22.463 2.245h-19.125c-7.693 0-15.202-.772-22.463-2.245v-22.844z" fill="#ffcbbe"/><path d="m240.234 472.678c-7.415 11.092-13.76 24.389-18.703 39.322h-57.706c13.43-22.71 32.587-41.619 55.482-54.751l2.801 2.801c5.705 4.872 11.781 9.095 18.126 12.628z" fill="#d8cec9"/><path d="m294.984 494.62c-20.573 0-41.146-5.251-59.494-15.751-3.704-2.119-4.988-6.84-2.868-10.544s6.842-4.987 10.543-2.868c31.964 18.292 71.675 18.292 103.639 0 3.703-2.118 8.424-.836 10.543 2.868 2.12 3.704.836 8.424-2.868 10.544-18.349 10.5-38.922 15.751-59.495 15.751z" fill="#eca900"/><g><g><circle cx="371.981" cy="460.045" fill="#eca900" r="24.545"/><path d="m382.207 482.373c-3.11 1.432-6.571 2.225-10.217 2.225-13.564 0-24.553-10.989-24.553-24.553 0-13.554 10.989-24.543 24.553-24.543 3.646 0 7.106.793 10.217 2.225-8.456 3.862-14.336 12.411-14.336 22.318-.001 9.918 5.88 18.456 14.336 22.328z" fill="#e7a52e"/></g><g><circle cx="217.987" cy="460.045" fill="#eca900" r="24.545"/><path d="m228.213 482.373c-3.11 1.432-6.571 2.225-10.217 2.225-13.564 0-24.553-10.989-24.553-24.553 0-13.554 10.989-24.543 24.553-24.543 3.646 0 7.106.793 10.217 2.225-8.456 3.862-14.337 12.411-14.337 22.318.001 9.918 5.881 18.456 14.337 22.328z" fill="#e7a52e"/></g></g><path d="m147.782 176.187h293.875v94.528h-293.875z" fill="#365e7d"/><g fill="#ffcbbe"><circle cx="154.019" cy="272.941" r="40.799"/><circle cx="437.295" cy="272.941" r="40.799"/></g><path d="m178.523 282.404c-2.498 0-4.948-1.209-6.437-3.443-6.247-9.378-21.432-5.925-21.585-5.889-4.135.976-8.307-1.573-9.302-5.708s1.519-8.291 5.648-9.307c1.049-.257 25.817-6.1 38.099 12.336 2.366 3.551 1.405 8.348-2.146 10.714-1.317.877-2.805 1.297-4.277 1.297z" fill="#eaac9d"/><path d="m411.856 283.936c-1.271 0-2.559-.314-3.748-.976-3.729-2.074-5.071-6.779-2.996-10.508 4.925-8.855 13.466-14.132 24.699-15.261 7.677-.771 13.962.695 14.654.864 4.144 1.017 6.679 5.201 5.662 9.345-1.014 4.134-5.178 6.668-9.313 5.67-.144-.033-4.663-1.055-9.827-.464-5.949.681-9.996 3.087-12.371 7.357-1.414 2.54-4.047 3.972-6.76 3.973z" fill="#eaac9d"/><path d="m457.148 65.242c1.308-4.228 2.014-8.721 2.014-13.379 0-24.968-20.241-45.209-45.209-45.209-9.349 0-18.035 2.839-25.244 7.7-4.524-8.537-13.496-14.354-23.83-14.354-14.889 0-26.959 12.07-26.959 26.959s12.07 26.959 26.959 26.959c1.328 0 2.633-.1 3.91-.286.81 21.03 15.975 38.376 35.981 42.505-1.492 4.536-2.31 9.378-2.31 14.413 0 25.469 20.647 46.116 46.116 46.116s46.116-20.647 46.116-46.116c-.001-22.539-16.173-41.289-37.544-45.308z" fill="#e04b66"/><path d="m444.548 175.174h-297.771l.669-5.304 4.377-34.77 2.729-21.67c5.263-41.774 34.719-76.503 75.071-88.512l66.039-19.641 66.028 19.641c40.363 12.009 69.808 46.738 75.081 88.512l2.729 21.67 4.377 34.77z" fill="#ffc250"/><path d="m295.668 5.276-36.274 19.641c-22.164 12.009-38.344 46.738-41.238 88.512l-4.274 61.744h-67.11l7.786-61.744c5.263-41.774 34.719-76.503 75.071-88.512z" fill="#e7a52e"/><path d="m443.878 169.87-143.87-45.729c-2.832-.896-5.871-.896-8.703 0l-22.195 7.055-30.434 9.671-91.23 29.003 4.377-34.77 71.919-33.637 23.905-11.185 41.928-19.61c3.852-1.802 8.311-1.802 12.163 0l137.763 64.432z" fill="#e7a52e"/><path d="m415.926 164.35v111.86c0 52.124-35.718 95.917-84.011 108.234h-.01c-8.847 2.256-18.116 3.45-27.664 3.45h-19.033c-61.682 0-111.695-50.003-111.695-111.685v-111.87c6.674 5.629 113.188-10.32 121.212-31.619 10.938 29.024 113.875 37.809 121.201 31.63z" fill="#365e7d"/><path d="m331.905 384.444c-8.847 2.256-18.116 3.45-27.664 3.45h-19.033c-61.682 0-111.695-50.003-111.695-111.685v-111.87c6.674 5.629 14.321 10.14 22.653 13.244s17.349 33.1 26.763 33.1c8.744 0 17.138-1.462 24.976-4.161v69.688c0 52.124 35.718 95.906 84 108.234z" fill="#2b4d66"/><path d="m390.812 178.46v83.65c0 21.577-22.998 35.357-42.021 25.182l-1.998-1.071c-30.784-16.458-67.419-17.344-98.842-2.647-1.782.834-3.543 1.71-5.294 2.647l-2.008 1.071c-19.023 10.176-42.011-3.605-42.011-25.182v-83.661c7.632 2.554 15.799 3.934 24.296 3.934 8.754 0 17.169-1.473 25.017-4.171 21.556-7.436 38.756-24.213 46.779-45.492 10.938 29.023 38.952 49.663 71.796 49.663 8.487.001 16.654-1.369 24.286-3.923z" fill="#ffddce"/><path d="m247.951 178.213v105.361c-1.782.834-3.543 1.71-5.294 2.647l-2.008 1.071c-19.023 10.176-42.011-3.605-42.011-25.182v-83.661c7.632 2.554 15.799 3.934 24.296 3.934 8.755.001 17.169-1.472 25.017-4.17z" fill="#ffcbbe"/><g fill="#2b4d66"><path d="m238.089 231.984c-7.453 0-13.516 8.307-13.516 18.517s6.063 18.517 13.516 18.517c7.452 0 13.515-8.307 13.515-18.517s-6.062-18.517-13.515-18.517z"/><ellipse cx="353.225" cy="250.501" rx="13.516" ry="18.517"/></g><path d="m255.465 218.409c-1.977 0-3.955-.754-5.463-2.263-2.969-2.969-6.915-4.604-11.114-4.604-4.198 0-8.145 1.635-11.113 4.603-3.017 3.018-7.909 3.017-10.927 0s-3.018-7.909 0-10.927c5.887-5.887 13.714-9.13 22.04-9.13s16.153 3.242 22.04 9.129c3.018 3.017 3.018 7.909 0 10.927-1.509 1.511-3.486 2.265-5.463 2.265z" fill="#eaac9d"/><path d="m370.168 218.409c-1.977 0-3.955-.754-5.463-2.263-2.969-2.969-6.915-4.604-11.114-4.604-4.198 0-8.145 1.635-11.113 4.603-3.017 3.018-7.909 3.017-10.927 0s-3.018-7.909 0-10.927c5.887-5.887 13.714-9.13 22.04-9.13s16.153 3.242 22.04 9.129c3.018 3.017 3.018 7.909 0 10.927-1.508 1.511-3.486 2.265-5.463 2.265z" fill="#eaac9d"/><path d="m295.657 325.325c-14.265 0-27.072-9.539-31.145-23.198-1.219-4.089 1.108-8.393 5.197-9.612 4.09-1.22 8.392 1.107 9.612 5.196 2.135 7.16 8.853 12.161 16.336 12.161 7.492 0 14.209-4.997 16.333-12.153 1.215-4.091 5.516-6.423 9.606-5.208 4.091 1.215 6.422 5.515 5.208 9.606-4.057 13.665-16.865 23.208-31.147 23.208z" fill="#2b4d66"/><path d="m307.203.129h-23.088c-4.974 0-9.005 4.032-9.005 9.005v96.157h41.099v-96.157c-.001-4.973-4.032-9.005-9.006-9.005z" fill="#ffc250"/><path d="m307.203.129h-23.088c-4.974 0-9.005 4.032-9.005 9.005v96.157h41.099v-96.157c-.001-4.973-4.032-9.005-9.006-9.005z" fill="#e7a52e"/><path d="m470.234 178.13c0 9.722-9.455 16.633-18.714 13.688l-151.512-48.159c-2.832-.896-5.871-.896-8.703 0l-22.195 7.055-30.434 9.671-98.883 31.433c-1.463.463-2.935.69-4.377.69-7.632 0-14.326-6.2-14.326-14.378 0-5.572 3.224-10.649 8.27-13.008l94.382-44.143 23.905-11.185 41.928-19.61c3.852-1.802 8.311-1.802 12.163 0l160.215 74.937c2.534 1.174 4.593 3.038 6.035 5.294 1.443 2.267 2.246 4.924 2.246 7.715z" fill="#ffc250"/><path d="m238.677 160.385-98.883 31.433c-1.463.463-2.935.69-4.377.69-7.632 0-14.326-6.2-14.326-14.378 0-5.572 3.224-10.649 8.27-13.008l94.382-44.143c-10.969 5.129-15.397 18.405-9.692 29.085 3.749 7.034 11.01 11.185 18.652 11.185 1.978.001 3.996-.277 5.974-.864z" fill="#e7a52e"/></g></svg>