<svg id="Capa_1" enable-background="new 0 0 512 512" height="512" viewBox="0 0 512 512" width="512" xmlns="http://www.w3.org/2000/svg"><g><g><path d="m110.494 395.241 11.581-.931 38.077 57.569-18.428 1.481c-9.614.773-18.887-3.743-24.208-11.787l-17.039-25.761c-5.578-8.435-.063-19.761 10.017-20.571z" fill="#698ed5"/><path d="m127.464 384.017-5.389 10.293 38.077 57.569 8.574-16.378c4.473-8.545 3.947-18.846-1.374-26.89l-17.039-25.761c-5.578-8.435-18.159-7.792-22.849 1.167z" fill="#4073c8"/><path d="m171.175 476.264c-2.507 0-4.965-1.218-6.452-3.465l-41.107-62.152c-2.354-3.559-1.376-8.353 2.182-10.706 3.559-2.354 8.352-1.377 10.707 2.182l41.107 62.152c2.354 3.559 1.376 8.353-2.182 10.706-1.311.868-2.791 1.283-4.255 1.283z" fill="#ffc250"/></g><g><path d="m54.133 401.313 11.581-.931 38.077 57.569-18.428 1.481c-9.614.773-18.887-3.743-24.208-11.787l-17.039-25.761c-5.578-8.435-.063-19.761 10.017-20.571z" fill="#698ed5"/><path d="m71.103 390.089-5.389 10.293 38.077 57.569 8.574-16.378c4.473-8.545 3.947-18.846-1.374-26.89l-17.039-25.761c-5.578-8.435-18.159-7.792-22.849 1.167z" fill="#4073c8"/><path d="m133.35 510.359c-2.507 0-4.965-1.218-6.452-3.465l-59.649-90.184c-2.354-3.559-1.376-8.353 2.182-10.707s8.352-1.377 10.707 2.182l59.649 90.185c2.354 3.559 1.376 8.353-2.182 10.707-1.311.866-2.791 1.282-4.255 1.282z" fill="#ffc250"/></g><path d="m357.428 498.058h-210.343c9.68-16.36-.527-16.81 14.351-28.492 17.866-14.028 38.945-24.147 61.957-29.07v-55.516h64.067v55.516c23.084 4.94 44.225 15.111 62.128 29.212 14.8 11.656-1.801 12.056 7.84 28.35z" fill="#ffddce"/><path d="m237.486 384.979v55.516c-18.757 7.166-35.221 25.334-47.179 50.539-3.102 6.538-43.749-9.787-28.871-21.469 17.866-14.028 38.945-24.147 61.957-29.07v-55.516z" fill="#ffcbbe"/><path d="m386.61 512h-262.377c9.653-16.339 22.283-30.72 37.138-42.392l.381.361c11.394 3.904 22.963 7.067 34.655 9.498 50.613 10.559 103.358 7.386 152.683-9.498l.494-.258c14.805 11.651 27.384 25.992 37.026 42.289z" fill="#b3e59f"/><path d="m196.408 479.467c-5.614 9.591-10.477 20.531-14.464 32.533h-57.711c9.653-16.339 22.283-30.72 37.138-42.392l.381.361c11.394 3.904 22.963 7.067 34.656 9.498z" fill="#95d6a4"/><path d="m435.498 128.325c1.235-3.949 1.903-8.149 1.903-12.505 0-19.973-14.002-36.666-32.723-40.825-2.009-41.756-36.494-74.995-78.748-74.995-15.217 0-29.423 4.314-41.467 11.784-7.466-6.937-17.465-11.185-28.46-11.185s-20.993 4.248-28.46 11.185c-12.043-7.47-26.249-11.784-41.466-11.784-42.254 0-76.739 33.239-78.748 74.995-18.721 4.159-32.723 20.852-32.723 40.825 0 4.356.667 8.556 1.903 12.505-21.75 14.03-36.156 38.46-36.156 66.27 0 43.545 35.3 78.845 78.845 78.845h273.611c43.545 0 78.845-35.3 78.845-78.845 0-27.81-14.406-52.24-36.156-66.27z" fill="#9d6b6b"/><path d="m254.508 273.439h-135.311c-43.544 0-78.851-35.297-78.851-78.84 0-27.813 14.411-52.244 36.163-66.274-1.237-3.948-1.907-8.154-1.907-12.504 0-19.978 13.999-36.668 32.73-40.822 2-41.76 36.493-74.995 78.748-74.995 15.216 0 29.421 4.309 41.461 11.783 7.463-6.938 17.463-11.185 28.462-11.185.598 0 1.185.01 1.773.041-9.793 13.576-15.855 30.029-16.721 47.842-21.225 4.711-37.09 23.638-37.09 46.276 0 4.938.753 9.7 2.154 14.174-24.658 15.906-40.987 43.605-40.987 75.129 0 49.357 40.018 89.375 89.376 89.375z" fill="#8b5e5e"/><g fill="#ffcbbe"><circle cx="114.236" cy="272.722" r="40.836"/><circle cx="397.771" cy="272.722" r="40.836"/></g><path d="m139.845 283.72c-2.714 0-5.347-1.433-6.76-3.972-2.377-4.276-6.43-6.685-12.387-7.367-5.23-.597-9.796.455-9.841.466-4.139.974-8.307-1.576-9.301-5.711s1.522-8.291 5.653-9.304c.692-.17 6.976-1.635 14.665-.865 11.24 1.129 19.788 6.41 24.716 15.271 2.073 3.729.732 8.434-2.997 10.508-1.189.66-2.477.974-3.748.974z" fill="#eaac9d"/><path d="m372.162 283.72c-1.271 0-2.559-.314-3.749-.976-3.729-2.074-5.07-6.778-2.997-10.508 4.929-8.861 13.476-14.142 24.716-15.271 7.685-.77 13.974.696 14.665.865 4.145 1.017 6.68 5.201 5.663 9.345-1.014 4.133-5.177 6.667-9.313 5.67-.133-.031-4.663-1.056-9.839-.465-5.958.682-10.01 3.092-12.387 7.367-1.412 2.541-4.046 3.973-6.759 3.973z" fill="#eaac9d"/><path d="m377.317 194.453v81.541c0 61.738-50.048 111.787-111.787 111.787h-19.05c-61.738 0-111.797-50.048-111.797-111.787v-81.541c4.484 1.505 9.288 2.33 14.277 2.33 21.226 0 38.977-14.844 43.461-34.709 7.463 5.639 16.762 8.989 26.833 8.989 15.257 0 28.71-7.67 36.75-19.349 8.03 11.68 21.483 19.349 36.74 19.349 10.072 0 19.37-3.35 26.833-8.989 4.484 19.865 22.236 34.709 43.461 34.709 4.991 0 9.795-.825 14.279-2.33z" fill="#ffddce"/><path d="m289.519 385.194c-7.721 1.701-15.752 2.587-23.988 2.587h-19.05c-61.738 0-111.797-50.048-111.797-111.787v-81.541c4.484 1.505 9.288 2.33 14.277 2.33 21.226 0 38.977-14.844 43.461-34.709 2.845 2.144 5.969 3.969 9.288 5.391v108.529c0 53.502 37.595 98.231 87.809 109.2z" fill="#ffcbbe"/><g fill="#2b4d66"><path d="m198.383 236.883c-2.928 0-5.633 1.294-7.85 3.468l-5.112-3.637c-3.479-2.474-8.302-1.66-10.775 1.817-2.474 3.477-1.66 8.301 1.817 10.774l8.396 5.973c0 .047-.005.091-.005.138 0 10.219 6.068 18.534 13.528 18.534 7.459 0 13.527-8.314 13.527-18.534s-6.067-18.533-13.526-18.533z"/><path d="m337.36 238.532c-2.473-3.476-7.294-4.292-10.775-1.817l-5.112 3.637c-2.216-2.174-4.922-3.468-7.85-3.468-7.459 0-13.527 8.314-13.527 18.534s6.068 18.534 13.527 18.534c7.46 0 13.528-8.314 13.528-18.534 0-.047-.005-.091-.005-.138l8.396-5.973c3.478-2.474 4.292-7.298 1.818-10.775z"/></g><path d="m215.774 218.134c-1.978 0-3.955-.754-5.464-2.263-2.972-2.972-6.924-4.61-11.128-4.61s-8.156 1.637-11.128 4.61c-3.018 3.017-7.91 3.018-10.927 0-3.018-3.017-3.018-7.909-.001-10.927 5.891-5.891 13.724-9.136 22.055-9.136s16.164 3.244 22.055 9.136c3.017 3.018 3.017 7.909-.001 10.927-1.507 1.508-3.484 2.263-5.461 2.263z" fill="#eaac9d"/><path d="m330.582 218.134c-1.977 0-3.955-.754-5.463-2.263-2.973-2.972-6.926-4.61-11.13-4.61-4.203 0-8.156 1.637-11.128 4.61-3.018 3.017-7.91 3.018-10.927 0-3.018-3.017-3.018-7.909-.001-10.927 5.891-5.891 13.724-9.136 22.055-9.136 8.332 0 16.164 3.244 22.055 9.136 3.018 3.017 3.018 7.909.001 10.927-1.507 1.508-3.485 2.263-5.462 2.263z" fill="#eaac9d"/><path d="m256.003 314.838c-14.274 0-27.09-9.546-31.166-23.215-1.219-4.089 1.108-8.392 5.196-9.612 4.091-1.222 8.393 1.107 9.613 5.196 2.138 7.17 8.864 12.178 16.357 12.178 7.503 0 14.228-5.004 16.356-12.169 1.214-4.091 5.517-6.423 9.606-5.208 4.091 1.215 6.423 5.516 5.207 9.606-4.059 13.674-16.877 23.224-31.169 23.224z" fill="#eaa598"/><g><path d="m377.229 159.329c-49.706-42.454-116.132-54.692-175.48-36.695-24.003 7.283-46.852 19.522-66.972 36.695 5.419-32.945 32.605-62.47 66.972-77.923 16.926-7.623 35.582-11.816 54.249-11.332 56.567-1.473 113.134 40.085 121.231 89.255z" fill="#ffc250"/><path d="m201.749 81.407v41.228c-24.003 7.283-46.852 19.522-66.972 36.695 5.419-32.946 32.605-62.471 66.972-77.923z" fill="#e7a52e"/></g><path d="m287.455 384.979v25.353c-7.263 1.473-14.773 2.246-22.468 2.246h-19.13c-7.695 0-15.205-.773-22.468-2.246v-25.353z" fill="#ffcbbe"/></g></svg>