<svg id="Capa_1" enable-background="new 0 0 512 512" height="512" viewBox="0 0 512 512" width="512" xmlns="http://www.w3.org/2000/svg"><g><path d="m159.674 168.905h280.943v122.782h-280.943z" fill="#2b4d66"/><path d="m444.29 286.535 7.463 58.465c5.112 40.045-26.09 75.483-66.46 75.483h-170.305c-40.37 0-71.572-35.438-66.46-75.483l7.463-58.464" fill="#365e7d"/><path d="m288.986 420.483h-73.998c-40.373 0-71.567-35.438-66.457-75.481l7.458-58.463h73.998l-7.458 58.463c-5.109 40.043 26.084 75.481 66.457 75.481z" fill="#2b4d66"/><g><path d="m431.334 512h-66.756l-43.391-12.795-94.519 12.795h-57.721c21.18-35.799 56.577-62.182 98.444-71.35.237-.052.484-.103.721-.155v-55.516h64.067v55.516c.247.052.494.103.731.165 7.85 1.72 15.463 4.038 22.808 6.923 3.874 1.514-2.617 13.485 1.092 15.298 3.317 1.628 16.864-6.913 20.047-5.058 22.449 13.114 41.239 31.801 54.477 54.177z" fill="#ffddce"/><path d="m332.179 384.979v26.321c-7.273 1.483-14.804 2.266-22.52 2.266h-19.027c-7.716 0-15.247-.783-22.52-2.266v-26.321z" fill="#ffcbbe"/><path d="m379.641 459.481v.01l-15.061 52.509h-137.91l129.185-64.366c8.313 3.266 16.266 7.242 23.786 11.847z" fill="#e04b66"/><path d="m282.208 384.979v55.516c-23.622 9.024-43.608 35.5-55.537 71.505h-57.721c21.304-36.005 56.99-62.48 99.165-71.505v-55.516z" fill="#ffcbbe"/></g><path d="m440.619 168.908v13.928l-140.465-36.18-140.475 36.18v-13.928c0-13.341 1.865-26.249 5.347-38.477 1.38-4.883 3.029-9.663 4.914-14.32 20.871-51.416 71.309-87.679 130.205-87.679h.01c58.896 0 109.333 36.262 130.205 87.679 1.885 4.656 3.534 9.436 4.924 14.33 3.47 12.229 5.335 25.127 5.335 38.467z" fill="#ffc250"/><path d="m342.799 35.022c-56.732 18.049-97.826 71.165-97.826 133.882h-85.299c0-77.583 62.892-140.475 140.475-140.475 14.866 0 29.196 2.308 42.65 6.593z" fill="#e7a52e"/><g fill="#ffcbbe"><circle cx="158.473" cy="272.884" r="40.808"/><circle cx="441.815" cy="272.884" r="40.808"/></g><path d="m184.068 283.88c-2.714 0-5.347-1.433-6.76-3.973-2.375-4.271-6.423-6.678-12.375-7.359-5.223-.597-9.787.455-9.833.465-4.141.976-8.306-1.576-9.3-5.711-.993-4.135 1.522-8.291 5.652-9.304.692-.17 6.977-1.635 14.657-.865 11.235 1.129 19.778 6.407 24.704 15.264 2.074 3.729.732 8.434-2.997 10.508-1.189.66-2.478.975-3.748.975z" fill="#eaac9d"/><path d="m416.22 283.88c-1.271 0-2.559-.314-3.748-.975-3.729-2.074-5.071-6.779-2.997-10.508 4.926-8.857 13.469-14.135 24.704-15.264 7.677-.771 13.965.695 14.657.865 4.144 1.017 6.679 5.201 5.662 9.345-1.015 4.134-5.18 6.667-9.314 5.67-.154-.035-4.672-1.056-9.829-.464-5.952.681-9.999 3.089-12.375 7.36-1.413 2.538-4.046 3.97-6.76 3.971z" fill="#eaac9d"/><path d="m421.372 235.912v40.239c0 61.697-50.015 111.713-111.713 111.713h-19.027c-61.697 0-111.723-50.015-111.723-111.713v-40.239l6.573-14.505 5.068-11.157c4.584-10.106 11.909-18.409 20.871-24.189 8.963-5.779 19.553-9.024 30.658-9.024 24.869 0 46.832-16.246 54.105-40.022l3.966-12.98 3.956 12.98c3.637 11.888 10.94 21.891 20.449 28.927s21.211 11.095 33.656 11.095c22.211 0 42.361 12.991 51.53 33.213l5.058 11.157z" fill="#ffddce"/><path d="m414.8 221.407-114.649-29.525-114.669 29.525 5.068-11.157c4.584-10.106 11.909-18.409 20.871-24.189 8.963-5.779 19.553-9.024 30.658-9.024 24.869 0 46.832-16.246 54.105-40.022l3.966-12.98 3.956 12.98c3.637 11.888 10.94 21.891 20.449 28.927s21.211 11.095 33.656 11.095c22.211 0 42.361 12.991 51.53 33.213z" fill="#ffcbbe"/><path d="m333.637 385.279c-7.716 1.7-15.741 2.586-23.972 2.586h-19.037c-61.697 0-111.722-50.015-111.722-111.711v-40.238l11.641-25.662c4.584-10.106 11.909-18.409 20.871-24.188s19.553-9.024 30.658-9.024c1.277 0 2.544-.041 3.812-.124v99.236c-.001 53.465 37.569 98.164 87.749 109.125z" fill="#ffcbbe"/><g fill="#2b4d66"><path d="m242.562 237.069c-2.924 0-5.626 1.292-7.84 3.462l-5.109-3.635c-3.477-2.473-8.301-1.66-10.775 1.817-2.473 3.477-1.66 8.301 1.817 10.775l8.393 5.971c0 .044-.005.087-.005.132 0 10.213 6.064 18.521 13.519 18.521s13.519-8.308 13.519-18.521-6.064-18.522-13.519-18.522z"/><path d="m381.45 238.713c-2.474-3.477-7.298-4.29-10.775-1.817l-5.109 3.635c-2.214-2.17-4.916-3.462-7.84-3.462-7.454 0-13.519 8.309-13.519 18.522s6.064 18.521 13.519 18.521 13.519-8.308 13.519-18.521c0-.045-.005-.087-.005-.132l8.393-5.971c3.477-2.474 4.29-7.298 1.817-10.775z"/></g><path d="m259.942 218.338c-1.977 0-3.955-.754-5.463-2.263-2.97-2.97-6.917-4.605-11.117-4.605s-8.147 1.635-11.117 4.605c-3.017 3.017-7.909 3.018-10.927 0-3.017-3.017-3.018-7.909 0-10.927 5.888-5.888 13.716-9.131 22.044-9.131 8.327 0 16.156 3.243 22.044 9.131 3.018 3.018 3.017 7.909 0 10.927-1.51 1.508-3.487 2.263-5.464 2.263z" fill="#eaac9d"/><path d="m374.673 218.338c-1.977 0-3.955-.755-5.463-2.263-2.97-2.969-6.918-4.605-11.117-4.605-4.2 0-8.148 1.636-11.118 4.605-3.017 3.017-7.909 3.017-10.927 0s-3.018-7.909 0-10.927c12.155-12.154 31.933-12.155 44.088 0 3.018 3.017 3.018 7.909 0 10.927-1.509 1.508-3.486 2.263-5.463 2.263z" fill="#eaac9d"/><path d="m300.141 314.976c-14.268 0-27.077-9.541-31.15-23.203-1.219-4.09 1.108-8.393 5.197-9.612 4.088-1.219 8.392 1.108 9.612 5.197 2.135 7.163 8.856 12.165 16.342 12.165 7.495 0 14.214-4.999 16.339-12.157 1.215-4.091 5.516-6.422 9.606-5.208 4.091 1.215 6.422 5.516 5.208 9.606-4.06 13.668-16.87 23.212-31.154 23.212z" fill="#eaa598"/><path d="m440.619 168.908v13.928l-140.465-36.18-140.475 36.18v-13.928c0-13.341 1.865-26.249 5.347-38.477l8.664-4.11 15.453-7.335 32.379-15.381 15.453-7.335 55.455-26.331 7.716-3.668 7.737 3.678 55.444 26.321 15.453 7.335 32.379 15.381.196.093 15.257 7.242 8.674 4.121c3.468 12.228 5.333 25.126 5.333 38.466z" fill="#e7a52e"/><path d="m452.27 149.129v59.318l-25.662-6.614-15.452-3.976-32.379-8.335-15.453-3.986-55.444-14.279-7.737-1.988-7.716 1.988-55.454 14.279-15.453 3.986-32.379 8.335-15.452 3.976-25.662 6.614v-59.318l25.662-12.187 15.452-7.335 32.379-15.381 15.453-7.334 55.454-26.332 7.716-3.667 7.737 3.677 55.444 26.322 15.453 7.334 32.379 15.381.195.093 15.257 7.242z" fill="#ffc250"/><path d="m329.877 0h-59.463c-10.065 0-17.507 9.373-15.225 19.176l4.794 20.597c2.33 10.01 11.251 17.093 21.529 17.093h37.267c10.277 0 19.199-7.083 21.529-17.093l4.794-20.597c2.282-9.803-5.16-19.176-15.225-19.176z" fill="#e04b66"/><path d="m310.296 56.866h-28.783c-10.271 0-19.192-7.088-21.531-17.091l-4.79-20.604c-2.277-9.796 5.161-19.171 15.226-19.171h28.773c-10.065 0-17.503 9.375-15.226 19.172l4.801 20.604c2.327 10.002 11.249 17.09 21.53 17.09z" fill="#de1d49"/><g fill="#e7a52e"><path d="m189.141 129.607v68.25l-15.452 3.976v-64.891l5.239-7.295z"/><path d="m236.973 106.892v78.644l-15.453 3.986v-75.296l6.409-9.93z"/><path d="m307.88 80.57v90.687l-7.737-1.988-7.716 1.988v-90.697l7.716-7.438z"/><path d="m426.608 136.942v64.891l-15.452-3.976v-68.25l.195.093 8.312-1.081z"/><path d="m378.777 114.226v75.296l-15.453-3.986v-78.644l6.088-3.623z"/></g><path d="m56.277 233.105h28.784v251.723h-28.784z" fill="#365e7d"/><path d="m56.277 233.105h13.661v251.723h-13.661z" fill="#2b4d66"/><path d="m73.299 446.843h-5.26c-12.759 0-23.102 10.343-23.102 23.102v18.953c0 12.759 10.343 23.102 23.102 23.102h5.26c12.759 0 23.102-10.343 23.102-23.102v-18.953c0-12.759-10.343-23.102-23.102-23.102z" fill="#ffddce"/><path d="m81.457 510.511c-2.534.958-5.285 1.483-8.159 1.483h-5.264c-12.754 0-23.097-10.343-23.097-23.097v-18.955c0-12.754 10.343-23.097 23.097-23.097h5.264c2.874 0 5.625.525 8.159 1.483-8.726 3.297-14.938 11.734-14.938 21.613v18.955c0 9.881 6.212 18.319 14.938 21.615z" fill="#ffcbbe"/><path d="m91.821 167.579h-42.304v66.349c0 5.368 4.351 9.719 9.719 9.719h22.866c5.368 0 9.719-4.351 9.719-9.719z" fill="#ede6e3"/><path d="m77.847 243.653h-18.615c-5.367 0-9.715-4.347-9.715-9.725v-66.344h18.615v66.344c0 5.378 4.348 9.725 9.715 9.725z" fill="#d8cec9"/><path d="m109.694 157.269-13.121 33.912c-.72 1.861-2.511 3.088-4.506 3.088h-42.797c-1.996 0-3.786-1.227-4.506-3.088l-13.121-33.912c-2.93-7.572-3.016-15.95-.244-23.581l28.897-79.528c3.521-9.69 17.225-9.69 20.746 0l28.896 79.528c2.773 7.631 2.686 16.008-.244 23.581z" fill="#ede6e3"/><path d="m70.66 46.895c-1.483.01-2.957 2.431-3.564 7.263l-9.941 79.53c-.958 7.634-.927 16.009.082 23.581l4.512 33.914c.247 1.865.865 3.091 1.556 3.091h-14.042c-1.988 0-3.781-1.226-4.502-3.091l-13.124-33.914c-2.926-7.572-3.018-15.947-.237-23.581l28.886-79.53c1.761-4.842 6.068-7.263 10.374-7.263z" fill="#d8cec9"/></g></svg>