<svg id="Capa_1" enable-background="new 0 0 512.002 512.002" height="512" viewBox="0 0 512.002 512.002" width="512" xmlns="http://www.w3.org/2000/svg"><g><path d="m491.998 317.684h-92.671v40.005h92.671c11.047 0 20.002-8.955 20.002-20.002 0-11.048-8.955-20.003-20.002-20.003z" fill="#365e7d"/><path d="m512.002 337.685c0 11.054-8.961 20.004-20.004 20.004h-92.672v-17.766h92.672c7.848 0 14.65-4.53 17.922-11.12 1.336 2.671 2.082 5.687 2.082 8.882z" fill="#2b4d66"/><path d="m413.903 76.882c21.105-1.889 39.284 14.736 39.284 35.925v136.008c0 49.253-25.995 92.434-65.013 116.572-7.679 4.751-15.863 23.1-24.452 26.277-14.802 5.474-30.808-5.872-47.512-5.872h-132.42l-28.72 8.768-18.501-8.768h-107.598c-16 0-28.971-12.971-28.971-28.971v-9.823c0-25.22 13.405-48.538 35.199-61.229l60.022-34.951c39.05-22.742 67.347-59.11 80.283-101.099 9.851-31.97 37.926-54.902 71.243-57.885l81.05-7.247z" fill="#e04b66"/><path d="m327.798 84.588c-84.067 7.514-150.669 74.193-158.105 158.283l-12.361 151.262-11.261-8.34h-117.1c-16 0-28.971-12.971-28.971-28.971v-9.823c0-25.22 13.405-48.538 35.199-61.229l60.022-34.951c39.05-22.742 67.347-59.11 80.283-101.099 9.851-31.97 37.926-54.902 71.243-57.885z" fill="#de1d49"/><path d="m356.568 395.023-73.905-42.669 73.905-42.669c7.986-4.611 10.723-14.823 6.112-22.809-4.611-7.988-14.825-10.722-22.809-6.112l-73.905 42.669v-85.338c0-9.222-7.476-16.698-16.698-16.698s-16.698 7.476-16.698 16.698v85.338l-73.905-42.669c-7.987-4.613-18.199-1.875-22.809 6.112-4.611 7.986-1.874 18.198 6.112 22.809l73.905 42.669-73.905 42.669c-7.987 4.611-10.723 14.823-6.112 22.809 3.093 5.357 8.705 8.352 14.476 8.352 2.833 0 5.704-.722 8.334-2.24l73.905-42.669v85.338c0 9.222 7.476 16.698 16.698 16.698s16.698-7.476 16.698-16.698v-85.338l73.905 42.669c2.63 1.519 5.501 2.24 8.334 2.24 5.77 0 11.383-2.995 14.476-8.352 4.609-7.986 1.873-18.198-6.114-22.809z" fill="#e7a52e"/><circle cx="249.268" cy="352.354" fill="#ffc250" r="33.443"/><path d="m249.263 202.184c-82.932 0-150.157 67.236-150.157 150.168s67.225 150.168 150.157 150.168c82.943 0 150.168-67.236 150.168-150.168s-67.225-150.168-150.168-150.168zm0 253.371c-56.995 0-103.192-46.208-103.192-103.203s46.197-103.192 103.192-103.192 103.203 46.197 103.203 103.192c0 56.994-46.208 103.203-103.203 103.203z" fill="#ffc250"/><g fill="#e7a52e"><path d="m260.845 454.904c3.803.425 7.665.651 11.581.651 56.995 0 103.203-46.208 103.203-103.203s-46.208-103.192-103.203-103.192c-3.916 0-7.779.226-11.581.651 51.542 5.756 91.621 49.462 91.621 102.541 0 53.078-40.079 96.794-91.621 102.552z"/><path d="m122.269 352.352c0-79.035 61.056-143.815 138.576-149.728-3.822-.292-7.685-.44-11.582-.44-82.932 0-150.157 67.236-150.157 150.168s67.225 150.168 150.157 150.168c3.897 0 7.76-.149 11.582-.44-77.52-5.914-138.576-70.693-138.576-149.728z"/></g><path d="m476.195 127.051v117.02c0 11.229-9.107 20.336-20.346 20.336h-10.312c-43.546 0-78.841-35.305-78.841-78.851 0-21.778 8.829-41.486 23.087-55.754 14.268-14.268 33.976-23.097 55.754-23.097h10.312c11.239 0 20.346 9.107 20.346 20.346z" fill="#ffc250"/><g fill="#e7a52e"><path d="m460.109 263.959c-1.369.289-2.794.445-4.252.445h-10.308c-43.547 0-78.858-35.299-78.858-78.846 0-21.774 8.828-41.488 23.098-55.748 14.271-14.271 33.985-23.098 55.759-23.098h10.308c1.458 0 2.883.156 4.252.445-18.423 1.948-34.965 10.241-47.366 22.653-14.271 14.26-23.098 33.974-23.098 55.748.001 40.72 30.858 74.215 70.465 78.401z"/><path d="m447.954 238.655c-.155 0-.311-.005-.469-.014-28.023-1.677-49.975-24.993-49.975-53.084s21.952-51.408 49.975-53.084c4.3-.248 7.919 2.992 8.174 7.252.256 4.26-2.991 7.919-7.251 8.174-19.876 1.189-35.445 17.73-35.445 37.658s15.57 36.469 35.445 37.658c4.26.255 7.506 3.915 7.251 8.174-.245 4.103-3.649 7.266-7.705 7.266z"/><path d="m454.067 186.669c0 12.198 9.931 22.118 22.129 22.118v15.453c-20.727 0-37.581-16.854-37.581-37.571s16.854-37.571 37.581-37.571v15.453c-12.198-.001-22.129 9.92-22.129 22.118z"/></g><g><path d="m42.151 9.483v6.798c0 24.548 19.9 44.448 44.448 44.448v6.798c0 24.548 19.9 44.448 44.448 44.448v6.798c0 24.548 19.9 44.448 44.448 44.448h61.001v-61.121c0-51.152-41.467-92.618-92.618-92.618h-101.727z" fill="#ffc250"/><g fill="#e7a52e"><path d="m215.097 163.221h-39.603c-24.548 0-44.443-19.905-44.443-44.453v-6.797c-24.548 0-44.453-19.905-44.453-44.443v-6.806c-24.548 0-44.443-19.895-44.443-44.443v-6.797h39.603v6.797c0 24.548 19.895 44.443 44.443 44.443v6.806c0 24.538 19.905 44.443 44.444 44.443v6.797c-.001 24.548 19.904 44.453 44.452 44.453z"/><path d="m186.229 76.175h-83.667c-4.268 0-7.726-3.459-7.726-7.726s3.459-7.726 7.726-7.726h83.667c4.268 0 7.726 3.459 7.726 7.726s-3.458 7.726-7.726 7.726z"/><path d="m199.062 127.424h-54.989c-4.268 0-7.726-3.459-7.726-7.726s3.459-7.726 7.726-7.726h54.989c4.268 0 7.726 3.459 7.726 7.726s-3.459 7.726-7.726 7.726z"/></g></g></g></svg>