<svg id="Capa_1" enable-background="new 0 0 512 512" height="512" viewBox="0 0 512 512" width="512" xmlns="http://www.w3.org/2000/svg"><g><path d="m73.263 373.629c32.542 0 58.923 26.381 58.923 58.923v28.435l-57.944 51.011h-59.902v-79.446c0-32.542 26.381-58.923 58.923-58.923z" fill="#365e7d"/><path d="m95.189 377.839c-21.685 8.705-37.004 29.916-37.004 54.713v79.447h-43.845v-79.447c0-32.543 26.383-58.926 58.916-58.926h.01c7.747 0 15.144 1.493 21.923 4.213z" fill="#2b4d66"/><path d="m74.243 511.998h110.114l140.612-72.595h-179.079c-39.569 0-71.647 32.077-71.647 71.647z" fill="#9d6b6b"/><path d="m226.738 439.403c-39.569 0-71.649 32.08-71.649 71.649v.948h-80.848v-.948c0-39.569 32.08-71.649 71.649-71.649z" fill="#8b5e5e"/><g><path d="m446.002 511.998h-261.645c21.242-35.902 56.825-62.305 98.876-71.309v-55.351h63.881v55.351c42.053 9.004 77.646 35.407 98.888 71.309z" fill="#ffddce"/><g fill="#ffcbbe"><path d="m347.115 385.338v24.261c-7.242 1.473-14.742 2.246-22.417 2.246h-19.038c-7.685 0-15.185-.773-22.427-2.246v-24.261z"/><path d="m301.682 385.329v55.364c-17.77 8.993-32.803 35.405-41.776 71.306h-75.55c21.239-35.901 56.83-62.313 98.874-71.306v-55.364z"/></g></g><path d="m123.723 0c-17.001 0-31.442 13.909-31.273 30.909.089 8.959 4.032 16.992 10.245 22.533h-12.351c-16.673 0-30.767 13.072-31.224 29.739-.474 17.292 13.402 31.46 30.588 31.46h.13c-5.443 5.524-8.805 13.104-8.805 21.472 0 16.9 13.7 30.599 30.6 30.599h1.501c-5.443 5.524-8.805 13.104-8.805 21.472 0 16.9 13.7 30.6 30.599 30.6 19.839 0 35.921 16.083 35.921 35.921v31.223l288.651-53.861v-72.02c0-88.392-71.655-160.047-160.047-160.047z" fill="#9d6b6b"/><path d="m283.214 254.706v10.261l-112.361 20.964v-31.225c0-9.91-4.018-18.894-10.518-25.394s-15.483-10.518-25.404-10.518c-8.458 0-16.102-3.42-21.634-8.962-5.542-5.542-8.962-13.186-8.962-21.644 0-8.365 3.358-15.947 8.798-21.469h-1.494c-8.447 0-16.102-3.431-21.644-8.963-5.532-5.532-8.963-13.186-8.963-21.634 0-8.375 3.369-15.947 8.808-21.479h-.134c-17.183 0-31.06-14.165-30.586-31.462.453-16.657 14.556-29.731 31.224-29.731h12.352c-6.212-5.542-10.157-13.578-10.25-22.54-.165-16.998 14.278-30.905 31.276-30.905h112.372c-17.008 0-31.451 13.907-31.276 30.905.082 8.962 4.028 16.998 10.24 22.54h-12.352c-16.668 0-30.761 13.073-31.225 29.731-.474 17.297 13.403 31.462 30.596 31.462h.124c-5.439 5.532-8.798 13.104-8.798 21.479 0 8.448 3.42 16.102 8.962 21.634 5.532 5.532 13.176 8.963 21.634 8.963h1.504c-5.45 5.522-8.808 13.104-8.808 21.469 0 8.458 3.42 16.102 8.962 21.644s13.186 8.962 21.634 8.962c9.92 0 18.904 4.018 25.404 10.518 6.501 6.5 10.519 15.484 10.519 25.394z" fill="#8b5e5e"/><g fill="#ffcbbe"><circle cx="173.505" cy="272.88" r="40.809"/><circle cx="456.851" cy="272.88" r="40.809"/></g><path d="m199.1 283.875c-2.714 0-5.347-1.432-6.76-3.972-2.425-4.361-6.594-6.781-12.743-7.399-5.027-.502-9.387.486-9.43.496-4.145 1.017-8.328-1.518-9.345-5.662s1.518-8.328 5.662-9.345c.691-.17 6.975-1.635 14.657-.865 11.235 1.129 19.778 6.407 24.704 15.264 2.074 3.729.732 8.434-2.997 10.508-1.189.661-2.477.975-3.748.975z" fill="#eaac9d"/><path d="m431.255 283.875c-1.271 0-2.559-.314-3.749-.975-3.729-2.074-5.07-6.779-2.997-10.508 4.927-8.857 13.469-14.135 24.704-15.264 7.683-.769 13.967.695 14.657.865 4.145 1.017 6.68 5.201 5.663 9.345-1.015 4.134-5.179 6.664-9.314 5.67-.143-.033-4.659-1.054-9.83-.465-5.952.681-10 3.089-12.375 7.36-1.412 2.54-4.044 3.972-6.759 3.972z" fill="#eaac9d"/><path d="m436.411 164.262v111.888c0 52.137-35.727 95.94-84.032 108.261h-.01c-8.849 2.256-18.121 3.451-27.671 3.451h-19.038c-61.697 0-111.723-50.015-111.723-111.712v-111.899c6.676 5.63 14.325 10.142 22.659 13.247s17.353 46.907 26.769 46.907c8.746 0 17.142-1.463 24.982-4.162 21.582-7.428 38.807-24.209 46.832-45.513 10.94 29.03 38.961 49.675 71.814 49.675 8.495 0 16.664-43.484 24.299-46.032 9.291-3.1 17.79-7.931 25.119-14.111z" fill="#9d6b6b"/><path d="m352.369 384.411c-8.849 2.256-18.121 3.451-27.671 3.451h-19.038c-61.697 0-111.723-50.015-111.723-111.712v-111.899c6.676 5.63 14.325 10.142 22.659 13.247s17.353 33.108 26.769 33.108c8.746 0 17.142-1.463 24.982-4.162v69.705c.001 52.138 35.727 95.93 84.022 108.262z" fill="#8b5e5e"/><path d="m411.29 178.375v83.671c0 21.582-23.004 35.366-42.031 25.188l-1.998-1.071c-30.792-16.462-67.436-17.348-98.866-2.648-1.782.834-3.544 1.71-5.295 2.648l-2.009 1.071c-19.027 10.178-42.021-3.606-42.021-25.188v-83.681c7.634 2.555 15.803 3.935 24.302 3.935 8.757 0 17.173-1.473 25.023-4.172 21.562-7.438 38.765-24.219 46.791-45.503 10.94 29.03 38.961 49.675 71.814 49.675 8.487 0 16.656-1.37 24.29-3.925z" fill="#ffddce"/><path d="m268.394 178.128v105.387c-1.782.834-3.544 1.71-5.295 2.648l-2.009 1.071c-19.027 10.178-42.021-3.606-42.021-25.188v-83.681c7.634 2.555 15.803 3.935 24.302 3.935 8.757 0 17.173-1.473 25.023-4.172z" fill="#ffcbbe"/><g fill="#2b4d66"><path d="m257.596 231.913c-7.454 0-13.519 8.309-13.519 18.522s6.065 18.522 13.519 18.522 13.518-8.309 13.518-18.522-6.065-18.522-13.518-18.522z"/><path d="m372.76 231.913c-7.454 0-13.518 8.309-13.518 18.522s6.064 18.522 13.518 18.522c7.455 0 13.519-8.309 13.519-18.522s-6.065-18.522-13.519-18.522z"/></g><path d="m274.975 218.332c-1.978 0-3.955-.754-5.464-2.263-2.969-2.97-6.918-4.605-11.117-4.605-4.2 0-8.148 1.635-11.118 4.605-3.017 3.017-7.909 3.018-10.927 0-3.017-3.017-3.018-7.909 0-10.927 5.888-5.888 13.717-9.131 22.044-9.131s16.156 3.243 22.044 9.131c3.017 3.018 3.017 7.909-.001 10.927-1.506 1.509-3.484 2.263-5.461 2.263z" fill="#eaac9d"/><path d="m389.706 218.332c-1.978 0-3.955-.754-5.464-2.263-2.969-2.97-6.918-4.605-11.117-4.605s-8.148 1.635-11.117 4.605c-3.018 3.017-7.91 3.018-10.927 0-3.018-3.017-3.018-7.909-.001-10.927 5.888-5.888 13.717-9.131 22.044-9.131s16.156 3.243 22.044 9.131c3.017 3.018 3.017 7.909-.001 10.927-1.506 1.509-3.484 2.263-5.461 2.263z" fill="#eaac9d"/><path d="m315.177 323.6c-14.268 0-27.077-9.541-31.15-23.203-1.219-4.089 1.108-8.392 5.197-9.612 4.091-1.219 8.392 1.108 9.612 5.197 2.135 7.162 8.855 12.165 16.341 12.165 7.495 0 14.214-4.999 16.34-12.157 1.213-4.091 5.518-6.422 9.606-5.208 4.091 1.215 6.423 5.516 5.207 9.606-4.057 13.667-16.868 23.212-31.153 23.212z" fill="#8b5e5e"/></g></svg>