<svg id="Capa_1" enable-background="new 0 0 512 512" height="512" viewBox="0 0 512 512" width="512" xmlns="http://www.w3.org/2000/svg"><g><path d="m217.209 512h-43.794l-31.664-48.455v-98.473h136.265z" fill="#8b5e5e"/><path d="m36.013 363.078v20.583c0 46.307 11.732 79.88 58.038 79.88h47.702c34.872 0 63.13-28.258 63.13-63.13v-237.704h-52.333c-49.016 0-88.76 39.734-88.76 88.75v81.807l-27.776 20.565c-14.279-.001-.001-5.03-.001 9.249z" fill="#9d6b6b"/><path d="m189.543 162.707c-49.016 0-88.76 39.734-88.76 88.75v47.078c0 19.18-15.548 34.728-34.728 34.728h-2.265v-81.807c0-49.015 39.735-88.75 88.75-88.75h37.003z" fill="#8b5e5e"/><path d="m14.431 359.121-11.231 6.109v14.474c0 46.307 37.529 83.836 83.836 83.836h7.015v-100.02c0-16.71-13.557-30.257-30.267-30.257h-18.806l-10.678 9.603c-14.278 0-19.869 1.977-19.869 16.255z" fill="#ede6e3"/><path d="m94.056 456.319v7.222h-7.016c-46.307 0-83.836-37.529-83.836-83.836v-14.475l11.227-6.109c0-14.278 5.591-16.255 19.869-16.255l10.678-9.602h18.811c1.123 0 2.235.062 3.327.185-12.846 1.494-22.808 12.424-22.808 25.672v20.583c0 34.171 20.439 63.562 49.748 76.615z" fill="#d8cec9"/><path d="m3.204 359.121v6.109h20.501c11.744 0 21.273-9.519 21.273-21.273v-10.693h-15.927c-14.278 0-25.847 11.579-25.847 25.857z" fill="#2b4d66"/><path d="m141.773 213.029-60.697-59.616c-9.33-9.163-4.594-25.031 8.232-27.583l52.464-10.436z" fill="#365e7d"/><path d="m294.791 512h43.794l31.664-48.455v-98.473h-136.265z" fill="#8b5e5e"/><path d="m417.948 463.54h-47.702c-34.872 0-63.13-28.258-63.13-63.13v-237.703h52.333c49.016 0 88.76 39.734 88.76 88.75v81.807c.002 0 16.046 130.276-30.261 130.276z" fill="#9d6b6b"/><path d="m423.641 459.966c.124.041.258.082.381.113l-6.078 3.461h-47.697c-34.871 0-63.129-28.258-63.129-63.13v-237.703h52.333c15.391 0 29.875 3.915 42.495 10.817-12.444 9.56-20.47 24.601-20.47 41.516v185.371c0 27.506 17.606 50.911 42.165 59.555z" fill="#8b5e5e"/><g fill="#2b4d66"><ellipse cx="98.653" cy="285.561" rx="16.015" ry="21.951"/><ellipse cx="413.347" cy="285.561" rx="16.015" ry="21.951"/></g><path d="m217.209 379.246h77.582v132.754h-77.582z" fill="#9d6b6b"/><path d="m217.209 379.246h31.645v132.754h-31.645z" fill="#8b5e5e"/><path d="m141.771 180.076v-155.062c0-21.1 24.618-32.725 40.831-19.223 19.424 16.176 38.469 44.826 38.469 94.984" fill="#365e7d"/><path d="m179.488 3.566c-7.104 4.191-12.215 11.83-12.215 21.448v129.569l-25.502 25.502v-155.071c0-19.786 21.655-31.231 37.717-21.448z" fill="#2b4d66"/><path d="m370.229 180.076v-155.062c0-21.1-24.618-32.725-40.831-19.223-19.424 16.176-38.469 44.826-38.469 94.984" fill="#365e7d"/><path d="m359.685 4.622c-.509.371-1.003.756-1.498 1.168-19.428 16.186-38.472 44.834-38.472 94.985v28.786l-28.786-28.786c0-50.151 19.044-78.799 38.472-94.985 9.412-7.831 21.669-7.199 30.284-1.168z" fill="#2b4d66"/><path d="m290.929 431.583h-69.858c-43.796 0-79.3-35.504-79.3-79.3v-172.207c0-43.796 35.504-79.3 79.3-79.3h69.858c43.796 0 79.3 35.504 79.3 79.3v172.207c0 43.796-35.504 79.3-79.3 79.3z" fill="#9d6b6b"/><path d="m292.981 431.548c-.687.014-1.36.028-2.047.028h-69.855c-43.803 0-79.308-35.505-79.308-79.294v-172.206c0-43.803 35.505-79.308 79.308-79.308h69.855c.687 0 1.36.014 2.047.028-42.828 1.127-77.192 36.178-77.192 79.281v172.205c0 43.088 34.364 78.139 77.192 79.266z" fill="#8b5e5e"/><path d="m256 292.516h-39.075c-21.267 0-38.507 17.24-38.507 38.507v80.56c0 21.424 17.367 38.791 38.791 38.791 21.424 0 38.791-17.367 38.791-38.791 0 21.424 17.367 38.791 38.791 38.791 21.424 0 38.791-17.367 38.791-38.791v-80.56c0-21.267-17.24-38.507-38.507-38.507z" fill="#ede6e3"/><path d="m235.028 446.03c-5.331 2.776-11.39 4.342-17.821 4.342-21.421 0-38.789-17.354-38.789-38.788v-80.558c0-21.27 17.244-38.5 38.514-38.5h35.642c-21.27 0-38.513 17.23-38.513 38.5v80.558c-.001 15.004 8.505 28.002 20.967 34.446z" fill="#d8cec9"/><path d="m275.088 277.739h-38.175c-10.882 0-19.703 8.821-19.703 19.703 0 10.882 8.821 19.703 19.703 19.703h6.157v11.699c0 7.141 5.789 12.93 12.93 12.93 7.141 0 12.93-5.789 12.93-12.93v-11.699h6.157c10.882 0 19.703-8.821 19.703-19.703.001-10.882-8.821-19.703-19.702-19.703z" fill="#2b4d66"/><g fill="#ede6e3"><path d="m218.995 200.344c-.528 0-1.063-.054-1.6-.167l-23.151-4.874c-4.176-.879-6.848-4.977-5.969-9.152.878-4.177 4.984-6.847 9.152-5.969l23.151 4.874c4.176.879 6.848 4.977 5.969 9.152-.765 3.638-3.977 6.136-7.552 6.136z"/><path d="m293.005 200.344c-3.576 0-6.787-2.497-7.552-6.136-.879-4.176 1.793-8.273 5.969-9.152l23.151-4.874c4.172-.877 8.274 1.793 9.152 5.969.879 4.176-1.793 8.273-5.969 9.152l-23.151 4.874c-.537.112-1.073.167-1.6.167z"/></g><g fill="#2b4d66"><path d="m218.972 219.075c-9.131 0-16.558 10.182-16.558 22.698s7.428 22.698 16.558 22.698 16.559-10.182 16.559-22.698-7.428-22.698-16.559-22.698z"/><path d="m293.028 219.075c-9.131 0-16.559 10.182-16.559 22.698s7.429 22.698 16.559 22.698 16.558-10.182 16.558-22.698-7.427-22.698-16.558-22.698z"/></g><path d="m370.227 213.029 60.697-59.616c9.33-9.163 4.594-25.031-8.232-27.583l-52.464-10.436z" fill="#365e7d"/><g><path d="m86.533 278.124c-1.807 0-3.174-.138-3.941-.24-4.229-.565-7.199-4.453-6.634-8.682.565-4.23 4.449-7.202 8.682-6.634 2.374.318 14.656 1.144 23.493-13.744 2.178-3.669 6.916-4.878 10.588-2.701 3.669 2.178 4.878 6.919 2.7 10.588-11.196 18.864-27.112 21.413-34.888 21.413z" fill="#ede6e3"/></g><g><path d="m425.491 278.122c-7.74 0-23.706-2.528-34.912-21.411-2.178-3.67-.969-8.409 2.7-10.588 3.669-2.177 8.41-.969 10.588 2.701 8.819 14.858 21.103 14.058 23.477 13.745 4.226-.559 8.111 2.424 8.667 6.654.555 4.231-2.425 8.111-6.655 8.667-.756.1-2.096.232-3.865.232z" fill="#ede6e3"/></g><path d="m499.178 359.121 9.622 6.109v14.474c0 46.307-37.529 83.836-83.836 83.836h-7.015v-100.02c0-16.71 13.557-30.257 30.267-30.257h18.807l11.02 4.91c14.278.001 21.135 6.67 21.135 20.948z" fill="#ede6e3"/><path d="m508.796 359.121v6.109h-20.501c-11.744 0-21.273-9.519-21.273-21.273v-10.693h15.927c14.278 0 25.847 11.579 25.847 25.857z" fill="#365e7d"/></g></svg>