<svg id="Capa_1" enable-background="new 0 0 512 512" height="512" viewBox="0 0 512 512" width="512" xmlns="http://www.w3.org/2000/svg"><g><path d="m29.16 256.389h55.334v103.469h-55.334z" fill="#e7a52e"/><path d="m54.054 502.149c-4.267 0-7.726-3.459-7.726-7.726v-232.74c0-4.267 3.459-7.726 7.726-7.726s7.726 3.459 7.726 7.726v232.74c0 4.267-3.459 7.726-7.726 7.726z" fill="#e7a52e"/><path d="m54.055 281.307h-15.922c-16.181 0-29.298-13.117-29.298-29.298v-29.625h15.922c16.181 0 29.298 13.117 29.298 29.298z" fill="#ffc250"/><path d="m54.06 280.98v.33h-15.927c-16.184 0-29.298-13.114-29.298-29.298v-29.628h15.927c1.494 0 2.967.113 4.399.33v29.298c-.001 14.69 10.806 26.846 24.899 28.968z" fill="#e7a52e"/><path d="m54.055 335.23h-15.922c-16.181 0-29.298-13.117-29.298-29.298v-29.625h15.922c16.181 0 29.298 13.117 29.298 29.298z" fill="#ffc250"/><path d="m54.06 334.904v.33h-15.927c-16.184 0-29.298-13.114-29.298-29.298v-29.628h15.927c1.494 0 2.967.113 4.399.33v29.298c-.001 14.689 10.806 26.845 24.899 28.968z" fill="#e7a52e"/><path d="m54.055 389.153h-15.922c-16.181 0-29.298-13.117-29.298-29.298v-29.625h15.922c16.181 0 29.298 13.117 29.298 29.298z" fill="#ffc250"/><path d="m54.06 388.827v.33h-15.927c-16.184 0-29.298-13.114-29.298-29.298v-29.629h15.927c1.494 0 2.967.113 4.399.33v29.298c-.001 14.69 10.806 26.846 24.899 28.969z" fill="#e7a52e"/><path d="m54.055 281.307h15.922c16.181 0 29.298-13.117 29.298-29.298v-29.625h-15.922c-16.181 0-29.298 13.117-29.298 29.298z" fill="#ffc250"/><path d="m99.27 222.384v.123c-14.969 1.288-26.723 13.856-26.723 29.175v29.494c-.845.082-1.71.124-2.575.124h-15.917v-29.618c0-16.184 13.114-29.298 29.298-29.298z" fill="#e7a52e"/><path d="m54.055 335.23h15.922c16.181 0 29.298-13.117 29.298-29.298v-29.625h-15.922c-16.181 0-29.298 13.117-29.298 29.298z" fill="#ffc250"/><path d="m99.27 276.307v.124c-14.969 1.288-26.723 13.856-26.723 29.175v29.494c-.845.082-1.71.124-2.575.124h-15.917v-29.618c0-16.184 13.114-29.298 29.298-29.298h15.917z" fill="#e7a52e"/><path d="m54.055 389.153h15.922c16.181 0 29.298-13.117 29.298-29.298v-29.625h-15.922c-16.181 0-29.298 13.117-29.298 29.298z" fill="#ffc250"/><path d="m99.27 330.23v.123c-14.969 1.288-26.723 13.856-26.723 29.175v29.494c-.845.082-1.71.124-2.575.124h-15.917v-29.618c0-16.184 13.114-29.298 29.298-29.298z" fill="#e7a52e"/><g><path d="m430.972 395.641h-.268c8.211 7.118 13.403 17.616 13.403 29.34 0 21.448-17.4 38.848-38.848 38.848-5.367 0-10.477-1.092-15.133-3.049h-139.725c-4.646 1.957-9.766 3.049-15.123 3.049-21.459 0-38.858-17.4-38.858-38.848 0-11.724 5.202-22.221 13.403-29.34h-.268c-39.734 0-71.938-32.203-71.938-71.938 0-31.73 20.542-58.658 49.047-68.219-27.588-10.065-47.285-36.53-47.285-67.6 0-39.734 32.214-71.938 71.948-71.938h217.883c39.724 0 71.938 32.203 71.938 71.938 0 31.081-19.707 57.546-47.296 67.6 28.515 9.55 49.068 36.479 49.068 68.219-.001 39.735-32.214 71.938-71.948 71.938z" fill="#9d6b6b"/></g><g><path d="m340.625 460.779h-90.223c-4.646 1.957-9.766 3.049-15.123 3.049-21.458 0-38.858-17.4-38.858-38.848 0-11.724 5.202-22.221 13.403-29.34h-.268c-39.734 0-71.938-32.203-71.938-71.938 0-31.73 20.542-58.658 49.047-68.219-27.588-10.065-47.285-36.53-47.285-67.6 0-39.734 32.214-71.938 71.948-71.938h120.469c-39.734 0-71.948 32.203-71.948 71.938 0 31.07 19.697 57.536 47.285 67.6-28.505 9.56-49.047 36.489-49.047 68.219 0 39.734 32.203 71.938 71.938 71.938h.268c-8.2 7.118-13.403 17.616-13.403 29.34-.001 16.082 9.786 29.896 23.735 35.799z" fill="#8b5e5e"/></g><path d="m426.336 502.646-180.879-12.333c17.823-30.127-9.644-31.865 23.749-43.892 6.312-2.273 12.817-4.139 19.486-5.566v-55.233h63.741v55.233c24.423 5.226 46.661 16.338 65.163 31.779 13.28 11.085-.115 15.044 8.74 30.012z" fill="#ffddce"/><path d="m352.439 384.296v24.176c-7.221 1.463-14.701 2.235-22.355 2.235h-19.038c-7.654 0-15.133-.773-22.355-2.235v-24.005z" fill="#ffcbbe"/><path d="m308.272 385.618v55.238c-10.732 5.946-20.369 19.525-28.027 38.434-3.897 9.624-7.282.629-10.038 12.711l-44.669 11.143c17.821-30.124 10.271-44.696 43.667-56.722 6.314-2.274 12.822-4.14 19.493-5.566v-55.238z" fill="#ffcbbe"/><path d="m451.085 512h-261.046c17.822-30.122 45.771-53.548 79.169-65.571 0 0 47.48 67.806 148.376 26.218l.01-.01c13.279 11.085 24.632 24.405 33.491 39.363z" fill="#b3e59f"/><path d="m269.208 446.429c-33.398 12.022-61.347 35.448-79.169 65.571h80.168c4.336-19.015 10.232-35.361 17.232-47.856-12.238-9.165-18.231-17.715-18.231-17.715z" fill="#95d6a4"/><path d="m442.184 80.963c4.264-36.685-46.669-80.963-121.92-80.963-75.25 0-126.184 44.278-121.92 80.963" fill="#9d6b6b"/><path d="m283.118 80.963h-84.774c-4.254-36.685 46.678-80.962 121.922-80.962-22.921 0-38.446 44.277-37.148 80.962z" fill="#8b5e5e"/><g fill="#ffcbbe"><circle cx="178.272" cy="272.337" r="40.902"/><circle cx="462.263" cy="272.337" r="40.902"/></g><path d="m198.763 283.34c-2.714 0-5.347-1.432-6.76-3.972-2.434-4.376-6.616-6.805-12.786-7.425-5.041-.505-9.415.488-9.457.498-4.146 1.017-8.328-1.518-9.345-5.662s1.518-8.328 5.662-9.345c.693-.171 6.991-1.638 14.685-.866 11.255 1.131 19.812 6.418 24.747 15.289 2.074 3.729.732 8.434-2.997 10.508-1.19.66-2.479.975-3.749.975z" fill="#eaac9d"/><path d="m441.773 283.34c-1.271 0-2.559-.314-3.748-.975-3.729-2.074-5.071-6.779-2.997-10.508 4.935-8.872 13.491-14.158 24.746-15.289 7.695-.773 13.992.696 14.685.866 4.144 1.017 6.679 5.201 5.662 9.345-1.014 4.134-5.176 6.667-9.313 5.67-.145-.034-4.678-1.059-9.857-.466-5.972.683-10.034 3.099-12.418 7.385-1.413 2.539-4.046 3.972-6.76 3.972z" fill="#eaac9d"/><path d="m441.777 179.062v96.551c0 61.838-50.129 111.967-111.967 111.967h-19.081c-61.838 0-111.977-50.129-111.977-111.967v-96.551c7.537 1.631 15.364 2.488 23.387 2.488 42.664 0 79.68-24.151 98.131-59.525 18.451 35.374 55.467 59.525 98.121 59.525 8.022.001 15.849-.857 23.386-2.488z" fill="#ffddce"/><path d="m353.841 384.987c-7.734 1.704-15.777 2.592-24.027 2.592h-19.081c-61.838 0-111.977-50.129-111.977-111.967v-96.552c7.537 1.631 15.364 2.488 23.387 2.488 15.539 0 30.336-3.211 43.748-8.993v103.056c-.001 53.589 37.655 98.39 87.95 109.376z" fill="#ffcbbe"/><g fill="#2b4d66"><path d="m262.554 236.44c-2.936 0-5.649 1.3-7.871 3.482l-5.119-3.641c-3.477-2.474-8.301-1.66-10.775 1.817s-1.66 8.301 1.817 10.775l8.404 5.978c0 .051-.006.101-.006.153 0 10.236 6.078 18.563 13.549 18.563s13.549-8.327 13.549-18.563c.002-10.237-6.076-18.564-13.548-18.564z"/><path d="m401.745 238.098c-2.474-3.477-7.298-4.291-10.775-1.817l-5.118 3.641c-2.221-2.183-4.934-3.482-7.87-3.482-7.471 0-13.549 8.327-13.549 18.563s6.078 18.563 13.549 18.563 13.549-8.327 13.549-18.563c0-.052-.005-.101-.006-.153l8.403-5.978c3.477-2.473 4.291-7.297 1.817-10.774z"/></g><path d="m246.736 217.647c-1.977 0-3.955-.754-5.463-2.263-3.018-3.018-3.017-7.909 0-10.927 12.177-12.176 31.989-12.175 44.164 0 3.018 3.017 3.018 7.909 0 10.927-3.017 3.017-7.909 3.017-10.927 0-6.149-6.15-16.158-6.15-22.311 0-1.508 1.509-3.486 2.263-5.463 2.263z" fill="#eaac9d"/><path d="m394.966 217.647c-1.977 0-3.955-.755-5.463-2.263-6.151-6.151-16.159-6.15-22.31 0-3.017 3.017-7.909 3.017-10.927 0s-3.018-7.909 0-10.927c12.176-12.176 31.987-12.177 44.163 0 3.018 3.017 3.018 7.909 0 10.927-1.508 1.509-3.485 2.263-5.463 2.263z" fill="#eaac9d"/><path d="m320.268 314.508c-14.292 0-27.124-9.558-31.205-23.243-1.219-4.09 1.108-8.393 5.197-9.612 4.088-1.219 8.392 1.108 9.612 5.197 2.143 7.187 8.885 12.206 16.396 12.206 7.52 0 14.261-5.016 16.393-12.198 1.215-4.091 5.516-6.422 9.606-5.208 4.091 1.215 6.422 5.516 5.208 9.606-4.066 13.69-16.898 23.252-31.207 23.252z" fill="#e04b66"/><path d="m442.184 80.963c-80.443-16.483-163.397-16.483-243.84 0-11.587 2.374-19.871 12.633-19.871 24.461 0 15.614 14.171 27.448 29.515 24.562 74.198-13.956 150.353-13.956 224.552 0 15.344 2.886 29.515-8.948 29.515-24.562 0-11.828-8.283-22.087-19.871-24.461z" fill="#b3e59f"/><path d="m265.39 122.01c-19.213 1.731-38.374 4.389-57.402 7.974-1.566.299-3.111.433-4.636.433-13.444 0-24.879-10.971-24.879-24.992 0-11.837 8.283-22.087 19.872-24.467 21.86-4.481 43.906-7.737 66.045-9.776-7.191 6.037-11.641 15.102-11.641 25.013 0 10.609 5.007 19.881 12.641 25.815z" fill="#95d6a4"/><g fill="#e04b66"><circle cx="394.781" cy="292.989" r="15.416"/><circle cx="245.747" cy="292.989" r="15.416"/></g><g><path d="m307.222 48.285h28.686v82.498h-28.686z" fill="#e7a52e"/><path d="m320.264 63.608h-10.614c-10.787 0-19.532-8.745-19.532-19.532v-19.75h10.615c10.787 0 19.532 8.745 19.532 19.532v19.75z" fill="#ffc250"/><path d="m320.267 63.39v.22h-10.617c-10.79 0-19.532-8.743-19.532-19.532v-19.753h10.618c.996 0 1.978.076 2.933.22v19.532c-.001 9.794 7.203 17.898 16.598 19.313z" fill="#e7a52e"/><path d="m320.264 101.345h-10.614c-10.787 0-19.532-8.745-19.532-19.532v-19.75h10.615c10.787 0 19.532 8.745 19.532 19.532v19.75z" fill="#ffc250"/><path d="m320.267 101.128v.22h-10.617c-10.79 0-19.532-8.743-19.532-19.532v-19.753h10.618c.996 0 1.978.076 2.933.22v19.532c-.001 9.793 7.203 17.898 16.598 19.313z" fill="#e7a52e"/><path d="m320.264 139.082h-10.614c-10.787 0-19.532-8.745-19.532-19.532v-19.75h10.615c10.787 0 19.532 8.745 19.532 19.532v19.75z" fill="#ffc250"/><path d="m320.267 138.865v.22h-10.617c-10.79 0-19.532-8.743-19.532-19.532v-19.753h10.618c.996 0 1.978.076 2.933.22v19.532c-.001 9.794 7.203 17.898 16.598 19.313z" fill="#e7a52e"/><path d="m320.264 63.608h10.615c10.787 0 19.532-8.745 19.532-19.532v-19.75h-10.615c-10.787 0-19.532 8.745-19.532 19.532z" fill="#ffc250"/><path d="m350.408 24.326v.082c-9.979.858-17.815 9.237-17.815 19.45v19.663c-.563.055-1.14.082-1.717.082h-10.611v-19.745c0-10.789 8.743-19.532 19.532-19.532z" fill="#e7a52e"/><path d="m320.264 101.345h10.615c10.787 0 19.532-8.745 19.532-19.532v-19.75h-10.615c-10.787 0-19.532 8.745-19.532 19.532z" fill="#ffc250"/><path d="m350.408 62.063v.082c-9.979.858-17.815 9.237-17.815 19.45v19.663c-.563.055-1.14.082-1.717.082h-10.611v-19.745c0-10.789 8.743-19.532 19.532-19.532z" fill="#e7a52e"/><path d="m320.264 139.082h10.615c10.787 0 19.532-8.745 19.532-19.532v-19.75h-10.615c-10.787 0-19.532 8.745-19.532 19.532z" fill="#ffc250"/><path d="m350.408 99.8v.082c-9.979.858-17.815 9.237-17.815 19.45v19.663c-.563.055-1.14.082-1.717.082h-10.611v-19.745c0-10.789 8.743-19.532 19.532-19.532z" fill="#e7a52e"/></g><path d="m57.786 446.843h-5.26c-12.759 0-23.102 10.343-23.102 23.102v18.953c0 12.759 10.343 23.102 23.102 23.102h5.26c12.759 0 23.102-10.343 23.102-23.102v-18.953c0-12.759-10.343-23.102-23.102-23.102z" fill="#ffddce"/><path d="m65.944 510.511c-2.534.958-5.285 1.483-8.159 1.483h-5.265c-12.754 0-23.097-10.343-23.097-23.097v-18.955c0-12.754 10.343-23.097 23.097-23.097h5.264c2.874 0 5.625.525 8.159 1.483-8.726 3.297-14.938 11.734-14.938 21.613v18.955c.001 9.881 6.213 18.319 14.939 21.615z" fill="#ffcbbe"/></g></svg>