<svg id="Capa_1" enable-background="new 0 0 512 512" height="512" viewBox="0 0 512 512" width="512" xmlns="http://www.w3.org/2000/svg"><g><path d="m107.176 507.408c-4.267 0-7.726-3.459-7.726-7.726v-81.347c0-4.267 3.459-7.726 7.726-7.726s7.726 3.459 7.726 7.726v81.347c0 4.267-3.459 7.726-7.726 7.726z" fill="#e7a52e"/><path d="m130.3 512h-46.248c-4.267 0-7.726-3.459-7.726-7.726s3.459-7.726 7.726-7.726h46.248c4.267 0 7.726 3.459 7.726 7.726s-3.459 7.726-7.726 7.726z" fill="#ffc250"/><path d="m104.604 512h-20.552c-4.265 0-7.726-3.462-7.726-7.726 0-4.265 3.461-7.726 7.726-7.726h20.552c-4.265 0-7.726 3.461-7.726 7.726 0 4.264 3.461 7.726 7.726 7.726z" fill="#e7a52e"/><path d="m107.176 473.132c-23.461 0-42.48-19.019-42.48-42.48v-42.48h84.959v42.48c0 23.461-19.018 42.48-42.479 42.48z" fill="#ffc250"/><path d="m122.082 470.443c-4.636 1.741-9.663 2.689-14.907 2.689-23.457 0-42.474-19.017-42.474-42.474v-42.485h29.803v42.485c.001 18.213 11.466 33.748 27.578 39.785z" fill="#e7a52e"/><g><g><circle cx="88.225" cy="127.685" fill="#698ed5" r="17.985"/><path d="m95.932 143.941c-2.339 1.113-4.945 1.731-7.706 1.731-9.931 0-17.987-8.046-17.987-17.987 0-9.931 8.056-17.977 17.987-17.977 2.761 0 5.367.618 7.706 1.731-6.078 2.874-10.281 9.066-10.281 16.246s4.203 13.382 10.281 16.256z" fill="#4073c8"/></g></g><g><g><circle cx="114.591" cy="126.771" fill="#698ed5" r="17.985"/><path d="m122.298 143.028c-2.339 1.113-4.945 1.731-7.706 1.731-9.931 0-17.987-8.046-17.987-17.987 0-9.931 8.056-17.977 17.987-17.977 2.761 0 5.367.618 7.706 1.731-6.078 2.874-10.281 9.066-10.281 16.246s4.203 13.381 10.281 16.256z" fill="#4073c8"/></g></g><g><circle cx="104.985" cy="99.72" fill="#698ed5" r="17.985"/><path d="m112.692 115.976c-2.339 1.113-4.945 1.731-7.706 1.731-9.931 0-17.987-8.046-17.987-17.987 0-9.931 8.056-17.977 17.987-17.977 2.761 0 5.367.618 7.706 1.731-6.078 2.874-10.281 9.066-10.281 16.246 0 7.181 4.203 13.382 10.281 16.256z" fill="#4073c8"/></g><g><g><path d="m451.089 7.308-1.581-7.308-7.308 1.581c-24.257 5.249-39.666 29.168-34.417 53.425l1.581 7.308 7.308-1.581c24.257-5.249 39.666-29.168 34.417-53.425z" fill="#95d6a4"/><path d="m470.097 95.149 1.581 7.308-7.308 1.581c-24.257 5.249-48.176-10.16-53.425-34.417l-1.581-7.308 7.308-1.581c24.257-5.248 48.176 10.161 53.425 34.417z" fill="#b3e59f"/></g></g><path d="m404.876 281.371c27.529 0 49.845-22.316 49.845-49.845 0-9.006-2.401-17.447-6.579-24.739 11.894-9.11 19.57-23.449 19.57-39.588 0-23.612-16.424-43.375-38.467-48.525 4.83-7.678 7.635-16.759 7.635-26.5 0-27.529-22.316-49.845-49.845-49.845-5.169 0-10.154.787-14.843 2.248-2.631-25.051-23.817-44.577-49.566-44.577-21.575 0-39.944 13.709-46.882 32.889-6.939-19.18-25.308-32.889-46.882-32.889-25.749 0-46.935 19.526-49.566 44.578-4.688-1.461-9.674-2.248-14.843-2.248-27.529 0-49.845 22.316-49.845 49.845 0 9.741 2.805 18.822 7.635 26.5-22.043 5.149-38.467 24.913-38.467 48.525 0 16.139 7.677 30.478 19.57 39.588-4.178 7.292-6.579 15.732-6.579 24.739 0 27.529 22.316 49.845 49.845 49.845" fill="#e04b66"/><path d="m272.876 26.446c-2.936 5.511-4.873 11.631-5.553 18.131-4.687-1.463-9.674-2.246-14.845-2.246-27.527 0-49.85 22.314-49.85 49.85 0 9.735 2.812 18.821 7.644 26.496-22.046 5.151-38.467 24.91-38.467 48.522 0 16.143 7.675 30.483 19.563 39.59-4.172 7.294-6.573 15.731-6.573 24.735 0 27.537 22.314 49.85 49.84 49.85h-88.019c-27.527 0-49.84-22.314-49.84-49.85 0-9.004 2.4-17.441 6.573-24.735-11.888-9.107-19.573-23.447-19.573-39.59 0-23.612 16.431-43.371 38.467-48.522-4.821-7.675-7.634-16.761-7.634-26.496 0-27.537 22.324-49.85 49.85-49.85 5.172 0 10.147.783 14.845 2.246 2.627-25.054 23.818-44.576 49.562-44.576 19.069.001 35.634 10.714 44.01 26.445z" fill="#de1d49"/><path d="m406.937 512h-66.756l-43.391-12.795-94.519 12.795h-57.721c21.181-35.799 56.578-62.182 98.444-71.35.237-.052.484-.103.721-.155v-55.516h64.067v55.516c.247.052.494.103.731.165 7.85 1.72 15.463 4.038 22.808 6.923 3.874 1.514-2.617 13.485 1.092 15.298 3.317 1.628 16.864-6.913 20.047-5.058 22.449 13.114 41.239 31.801 54.477 54.177z" fill="#ffddce"/><path d="m307.782 384.979v26.321c-7.273 1.483-14.804 2.266-22.52 2.266h-19.027c-7.716 0-15.247-.783-22.52-2.266v-26.321z" fill="#ffcbbe"/><path d="m355.244 459.481v.01l-15.061 52.509h-137.91l129.185-64.366c8.313 3.266 16.265 7.242 23.786 11.847z" fill="#ede6e3"/><path d="m257.811 384.979v55.516c-23.622 9.024-43.608 35.5-55.537 71.505h-57.721c21.304-36.005 56.99-62.48 99.165-71.505v-55.516z" fill="#ffcbbe"/><g fill="#ffcbbe"><circle cx="134.086" cy="272.901" r="40.806"/><circle cx="417.408" cy="272.901" r="40.806"/></g><path d="m159.679 283.897c-2.714 0-5.347-1.432-6.76-3.973-2.375-4.27-6.422-6.677-12.373-7.358-5.224-.598-9.787.454-9.832.465-4.14.975-8.306-1.576-9.3-5.711-.993-4.135 1.522-8.291 5.652-9.305.692-.169 6.978-1.636 14.656-.864 11.235 1.129 19.777 6.406 24.703 15.263 2.074 3.729.732 8.434-2.997 10.508-1.189.66-2.478.974-3.749.975z" fill="#eaac9d"/><path d="m391.815 283.897c-1.271 0-2.559-.314-3.748-.976-3.729-2.074-5.071-6.778-2.997-10.508 4.926-8.857 13.468-14.134 24.703-15.263 7.678-.772 13.964.694 14.656.864 4.144 1.017 6.679 5.201 5.662 9.345-1.015 4.134-5.182 6.666-9.315 5.67-.178-.041-4.683-1.053-9.827-.464-5.951.681-9.999 3.088-12.373 7.358-1.414 2.541-4.047 3.973-6.761 3.974z" fill="#eaac9d"/><path d="m396.97 194.175v81.995c0 61.692-50.011 111.703-111.703 111.703h-19.036c-61.692 0-111.714-50.011-111.714-111.703v-81.995c0-.33 0-.67.011-.999.299-38.041 41.471-61.404 74.754-42.955 13.762 7.623 29.605 11.97 46.468 11.97 37.722 0 70.376-21.756 86.044-53.41 21.744 21.899 35.176 52.071 35.176 85.394z" fill="#ffddce"/><path d="m312.064 384.627c-8.581 2.122-17.553 3.245-26.793 3.245h-19.036c-61.692 0-111.713-50.011-111.713-111.703v-81.995c0-.33 0-.67.01-.999.299-38.041 41.472-61.404 74.754-42.955 4.553 2.524 9.333 4.687 14.308 6.448-9.847 8.776-16.327 21.498-16.44 36.506-.01.33-.01.67-.01.999v81.995c-.001 52.453 36.165 96.469 84.92 108.459z" fill="#ffcbbe"/><g fill="#2b4d66"><ellipse cx="223.32" cy="245.307" rx="13.518" ry="18.52"/><ellipse cx="328.174" cy="245.307" rx="13.518" ry="18.52"/></g><path d="m345.414 212.685c-17.189 0-31.173-13.984-31.173-31.173 0-4.267 3.459-7.726 7.726-7.726s7.726 3.459 7.726 7.726c0 8.668 7.052 15.721 15.72 15.721 4.267 0 7.726 3.459 7.726 7.726s-3.458 7.726-7.725 7.726z" fill="#eaac9d"/><path d="m207.245 212.685c-4.267 0-7.726-3.459-7.726-7.726s3.459-7.726 7.726-7.726c8.668 0 15.72-7.052 15.72-15.721 0-4.267 3.459-7.726 7.726-7.726s7.726 3.459 7.726 7.726c.001 17.189-13.983 31.173-31.172 31.173z" fill="#eaac9d"/><path d="m275.744 303.572c-14.323 0-27.183-9.578-31.272-23.293-1.219-4.089 1.108-8.393 5.197-9.612 4.09-1.22 8.392 1.107 9.612 5.196 2.151 7.216 8.922 12.256 16.463 12.256 7.55 0 14.319-5.036 16.46-12.247 1.215-4.091 5.514-6.421 9.606-5.207 4.091 1.215 6.422 5.515 5.208 9.606-4.074 13.719-16.934 23.301-31.274 23.301z" fill="#eaa598"/><g><g><path d="m126.49 72.864-6.286-4.049-4.049 6.286c-13.441 20.864-7.423 48.673 13.441 62.113l6.286 4.049 4.049-6.286c13.44-20.863 7.422-48.672-13.441-62.113z" fill="#95d6a4"/><path d="m164.184 14.352-6.286-4.049-4.049 6.286c-13.441 20.864-7.423 48.673 13.441 62.113l6.286 4.049 4.049-6.286c13.44-20.864 7.423-48.673-13.441-62.113z" fill="#95d6a4"/><g fill="#b3e59f"><path d="m202.044 121.537 6.286 4.049-4.049 6.286c-13.441 20.864-41.25 26.881-62.113 13.441l-6.286-4.049 4.049-6.286c13.44-20.864 41.249-26.882 62.113-13.441z"/><path d="m239.738 63.025 6.286 4.049-4.049 6.286c-13.441 20.864-41.25 26.881-62.113 13.441l-6.286-4.049 4.049-6.286c13.44-20.865 41.249-26.882 62.113-13.441z"/><path d="m115.837 180.094c-1.434 0-2.883-.398-4.177-1.232-3.588-2.311-4.622-7.092-2.311-10.68l61.781-95.901c2.312-3.588 7.094-4.621 10.68-2.311 3.588 2.311 4.622 7.092 2.311 10.68l-61.781 95.901c-1.478 2.292-3.965 3.543-6.503 3.543z"/></g></g></g><g><g><circle cx="363.019" cy="59.673" fill="#698ed5" r="20.124"/><path d="m371.643 77.862c-2.617 1.245-5.533 1.936-8.622 1.936-11.112 0-20.126-9.002-20.126-20.126 0-11.112 9.014-20.114 20.126-20.114 3.089 0 6.005.692 8.622 1.936-6.801 3.216-11.504 10.144-11.504 18.178 0 8.035 4.703 14.974 11.504 18.19z" fill="#4073c8"/></g><g><circle cx="394.406" cy="61.014" fill="#698ed5" r="20.124"/><path d="m403.03 79.204c-2.617 1.245-5.533 1.936-8.622 1.936-11.112 0-20.126-9.002-20.126-20.126 0-11.112 9.014-20.114 20.126-20.114 3.089 0 6.005.692 8.622 1.936-6.801 3.216-11.504 10.144-11.504 18.178 0 8.035 4.703 14.974 11.504 18.19z" fill="#4073c8"/></g><g><circle cx="382.225" cy="29.391" fill="#698ed5" r="20.124"/><path d="m390.849 47.58c-2.617 1.245-5.533 1.936-8.622 1.936-11.112 0-20.126-9.002-20.126-20.126 0-11.112 9.014-20.114 20.126-20.114 3.089 0 6.005.692 8.622 1.936-6.801 3.216-11.504 10.144-11.504 18.178 0 8.035 4.703 14.974 11.504 18.19z" fill="#4073c8"/></g></g><path d="m68.684 436.509h-5.26c-12.759 0-23.102 10.343-23.102 23.102v18.953c0 12.759 10.343 23.102 23.102 23.102h5.26c12.759 0 23.102-10.343 23.102-23.102v-18.953c0-12.759-10.343-23.102-23.102-23.102z" fill="#ffddce"/><path d="m76.842 500.177c-2.534.958-5.285 1.483-8.159 1.483h-5.264c-12.754 0-23.097-10.343-23.097-23.097v-18.955c0-12.754 10.343-23.097 23.097-23.097h5.264c2.874 0 5.625.525 8.159 1.483-8.726 3.297-14.938 11.734-14.938 21.613v18.955c0 9.881 6.212 18.319 14.938 21.615z" fill="#ffcbbe"/></g></svg>