<svg id="Capa_1" enable-background="new 0 0 512 512" height="512" viewBox="0 0 512 512" width="512" xmlns="http://www.w3.org/2000/svg"><g><path d="m412.941 238.197c19.573-9.076 33.151-28.917 33.151-51.911 0-28.35-20.604-51.859-47.656-56.412-9.859-73.328-72.669-129.874-148.696-129.874-38.013 0-72.72 14.134-99.165 37.437-26.434 23.303-44.596 55.774-49.531 92.438-27.042 4.553-47.656 28.062-47.656 56.412 0 22.994 13.578 42.835 33.151 51.911" fill="#ffc250"/><path d="m249.74 0c-12.97 0-24.807 14.134-33.831 37.436-9.014 23.303-15.216 55.774-16.895 92.438-9.23 4.553-27.155 13.979-27.155 42.33 0 22.993 15.525 56.917 22.2 65.993h-107.519c-19.573-9.076-33.151-28.917-33.151-51.91 0-28.35 20.614-51.859 47.656-56.412 4.935-36.664 23.096-69.135 49.531-92.438 26.444-23.303 61.151-37.437 99.164-37.437z" fill="#e7a52e"/><g><path d="m423.043 483.32c-1.976-7.286-8.521-12.105-15.709-12.218l25.761-6.989c8.825-2.394 14.038-11.489 11.644-20.313-1.976-7.285-8.521-12.104-15.709-12.218l17.811-4.832c8.824-2.394 14.038-11.488 11.644-20.313-2.394-8.825-11.489-14.038-20.313-11.644l-193.377 52.461 135.773 64.744 30.832-8.365c8.824-2.394 14.037-11.489 11.643-20.313z" fill="#ede6e3"/><path d="m76.45 483.32c1.976-7.286 8.521-12.105 15.709-12.218l-25.761-6.989c-8.825-2.394-14.038-11.489-11.644-20.313 1.976-7.285 8.521-12.104 15.709-12.218l-17.811-4.832c-8.824-2.394-14.038-11.488-11.644-20.313 2.394-8.825 11.489-14.038 20.313-11.644l193.377 52.461-135.773 64.744-30.832-8.365c-8.824-2.394-14.037-11.489-11.643-20.313z" fill="#ede6e3"/><g fill="#d8cec9"><path d="m130.102 506.664-11.178 5.336-30.833-8.365c-8.829-2.39-14.041-11.486-11.641-20.315 1.978-7.283 8.52-12.105 15.71-12.218l-25.765-6.985c-8.829-2.4-14.041-11.486-11.641-20.315.989-3.647 3.121-6.665 5.903-8.798 2.781-2.133 6.212-3.358 9.807-3.42l-17.812-4.831c-8.829-2.39-14.041-11.486-11.651-20.315 2.009-7.366 8.684-12.228 15.968-12.228 1.432 0 2.895.196 4.347.587l14.989 4.069c-2.071 2.009-3.657 4.584-4.471 7.572-2.39 8.829 2.823 17.925 11.651 20.315l17.801 4.831c-3.585.062-7.026 1.288-9.807 3.42-2.781 2.133-4.904 5.151-5.893 8.798-2.4 8.829 2.812 17.915 11.641 20.315l25.754 6.985c-7.18.113-13.732 4.934-15.7 12.218-2.4 8.829 2.812 17.925 11.641 20.315z"/><path d="m369.383 506.662 11.177 5.336 30.833-8.365c8.829-2.39 14.041-11.486 11.641-20.315-1.978-7.283-8.52-12.105-15.71-12.218l25.765-6.985c8.829-2.4 14.041-11.486 11.641-20.315-.989-3.647-3.121-6.665-5.903-8.798-2.781-2.133-6.212-3.358-9.807-3.42l17.812-4.831c8.829-2.39 14.041-11.486 11.651-20.315-2.009-7.366-8.684-12.228-15.968-12.228-1.432 0-2.895.196-4.347.587l-14.989 4.069c2.071 2.009 3.657 4.584 4.471 7.572 2.39 8.829-2.823 17.925-11.651 20.315l-17.801 4.831c3.585.062 7.026 1.288 9.807 3.42 2.781 2.133 4.904 5.151 5.893 8.798 2.4 8.829-2.812 17.915-11.641 20.315l-25.754 6.985c7.18.113 13.732 4.934 15.7 12.218 2.4 8.829-2.812 17.925-11.641 20.315z"/></g></g><g><path d="m380.568 511.997h-261.644c21.242-35.902 56.825-62.305 98.876-71.309v-55.351h63.881v55.351c42.052 9.004 77.645 35.408 98.887 71.309z" fill="#ffddce"/><g fill="#ffcbbe"><path d="m281.682 385.337v24.261c-7.242 1.473-14.742 2.246-22.417 2.246h-19.038c-7.685 0-15.185-.773-22.427-2.246v-24.261z"/><path d="m236.248 385.328v55.364c-17.77 8.993-32.803 35.405-41.776 71.306h-75.55c21.239-35.901 56.83-62.313 98.874-71.306v-55.364z"/></g></g><g fill="#ffcbbe"><circle cx="108.072" cy="272.881" r="40.809"/><circle cx="391.415" cy="272.881" r="40.809"/></g><path d="m133.667 283.877c-2.714 0-5.347-1.433-6.76-3.972-2.375-4.271-6.423-6.679-12.375-7.36-5.223-.598-9.787.455-9.833.465-4.14.977-8.306-1.576-9.3-5.711-.993-4.135 1.522-8.291 5.652-9.304.692-.17 6.98-1.633 14.657-.865 11.235 1.129 19.778 6.407 24.704 15.264 2.074 3.729.732 8.434-2.997 10.508-1.189.66-2.478.975-3.748.975z" fill="#eaac9d"/><path d="m365.82 283.877c-1.271 0-2.559-.314-3.748-.975-3.729-2.074-5.071-6.779-2.997-10.508 4.926-8.857 13.468-14.135 24.704-15.264 7.68-.771 13.965.695 14.657.865 4.144 1.017 6.679 5.201 5.662 9.345-1.015 4.134-5.179 6.663-9.314 5.67-.153-.036-4.668-1.056-9.829-.465-5.952.681-10 3.089-12.375 7.359-1.413 2.54-4.046 3.973-6.76 3.973z" fill="#eaac9d"/><path d="m370.982 190.665v85.484c0 61.697-50.025 111.712-111.723 111.712h-19.038c-61.697 0-111.712-50.015-111.712-111.712v-85.484c0-.69.01-1.381.031-2.06 4.1 1.823 8.633 2.843 13.403 2.843 13.289 0 24.735-7.891 29.916-19.244 6.027 6.985 14.938 11.414 24.889 11.414 12.28 0 22.973-6.727 28.618-16.689 6.016 6.645 14.711 10.817 24.374 10.817 9.673 0 18.358-4.172 24.374-10.817 5.656 9.962 16.349 16.689 28.618 16.689 9.951 0 18.863-4.43 24.899-11.414 5.182 11.353 16.627 19.244 29.916 19.244 4.78 0 9.313-1.02 13.403-2.843.021.68.032 1.37.032 2.06z" fill="#ffddce"/><path d="m284.653 384.956c-8.159 1.906-16.658 2.905-25.384 2.905h-19.038c-61.708 0-111.723-50.015-111.723-111.712v-85.484c0-.69.01-1.381.031-2.06 4.1 1.823 8.633 2.843 13.403 2.843 13.289 0 24.735-7.891 29.916-19.244 6.027 6.985 14.938 11.414 24.889 11.414.598 0 1.195-.021 1.782-.052-.134 2.349-.206 4.718-.206 7.098v85.484c.001 52.962 36.861 97.322 86.33 108.808z" fill="#ffcbbe"/><g fill="#2b4d66"><path d="m192.161 231.915c-7.454 0-13.519 8.308-13.519 18.521s6.064 18.522 13.519 18.522 13.519-8.309 13.519-18.522-6.064-18.521-13.519-18.521z"/><path d="m307.325 231.915c-7.454 0-13.519 8.308-13.519 18.521s6.064 18.522 13.519 18.522 13.519-8.309 13.519-18.522-6.065-18.521-13.519-18.521z"/></g><path d="m209.541 218.335c-1.977 0-3.955-.754-5.463-2.263-2.97-2.97-6.918-4.605-11.117-4.605-4.2 0-8.147 1.635-11.117 4.605-3.017 3.017-7.909 3.018-10.927 0-3.017-3.017-3.018-7.909 0-10.927 5.888-5.888 13.716-9.131 22.044-9.131 8.327 0 16.156 3.243 22.044 9.131 3.018 3.018 3.017 7.909 0 10.927-1.51 1.508-3.487 2.263-5.464 2.263z" fill="#eaac9d"/><path d="m324.272 218.335c-1.977 0-3.955-.755-5.463-2.263-2.97-2.969-6.918-4.605-11.118-4.605-4.199 0-8.147 1.636-11.117 4.605-3.017 3.017-7.909 3.017-10.927 0s-3.018-7.909 0-10.927c12.155-12.155 31.934-12.154 44.088 0 3.018 3.017 3.018 7.909 0 10.927-1.509 1.508-3.486 2.263-5.463 2.263z" fill="#eaac9d"/><path d="m249.743 304.671c-14.268 0-27.077-9.541-31.15-23.203-1.219-4.09 1.108-8.393 5.197-9.612 4.09-1.218 8.392 1.108 9.612 5.197 2.135 7.163 8.856 12.165 16.342 12.165 7.495 0 14.214-4.999 16.339-12.157 1.215-4.091 5.515-6.422 9.606-5.208 4.091 1.215 6.422 5.516 5.208 9.606-4.059 13.667-16.869 23.212-31.154 23.212z" fill="#eaa598"/><g fill="#e04b66"><path d="m465.772 20.557c-7.741-7.741-20.293-7.741-28.034 0l-5.176 5.176-5.176-5.176c-7.741-7.741-20.293-7.741-28.034 0s-7.741 20.293 0 28.034l33.21 33.21 33.21-33.21c7.742-7.741 7.742-20.292 0-28.034z"/><path d="m160.855 39.543c-7.741-7.741-20.293-7.741-28.034 0l-5.176 5.176-5.176-5.176c-7.741-7.741-20.293-7.741-28.034 0s-7.741 20.293 0 28.034l33.21 33.21 33.21-33.21c7.741-7.741 7.741-20.293 0-28.034z"/></g></g></svg>