<svg id="Capa_1" enable-background="new 0 0 512 512" height="512" viewBox="0 0 512 512" width="512" xmlns="http://www.w3.org/2000/svg"><g><path d="m59.904 333.404h28.784v151.424h-28.784z" fill="#365e7d"/><path d="m59.904 333.404h13.661v151.424h-13.661z" fill="#2b4d66"/><path d="m398.271 218.109c0 24.442 19.814 44.255 44.255 44.255 24.442 0 44.255-19.814 44.255-44.255 0-9.853-3.224-18.951-8.669-26.305 19.436-4.669 33.884-22.153 33.884-43.021 0-20.949-14.561-38.486-34.111-43.073 1.823-4.846 2.827-10.093 2.827-15.577 0-24.442-19.814-44.255-44.255-44.255-6.205 0-12.109 1.282-17.469 3.588-4.129-20.164-21.97-35.331-43.355-35.331-12.22 0-23.283 4.953-31.292 12.96-8.651-16.126-25.666-27.095-45.247-27.095s-36.595 10.969-45.248 27.094c-8.009-8.008-19.072-12.96-31.292-12.96-21.385 0-39.227 15.167-43.355 35.331-5.36-2.306-11.264-3.588-17.469-3.588-24.442 0-44.255 19.814-44.255 44.255 0 5.484 1.004 10.731 2.827 15.577-19.55 4.587-34.111 22.124-34.111 43.073 0 20.868 14.448 38.352 33.884 43.021-5.445 7.354-8.669 16.452-8.669 26.305 0 24.442 19.814 44.255 44.255 44.255s44.255-19.814 44.255-44.255" fill="#698ed5"/><path d="m299.096 0c13.974 0 26.644 5.588 35.887 14.648-2.215-.346-4.485-.52-6.8-.52-21.384 0-39.223 15.168-43.352 35.34-5.36-2.306-11.266-3.591-17.474-3.591-24.438 0-44.254 19.816-44.254 44.254 0 5.487 1.003 10.729 2.826 15.578-19.543 4.585-34.109 22.123-34.109 43.069 0 20.874 14.448 38.357 33.881 43.024-5.442 7.356-8.669 16.453-8.669 26.307h-17.109c0 24.438-19.816 44.254-44.264 44.254-24.438 0-44.254-19.817-44.254-44.254 0-9.854 3.227-18.951 8.669-26.307-19.434-4.667-33.881-22.15-33.881-43.024 0-20.947 14.557-38.484 34.109-43.069-1.823-4.849-2.826-10.091-2.826-15.578 0-24.438 19.816-44.254 44.254-44.254 6.207 0 12.114 1.285 17.474 3.591 4.129-20.172 21.968-35.34 43.352-35.34 12.224 0 23.28 4.959 31.293 12.962 8.649-16.124 25.668-27.09 45.247-27.09z" fill="#4073c8"/><g fill="#ffcbbe"><circle cx="156.698" cy="271.659" r="41.018"/><circle cx="441.492" cy="271.659" r="41.018"/></g><path d="m182.398 282.672c-2.714 0-5.347-1.433-6.759-3.972-2.395-4.305-6.474-6.732-12.471-7.418-5.256-.602-9.85.458-9.895.469-4.14.973-8.306-1.576-9.301-5.711-.994-4.135 1.522-8.291 5.652-9.305.694-.171 7.006-1.643 14.718-.868 11.28 1.133 19.855 6.431 24.8 15.321 2.074 3.729.732 8.434-2.996 10.508-1.189.661-2.477.976-3.748.976z" fill="#eaac9d"/><path d="m415.792 282.672c-1.271 0-2.559-.314-3.749-.976-3.729-2.074-5.07-6.779-2.997-10.508 4.946-8.89 13.521-14.188 24.8-15.321 7.714-.776 14.023.697 14.719.868 4.144 1.017 6.679 5.201 5.662 9.345-1.015 4.134-5.185 6.666-9.314 5.67-.149-.034-4.695-1.063-9.891-.468-5.997.686-10.076 3.112-12.471 7.418-1.412 2.539-4.045 3.971-6.759 3.972z" fill="#eaac9d"/><path d="m430.283 512h-66.755l-43.388-12.795-94.522 12.795h-57.722c21.181-35.799 56.578-62.182 98.444-71.35.237-.052.484-.103.721-.155v-55.516h64.067v55.516c.247.052.494.103.731.165 7.846 1.719 15.466 4.043 22.807 6.921 3.875 1.519-2.619 13.483 1.093 15.302 3.322 1.628 16.866-6.918 20.047-5.06 22.448 13.111 41.239 31.803 54.477 54.177z" fill="#ffddce"/><path d="m378.589 459.481v.01l-15.061 52.509h-137.91l129.185-64.366c8.313 3.266 16.266 7.242 23.786 11.847z" fill="#e04b66"/><g fill="#ffcbbe"><path d="m331.859 440.66c-3.441 2.668-7.757 4.265-12.445 4.265h-.01c-11.208 0-20.305-9.097-20.305-20.315 0 11.219-9.096 20.315-20.305 20.315h-.01c-4.687 0-9.004-1.597-12.445-4.275.237-.052.484-.103.721-.155v-55.516h64.067v55.516c.248.052.495.103.732.165z"/><path d="m281.156 384.979v55.516c-23.622 9.024-43.608 35.5-55.537 71.505h-57.721c21.304-36.005 56.99-62.48 99.165-71.505v-55.516z"/><path d="m331.13 384.979v25.353c-7.263 1.473-14.773 2.246-22.468 2.246h-19.13c-7.695 0-15.205-.773-22.468-2.246v-25.353z"/></g><path d="m177.239 175.419v186.434c0 11.217 9.093 20.31 20.31 20.31 11.217 0 20.31-9.093 20.31-20.31v22.677c0 11.217 9.093 20.31 20.31 20.31 11.217 0 20.31-9.093 20.31-20.31v14.731c0 11.217 9.093 20.31 20.31 20.31 11.217 0 20.31-9.093 20.31-20.31 0 11.217 9.093 20.31 20.31 20.31 11.217 0 20.31-9.093 20.31-20.31v-14.731c0 11.217 9.093 20.31 20.31 20.31 11.217 0 20.31-9.093 20.31-20.31v-22.677c0 11.217 9.093 20.31 20.31 20.31 11.217 0 20.31-9.093 20.31-20.31v-186.434" fill="#698ed5"/><path d="m244.382 388.674c0 4.945 1.762 9.457 4.698 12.98-3.152 2.019-6.892 3.183-10.91 3.183-11.219 0-20.315-9.097-20.315-20.315v-22.674c0 5.615-2.277 10.683-5.944 14.361-3.678 3.678-8.757 5.954-14.361 5.954-11.219 0-20.315-9.096-20.315-20.315v-186.432h67.147z" fill="#4073c8"/><path d="m396.015 176.13v86.36c0 21.644-22.479 35.953-42.083 26.805-17.379-8.108-36.108-12.156-54.837-12.156-18.687 0-37.365 4.028-54.713 12.094-.041.021-.083.041-.124.062h-.01c-19.604 9.148-42.083-5.161-42.083-26.805v-86.36c14.845-.927 29.051-4.244 42.217-9.57 1.71-.69 3.41-1.411 5.079-2.174 15.061 7.098 31.884 11.054 49.634 11.054s34.573-3.956 49.634-11.054c14.578 6.603 30.514 10.693 47.286 11.744z" fill="#ffddce"/><path d="m244.387 166.56v122.674c-.041.021-.082.041-.124.062h-.01c-19.604 9.148-42.083-5.161-42.083-26.805v-86.36c14.845-.928 29.051-4.245 42.217-9.571z" fill="#ffcbbe"/><g fill="#2b4d66"><ellipse cx="241.219" cy="249.099" rx="13.587" ry="18.616"/><path d="m356.972 230.484c-7.492 0-13.587 8.351-13.587 18.616s6.095 18.615 13.587 18.615 13.588-8.351 13.588-18.615c-.001-10.265-6.096-18.616-13.588-18.616z"/></g><path d="m258.957 228.086c-17.256 0-31.295-14.039-31.295-31.295 0-4.267 3.459-7.726 7.726-7.726s7.726 3.459 7.726 7.726c0 8.735 7.107 15.842 15.842 15.842 4.268 0 7.726 3.459 7.726 7.726s-3.458 7.727-7.725 7.727z" fill="#eaac9d"/><path d="m340.404 228.086c-4.268 0-7.726-3.459-7.726-7.726s3.459-7.726 7.726-7.726c8.735 0 15.842-7.107 15.842-15.842 0-4.267 3.459-7.726 7.726-7.726s7.726 3.459 7.726 7.726c.001 17.255-14.038 31.294-31.294 31.294z" fill="#eaac9d"/><path d="m299.095 326.933c-14.323 0-27.182-9.578-31.272-23.293-1.219-4.089 1.108-8.393 5.197-9.612 4.093-1.22 8.392 1.108 9.612 5.196 2.151 7.216 8.922 12.256 16.463 12.256 7.551 0 14.32-5.036 16.461-12.247 1.214-4.091 5.512-6.423 9.606-5.208 4.091 1.215 6.423 5.515 5.207 9.606-4.072 13.72-16.934 23.302-31.274 23.302z" fill="#4073c8"/><path d="m398.271 72.824-14.041 50.778h-170.269l-14.041-50.778c-2.411-8.736 6.861-16.091 14.814-11.754l39.075 21.314.278.155c4.615 2.514 10.384 1.143 13.361-3.183l23.2-33.594c4.08-5.913 12.816-5.913 16.895 0l23.189 33.594c2.987 4.327 8.757 5.697 13.372 3.183l39.343-21.469c7.963-4.338 17.234 3.018 14.824 11.754z" fill="#e04b66"/><path d="m262.442 123.601h-48.48l-14.042-50.777c-2.411-8.736 6.861-16.091 14.814-11.754l39.075 21.314z" fill="#de1d49"/><path d="m76.926 446.843h-5.26c-12.759 0-23.102 10.343-23.102 23.102v18.953c0 12.759 10.343 23.102 23.102 23.102h5.26c12.759 0 23.102-10.343 23.102-23.102v-18.953c0-12.759-10.343-23.102-23.102-23.102z" fill="#ffddce"/><path d="m85.084 510.511c-2.534.958-5.285 1.483-8.159 1.483h-5.265c-12.754 0-23.097-10.343-23.097-23.097v-18.955c0-12.754 10.343-23.097 23.097-23.097h5.264c2.874 0 5.625.525 8.159 1.483-8.726 3.297-14.938 11.734-14.938 21.613v18.955c.001 9.881 6.213 18.319 14.939 21.615z" fill="#ffcbbe"/><path d="m74.296 345.946c-29.097 0-52.77-23.673-52.77-52.77v-41.188c0-2.946-2.397-5.342-5.342-5.342-8.936 0-16.181-7.244-16.181-16.181s7.244-16.181 16.181-16.181c20.79 0 37.704 16.914 37.704 37.704v41.188c0 11.253 9.155 20.408 20.409 20.408s20.408-9.155 20.408-20.408v-41.188c0-20.79 16.914-37.704 37.704-37.704 8.936 0 16.181 7.244 16.181 16.181s-7.244 16.181-16.181 16.181c-2.946 0-5.343 2.397-5.343 5.342v41.188c0 29.098-23.673 52.77-52.77 52.77z" fill="#e04b66"/><g fill="#de1d49"><path d="m91.767 313.585c11.253 0 20.408-9.155 20.408-20.408v-41.188c0-17.1 11.447-31.568 27.077-36.169-2.081-.975-4.395-1.535-6.845-1.535-20.79 0-37.704 16.914-37.704 37.704v41.188c0 8.125-4.784 15.135-11.673 18.416 2.654 1.263 5.609 1.992 8.737 1.992z"/><path d="m38.997 293.176v-41.188c0-2.946-2.397-5.342-5.342-5.342-8.936 0-16.181-7.244-16.181-16.181 0-6.486 3.826-12.066 9.336-14.646-3.373-.993-6.937-1.535-10.627-1.535-8.936 0-16.181 7.244-16.181 16.181s7.244 16.181 16.181 16.181c2.945 0 5.342 2.397 5.342 5.342v41.188c0 29.097 23.673 52.77 52.77 52.77 2.977 0 5.892-.26 8.736-.736-24.953-4.177-44.034-25.913-44.034-52.034z"/></g></g></svg>