<svg id="Capa_1" enable-background="new 0 0 512 512" height="512" viewBox="0 0 512 512" width="512" xmlns="http://www.w3.org/2000/svg"><g><path d="m429.299 483.32c-1.977-7.286-8.521-12.105-15.709-12.218l25.761-6.989c8.825-2.394 14.038-11.489 11.644-20.313-1.976-7.286-8.521-12.104-15.709-12.218l17.811-4.832c8.824-2.394 14.038-11.488 11.644-20.313-2.394-8.825-11.489-14.038-20.313-11.644l-193.378 52.461 135.773 64.744 30.832-8.365c8.825-2.394 14.038-11.489 11.644-20.313z" fill="#365e7d"/><path d="m82.707 483.32c1.976-7.286 8.521-12.105 15.709-12.218l-25.761-6.989c-8.825-2.394-14.038-11.489-11.644-20.313 1.976-7.286 8.521-12.104 15.709-12.218l-17.81-4.832c-8.824-2.394-14.038-11.488-11.644-20.313 2.394-8.825 11.489-14.038 20.313-11.644l193.377 52.461-135.773 64.744-30.832-8.365c-8.825-2.394-14.038-11.489-11.644-20.313z" fill="#365e7d"/><path d="m136.358 506.664-11.177 5.336-30.833-8.365c-8.829-2.39-14.041-11.486-11.641-20.315 1.978-7.283 8.52-12.105 15.71-12.218l-25.765-6.985c-8.829-2.4-14.041-11.486-11.641-20.315.989-3.647 3.121-6.665 5.903-8.798 2.781-2.133 6.212-3.358 9.807-3.42l-17.812-4.831c-8.829-2.39-14.041-11.486-11.651-20.315 2.009-7.366 8.684-12.228 15.968-12.228 1.432 0 2.895.196 4.347.587l14.989 4.069c-2.071 2.009-3.657 4.584-4.471 7.572-2.39 8.829 2.823 17.925 11.651 20.315l17.801 4.831c-3.585.062-7.026 1.288-9.807 3.42-2.781 2.133-4.904 5.151-5.893 8.798-2.4 8.829 2.812 17.915 11.641 20.315l25.754 6.985c-7.18.113-13.732 4.934-15.7 12.218-2.4 8.829 2.812 17.925 11.641 20.315z" fill="#2b4d66"/><path d="m375.64 506.662 11.177 5.336 30.833-8.365c8.829-2.39 14.041-11.486 11.641-20.315-1.978-7.283-8.52-12.105-15.71-12.218l25.765-6.985c8.829-2.4 14.041-11.486 11.641-20.315-.989-3.647-3.121-6.665-5.903-8.798-2.781-2.133-6.212-3.358-9.807-3.42l17.812-4.831c8.829-2.39 14.041-11.486 11.651-20.315-2.009-7.366-8.684-12.228-15.968-12.228-1.432 0-2.895.196-4.347.587l-14.989 4.069c2.071 2.009 3.657 4.584 4.471 7.572 2.39 8.829-2.823 17.925-11.651 20.315l-17.801 4.831c3.585.062 7.026 1.288 9.807 3.42 2.781 2.133 4.904 5.151 5.893 8.798 2.4 8.829-2.812 17.915-11.641 20.315l-25.754 6.985c7.18.113 13.732 4.934 15.7 12.218 2.4 8.829-2.812 17.925-11.641 20.315z" fill="#2b4d66"/><g fill="#365e7d"><path d="m141.483 377.519c-11.636 0-21.069-9.433-21.068-21.068v-14.902l-10.864 10.864c-8.228 8.228-21.568 8.228-29.795 0-8.228-8.228-8.228-21.568 0-29.795l53-53 29.795 29.795v57.039c.001 11.635-9.432 21.068-21.068 21.067z"/><path d="m370.232 377.519c11.636 0 21.069-9.433 21.068-21.068v-14.902l10.864 10.864c8.228 8.228 21.568 8.228 29.795 0 8.228-8.228 8.228-21.568 0-29.795l-53-53-29.795 29.795v57.039c0 11.635 9.433 21.068 21.068 21.067z"/></g><path d="m255.858 0c84.569 0 153.126 68.557 153.126 153.126v120.824h-306.252v-120.824c0-84.569 68.557-153.126 153.126-153.126z" fill="#365e7d"/><path d="m302.102 7.108c-61.965 19.615-106.87 77.572-106.87 146.017v120.819h-92.5v-120.818c0-84.567 68.558-153.126 153.125-153.126 16.123 0 31.658 2.493 46.245 7.108z" fill="#2b4d66"/><path d="m386.823 511.997h-261.64c21.24-35.903 56.829-62.308 98.877-71.306v-55.359h63.886v55.359c42.048 8.998 77.638 35.404 98.877 71.306z" fill="#365e7d"/><path d="m224.062 385.328h63.882v22.736h-63.882z" fill="#2b4d66"/><path d="m242.508 385.328v55.364c-17.77 8.993-32.803 35.405-41.776 71.306h-75.55c21.239-35.901 56.83-62.313 98.874-71.306v-55.364z" fill="#2b4d66"/><g fill="#ffcbbe"><circle cx="114.012" cy="272.335" r="40.902"/><circle cx="398.002" cy="272.335" r="40.902"/></g><path d="m139.653 283.338c-2.714 0-5.347-1.432-6.76-3.972-2.384-4.286-6.446-6.702-12.418-7.385-5.236-.599-9.814.456-9.861.467-4.143.974-8.307-1.576-9.3-5.711s1.522-8.291 5.652-9.304c.693-.171 6.988-1.638 14.685-.866 11.255 1.131 19.812 6.418 24.746 15.289 2.074 3.729.732 8.434-2.997 10.508-1.187.66-2.476.974-3.747.974z" fill="#eaac9d"/><path d="m372.36 283.338c-1.271 0-2.559-.314-3.748-.975-3.729-2.074-5.071-6.779-2.997-10.508 4.935-8.872 13.491-14.158 24.746-15.289 7.695-.771 13.992.696 14.685.866 4.144 1.017 6.679 5.201 5.662 9.345-1.014 4.134-5.177 6.665-9.313 5.67-.145-.034-4.679-1.059-9.857-.466-5.972.683-10.034 3.099-12.418 7.385-1.414 2.539-4.046 3.972-6.76 3.972z" fill="#eaac9d"/><path d="m377.516 275.613c0 61.841-50.128 111.97-111.97 111.97h-19.079c-61.841 0-111.98-50.128-111.98-111.97l-.288-39.209.299.515c0-95.6 144.142-34.923 162.634-109.261v32.636c0 12.249 9.931 22.179 22.18 22.179 6.13 0 11.672-2.483 15.679-6.5 4.018-4.008 6.5-9.56 6.5-15.679 0 12.249 9.931 22.179 22.18 22.179 4.914 0 9.457-1.597 13.124-4.306z" fill="#ffddce"/><path d="m292.599 384.287c-8.664 2.153-17.719 3.297-27.052 3.297h-19.079c-61.841 0-111.98-50.128-111.98-111.97l-.288-39.209.299.515c0-47.213 35.16-56.32 72.978-62.377l.196 101.071c-.002 52.518 36.158 96.578 84.926 108.673z" fill="#ffcbbe"/><g fill="#2b4d66"><path d="m198.293 236.439c-2.936 0-5.649 1.3-7.87 3.482l-5.118-3.641c-3.477-2.473-8.301-1.66-10.775 1.817s-1.66 8.301 1.817 10.775l8.403 5.978c0 .052-.006.101-.006.153 0 10.236 6.078 18.563 13.549 18.563s13.549-8.327 13.549-18.563c.001-10.237-6.077-18.564-13.549-18.564z"/><path d="m337.483 238.097c-2.473-3.478-7.298-4.29-10.775-1.817l-5.118 3.641c-2.221-2.183-4.934-3.482-7.87-3.482-7.471 0-13.549 8.327-13.549 18.563s6.078 18.563 13.549 18.563 13.549-8.327 13.549-18.563c0-.052-.005-.101-.006-.153l8.403-5.978c3.477-2.473 4.291-7.297 1.817-10.774z"/></g><path d="m302.336 229.397c-4.267 0-7.726-3.459-7.726-7.726s3.459-7.726 7.726-7.726c8.699 0 15.776-7.077 15.776-15.776 0-4.267 3.459-7.726 7.726-7.726s7.726 3.459 7.726 7.726c0 17.219-14.009 31.228-31.228 31.228z" fill="#eaac9d"/><path d="m210.845 229.397c-17.219 0-31.228-14.009-31.228-31.228 0-4.267 3.459-7.726 7.726-7.726s7.726 3.459 7.726 7.726c0 8.699 7.077 15.776 15.776 15.776 4.267 0 7.726 3.459 7.726 7.726s-3.459 7.726-7.726 7.726z" fill="#eaac9d"/><path d="m256.007 314.506c-14.292 0-27.124-9.558-31.205-23.242-1.219-4.089 1.108-8.393 5.197-9.612 4.088-1.219 8.392 1.107 9.612 5.197 2.142 7.186 8.885 12.205 16.396 12.205 7.52 0 14.261-5.016 16.393-12.197 1.215-4.091 5.518-6.422 9.606-5.208 4.091 1.215 6.422 5.516 5.208 9.606-4.066 13.69-16.898 23.251-31.207 23.251z" fill="#eaa598"/></g></svg>