<svg id="Capa_1" enable-background="new 0 0 512 512" height="512" viewBox="0 0 512 512" width="512" xmlns="http://www.w3.org/2000/svg"><g><g fill="#d8cec9"><path d="m191.006 441.783c-4.268 0-7.726-3.459-7.726-7.726v-195.189c0-4.267 3.459-7.726 7.726-7.726 4.268 0 7.726 3.459 7.726 7.726v195.188c0 4.267-3.458 7.727-7.726 7.727z"/><path d="m234.335 443.102c-4.268 0-7.726-3.459-7.726-7.726v-196.508c0-4.267 3.459-7.726 7.726-7.726s7.726 3.459 7.726 7.726v196.507c0 4.267-3.458 7.727-7.726 7.727z"/><path d="m277.654 443.102c-4.268 0-7.726-3.459-7.726-7.726v-196.508c0-4.267 3.459-7.726 7.726-7.726s7.726 3.459 7.726 7.726v196.507c0 4.267-3.458 7.727-7.726 7.727z"/><path d="m320.984 441.783c-4.268 0-7.726-3.459-7.726-7.726v-195.189c0-4.267 3.459-7.726 7.726-7.726 4.268 0 7.726 3.459 7.726 7.726v195.188c0 4.267-3.459 7.727-7.726 7.727z"/></g><path d="m419.071 305.191h-326.143c-11.344 0-20.539-9.196-20.539-20.539s9.196-20.539 20.539-20.539h326.142c11.344 0 20.539 9.196 20.539 20.539s-9.194 20.539-20.538 20.539z" fill="#9d6b6b"/><path d="m439.61 284.652c0 11.337-9.202 20.539-20.539 20.539h-326.146c-11.348 0-20.539-9.202-20.539-20.539 0-2.917.606-5.689 1.705-8.195 3.163 7.26 10.403 12.334 18.835 12.334h326.146c8.421 0 15.672-5.073 18.835-12.334 1.098 2.505 1.703 5.278 1.703 8.195z" fill="#8b5e5e"/><path d="m304.507 511.988h-97.014c-99.259 0-180.013-80.754-180.013-180.013 0-48.085 18.726-93.289 52.725-127.289l35.874-35.873c19.53-19.531-22.347-36.158-43.501-36.158s-38.304-17.15-38.304-38.304c0-25.838 10.241-49.951 28.835-67.896 18.59-17.94 43.067-27.31 68.921-26.393 50.995 1.814 90.942 43.82 90.942 95.633 0 48.082-18.724 93.286-52.723 127.287l-35.875 35.874c-19.531 19.531-30.287 45.497-30.287 73.118 0 57.017 46.388 103.405 103.405 103.405h97.014c57.017 0 103.405-46.388 103.405-103.405 0-27.621-10.756-53.587-30.287-73.117l-35.874-35.875c-34-34.001-52.724-79.205-52.724-127.287 0-51.813 39.947-93.82 90.946-95.633 25.839-.916 50.328 8.454 68.919 26.394 18.595 17.945 28.835 42.057 28.835 67.895 0 21.154-17.15 38.304-38.304 38.304-21.155 0-63.032 16.627-43.501 36.158l35.873 35.874c34 33.999 52.725 79.203 52.725 127.287.001 99.26-80.753 180.014-180.012 180.014z" fill="#ffc250"/><path d="m448.268 331.959c0 57.025-46.377 103.403-103.402 103.403h-40.361c57.025 0 103.402-46.377 103.402-103.403 0-27.623-10.761-53.579-30.278-73.096l-35.87-35.899c-34.006-33.978-52.732-79.197-52.732-127.269 0-51.829 39.937-93.827 90.947-95.636 8.05-.282 15.986.424 23.612 2.118-42.734 9.264-74.198 47.507-74.198 93.517 0 48.072 18.726 93.291 52.732 127.269l35.87 35.899c19.517 19.518 30.278 45.474 30.278 73.097z" fill="#e7a52e"/><path d="m275.114 512h-67.617c-99.251 0-180.001-80.75-180.001-180.029 0-48.072 18.726-93.291 52.704-127.269l35.898-35.87c19.517-19.545-22.369-36.181-43.524-36.181s-38.299-17.144-38.299-38.299c0-25.844 10.253-49.936 28.837-67.899 18.585-17.936 43.072-27.313 68.916-26.381 10.704.368 20.929 2.542 30.391 6.186-11.665 4.434-22.398 11.241-31.69 20.195-18.584 17.963-28.837 42.055-28.837 67.899 0 21.155 17.511 34.458 38.328 38.299 61.318 11.382 7.626 72.051 7.626 72.051-34.006 33.978-70.14 79.197-70.14 127.269-.002 99.279 98.157 180.029 197.408 180.029z" fill="#e7a52e"/></g></svg>