<svg id="Capa_1" enable-background="new 0 0 512 512" height="512" viewBox="0 0 512 512" width="512" xmlns="http://www.w3.org/2000/svg"><g><path d="m334.793 476.518c0 19.594-15.885 35.479-35.479 35.479h-86.638c-9.797 0-18.656-3.976-25.074-10.394s-10.395-15.288-10.395-25.085c0-18.018 13.433-32.883 30.833-35.16v-419.837c0-11.889 9.632-21.521 21.51-21.521h52.889c11.888 0 21.52 9.632 21.52 21.521v419.838c8.695 1.143 16.4 5.429 21.943 11.671 5.533 6.264 8.891 14.484 8.891 23.488z" fill="#9d6b6b"/><path d="m208.04 61.13h95.92v230.842h-95.92z" fill="#8b5e5e"/><path d="m229.372 476.521c0 9.797 1.339 18.667 3.513 25.085 2.163 6.418 5.161 10.394 8.468 10.394h-28.67c-9.797 0-18.667-3.976-25.085-10.394s-10.395-15.288-10.395-25.085c0-18.018 13.434-32.883 30.833-35.16v-419.838c0-11.888 9.632-21.521 21.521-21.521h17.503c-4.018 0-7.273 9.632-7.273 21.521v419.838c-5.882 2.277-10.415 17.142-10.415 35.16z" fill="#8b5e5e"/><path d="m444.672 78.015v138.929c0 7.417-3.616 14.371-9.694 18.626l-39.023 27.331h-279.91l-39.023-27.331c-6.078-4.255-9.694-11.208-9.694-18.626v-138.929c0-7.417 3.616-14.371 9.694-18.626l39.023-27.33h279.909l39.023 27.33c6.079 4.255 9.695 11.209 9.695 18.626z" fill="#ede6e3"/><path d="m444.672 78.015v138.929c0 7.417-3.616 14.371-9.694 18.626l-39.023 27.331v-230.842l39.023 27.33c6.078 4.255 9.694 11.209 9.694 18.626z" fill="#f5f0f0"/><path d="m116.045 32.059v230.842l-39.023-27.331c-6.078-4.255-9.694-11.208-9.694-18.626v-138.929c0-7.417 3.616-14.371 9.694-18.626z" fill="#d8cec9"/></g></svg>