<svg id="Capa_1" enable-background="new 0 0 512 512" height="512" viewBox="0 0 512 512" width="512" xmlns="http://www.w3.org/2000/svg"><g><g><path d="m37.07 150.622h28.784v334.207h-28.784z" fill="#ffc250"/><path d="m37.07 150.622h13.661v334.207h-13.661z" fill="#e7a52e"/></g><path d="m500.893 327.635-21.054-21.054c7.964-.192 15.867-3.442 21.786-9.77 11.422-12.211 10.668-31.445-1.155-43.268l-10.066-10.066c-23.975-23.975-37.444-56.492-37.444-90.398 0-84.544-68.535-153.079-153.078-153.079-84.542 0-153.078 68.535-153.078 153.078 0 33.906-13.469 66.423-37.444 90.398l-10.066 10.066c-11.823 11.823-12.577 31.057-1.155 43.268 5.919 6.328 13.823 9.578 21.786 9.77l-21.054 21.054c-12.041 12.041-12.041 31.562 0 43.603 5.599 5.599 12.817 8.591 20.147 8.983l.995-.995c-11.879 11.88-12.607 31.235-1.058 43.436 11.983 12.658 31.963 12.865 44.207.621l.325-.325c1.004 1.424 2.135 2.785 3.409 4.059 11.882 11.882 31.045 12.03 43.119.46 12.89 26.438 47.207 45.347 87.522 45.347 41.932 0 77.376-20.457 88.969-48.565l2.757 2.758c12.041 12.041 31.562 12.041 43.603 0 1.274-1.274 2.404-2.635 3.409-4.059l.413.413c11.882 11.878 31.24 12.606 43.44 1.054 12.654-11.982 12.86-31.961.617-44.203 7.33-.391 14.548-3.383 20.147-8.983 12.042-12.041 12.042-31.563.001-43.603z" fill="#365e7d"/><path d="m234.56 243.473c4.11-11.991 7.314-26.105 9.498-41.475 2.184-15.36 3.338-31.967 3.338-48.924 0-42.268 5.872-80.539 15.37-108.241 9.499-27.701 22.623-44.833 37.118-44.833-42.268 0-80.55 17.132-108.251 44.833-27.702 27.701-44.833 65.973-44.833 108.241 0 16.957-3.369 33.563-9.725 48.924-6.367 15.37-15.731 29.484-27.712 41.475l-10.075 10.065c-11.816 11.826-12.568 31.06-1.154 43.278 5.924 6.325 13.825 9.57 21.788 9.766l-21.057 21.057c-12.033 12.032-12.033 31.554 0 43.597 2.802 2.802 6.006 4.945 9.426 6.449 3.431 1.493 7.057 2.339 10.724 2.534l.999-1c-11.878 11.888-12.609 31.235-1.061 43.443 11.981 12.651 31.967 12.867 44.205.618l.33-.329c.999 1.432 2.132 2.792 3.41 4.059 11.878 11.888 31.039 12.033 43.113.464 12.898 26.434 47.213 45.348 87.524 45.348v-146.95" fill="#2b4d66"/><path d="m353.041 446.652c32.882 12.248 60.39 35.532 78.029 65.348h-262.382c17.64-29.818 45.15-53.104 78.035-65.351" fill="#ffc250"/><path d="m276.664 446.653c-14.362 12.249-26.383 35.526-34.087 65.347h-73.889c17.644-29.821 45.156-53.098 78.041-65.347z" fill="#e7a52e"/><path d="m353.044 446.653-53.16 65.347-38.322-47.102-14.838-18.245c6.824-2.547 13.875-4.608 21.123-6.161v-55.521h64.073v55.521c7.249 1.553 14.301 3.614 21.124 6.161z" fill="#ffddce"/><path d="m267.848 384.972v42.795 12.726c-7.248 1.553-14.299 3.614-21.123 6.161l14.838 18.245c12.964-12.953 29.344-10.562 29.344-10.562v-44.151h18.545c7.693 0 15.211-.777 22.469-2.247v-22.966h-64.073z" fill="#ffcbbe"/><path d="m298.699 472.812h.793c-.134.01-.278.01-.412.01-.123 0-.257 0-.381-.01z" fill="#e7a52e"/><path d="m421.116 201.174v74.977c0 61.697-50.015 111.713-111.713 111.713h-19.038c-61.698 0-111.723-50.015-111.723-111.713v-51.355s94.231 8.942 161.378-81.178c0-.001 14.196 43.854 81.096 57.556z" fill="#ffddce"/><path d="m333.375 385.278c-7.716 1.7-15.741 2.586-23.972 2.586h-19.038c-61.698 0-111.723-50.015-111.723-111.713v-51.355s29.36 2.781 66.982-10.426v61.78c.001 53.467 37.571 98.166 87.751 109.128z" fill="#ffcbbe"/><g fill="#2b4d66"><path d="m242.3 237.065c-2.924 0-5.626 1.292-7.84 3.462l-5.109-3.635c-3.477-2.473-8.301-1.66-10.775 1.817-2.473 3.477-1.66 8.301 1.817 10.775l8.393 5.971c0 .044-.005.087-.005.132 0 10.213 6.064 18.522 13.519 18.522s13.519-8.309 13.519-18.522-6.065-18.522-13.519-18.522z"/><path d="m381.189 238.709c-2.473-3.476-7.298-4.291-10.775-1.817l-5.109 3.635c-2.214-2.17-4.917-3.462-7.841-3.462-7.455 0-13.519 8.309-13.519 18.522s6.064 18.522 13.519 18.522 13.519-8.309 13.519-18.522c0-.045-.005-.087-.005-.132l8.393-5.971c3.478-2.473 4.292-7.297 1.818-10.775z"/></g><path d="m374.411 218.333c-1.978 0-3.955-.754-5.464-2.263-2.969-2.97-6.918-4.605-11.117-4.605-4.2 0-8.148 1.636-11.119 4.605-3.017 3.018-7.909 3.018-10.927 0s-3.017-7.909.001-10.927c5.888-5.888 13.717-9.131 22.044-9.131s16.156 3.243 22.044 9.131c3.017 3.018 3.017 7.909-.001 10.927-1.506 1.508-3.484 2.263-5.461 2.263z" fill="#eaac9d"/><path d="m299.882 314.973c-14.268 0-27.076-9.541-31.151-23.203-1.219-4.089 1.108-8.392 5.196-9.612 4.093-1.222 8.392 1.107 9.613 5.196 2.136 7.163 8.856 12.165 16.342 12.165 7.495 0 14.214-4.999 16.34-12.157 1.214-4.091 5.518-6.421 9.606-5.208 4.091 1.215 6.423 5.516 5.207 9.606-4.057 13.669-16.868 23.213-31.153 23.213z" fill="#eaa598"/><g><path d="m421.108 159.329c-49.706-42.454-116.132-54.692-175.48-36.695-24.003 7.283-46.852 19.522-66.972 36.695 5.419-32.945 32.605-62.47 66.972-77.923 16.926-7.623 35.582-11.816 54.249-11.332 56.567-1.473 113.134 40.085 121.231 89.255z" fill="#ffc250"/><path d="m245.628 81.407v41.228c-24.003 7.283-46.852 19.522-66.972 36.695 5.419-32.946 32.605-62.471 66.972-77.923z" fill="#e7a52e"/></g><g><ellipse cx="273.308" cy="89.178" fill="#ffc250" rx="19.742" ry="33.94" transform="matrix(.707 -.707 .707 .707 16.992 219.377)"/><path d="m297.31 113.182c-13.094 3.575-27.681.237-37.962-10.044s-13.619-24.869-10.034-37.962c2.977 6.531 10.745 16.689 21.026 26.97s20.439 18.048 26.97 21.036z" fill="#e7a52e"/><ellipse cx="326.457" cy="89.178" fill="#ffc250" rx="33.94" ry="19.742" transform="matrix(.707 -.707 .707 .707 32.559 256.96)"/><path d="m302.45 113.175c-3.575-13.094-.237-27.681 10.044-37.962s24.869-13.619 37.962-10.034c-6.531 2.977-16.689 10.745-26.97 21.026s-18.049 20.439-21.036 26.97z" fill="#e7a52e"/><ellipse cx="299.882" cy="51.873" fill="#ffc250" rx="19.742" ry="33.94"/><path d="m299.875 85.817c-11.786-6.731-19.741-19.406-19.741-33.946s7.955-27.215 19.748-33.938c-2.513 6.723-4.203 19.398-4.203 33.938s1.69 27.215 4.196 33.946z" fill="#e7a52e"/></g><path d="m54.094 446.843h-5.26c-12.759 0-23.102 10.343-23.102 23.102v18.953c0 12.759 10.343 23.102 23.102 23.102h5.26c12.759 0 23.102-10.343 23.102-23.102v-18.953c0-12.759-10.343-23.102-23.102-23.102z" fill="#ffddce"/><path d="m62.252 510.511c-2.534.958-5.285 1.483-8.159 1.483h-5.264c-12.754 0-23.097-10.343-23.097-23.097v-18.955c0-12.754 10.343-23.097 23.097-23.097h5.264c2.874 0 5.625.525 8.159 1.483-8.726 3.297-14.938 11.734-14.938 21.613v18.955c0 9.881 6.212 18.319 14.938 21.615z" fill="#ffcbbe"/><g><ellipse cx="51.464" cy="123.102" fill="#ffc250" rx="23.233" ry="39.942"/><path d="m51.456 163.048c-13.87-7.921-23.232-22.837-23.232-39.948s9.361-32.028 23.24-39.94c-2.958 7.912-4.946 22.829-4.946 39.94s1.989 32.027 4.938 39.948z" fill="#e7a52e"/><g><ellipse cx="27.465" cy="154.405" fill="#ffc250" rx="19.742" ry="33.94" transform="matrix(.707 -.707 .707 .707 -101.137 64.645)"/><path d="m51.468 178.409c-13.094 3.575-27.681.237-37.962-10.044-10.282-10.281-13.619-24.869-10.034-37.962 2.977 6.531 10.745 16.689 21.026 26.97s20.438 18.049 26.97 21.036z" fill="#e7a52e"/><ellipse cx="75.464" cy="154.405" fill="#ffc250" rx="33.94" ry="19.742" transform="matrix(.707 -.707 .707 .707 -87.078 98.585)"/><path d="m51.456 178.402c-3.575-13.094-.237-27.681 10.044-37.962s24.869-13.619 37.962-10.034c-6.531 2.977-16.689 10.745-26.97 21.026s-18.048 20.439-21.036 26.97z" fill="#e7a52e"/></g></g></g></svg>