<svg id="Capa_1" enable-background="new 0 0 512 512" height="512" viewBox="0 0 512 512" width="512" xmlns="http://www.w3.org/2000/svg"><g><path d="m281.558 449.329 178.325-24.868c23.547 0 42.635-19.087 42.635-42.635 0-11.774-4.769-22.43-12.492-30.152-7.713-7.713-18.369-12.482-30.143-12.482h-51.933l-117.457-135.377v-166.008h-183.15v227.47c-25.373 18.968-41.806 49.25-41.806 83.373 0 29.893 12.612 56.843 32.807 75.81" fill="#ffddce"/><path d="m502.518 381.826c0 23.547-19.087 42.635-42.635 42.635l-144.142 34.012-217.398-34.012c-20.195-18.968-32.807-45.917-32.807-75.81 0-5.767.469-11.425 1.377-16.932 3.762 23.068 15.126 43.583 31.43 58.898h361.54c17.531 0 32.597-10.586 39.142-25.712 2.246 5.187 3.493 10.905 3.493 16.921z" fill="#ffcbbe"/><path d="m151.075 287.518c-12.482 17.162-19.845 38.284-19.845 61.133 0 29.893 12.612 56.843 32.806 75.81h-65.693c-20.195-18.967-32.806-45.917-32.806-75.81 0-34.124 16.433-64.406 41.806-83.373v-227.47h65.693v183.359c0 23.896-7.893 47.024-21.961 66.351z" fill="#ffcbbe"/><path d="m465.689 334.726v89.738h-57.736v-89.738c0-9.245 7.502-16.757 16.757-16.757h24.222c9.255 0 16.757 7.512 16.757 16.757z" fill="#ffc250"/><path d="m305.873 127.83v15.616c0 11.898-9.653 21.551-21.56 21.551h-170.796c-11.907 0-21.551-9.653-21.551-21.551v-15.616c0-11.907 9.644-21.56 21.551-21.56h170.796c11.906-.001 21.56 9.653 21.56 21.56z" fill="#ffc250"/><path d="m465.689 390.218v33.848c-1.901.269-9.213 19.606-11.179 19.606l-21.278 6.476-25.279-25.683v-33.848h51.931c1.966-.001 3.913-.13 5.805-.399z" fill="#e7a52e"/><path d="m173.033 106.269v58.728h-59.516c-11.907 0-21.551-9.653-21.551-21.551v-15.616c0-11.907 9.644-21.56 21.551-21.56h59.516z" fill="#e7a52e"/><g><path d="m0 195.074v7.624c0 27.53 22.317 49.846 49.846 49.846v7.624c0 27.529 22.317 49.846 49.846 49.846v7.624c0 27.53 22.317 49.847 49.847 49.847h68.41v-68.544c0-57.365-46.503-103.868-103.868-103.868h-114.081z" fill="#ffc250"/><g fill="#e7a52e"><path d="m193.953 367.486h-44.413c-27.53 0-49.842-22.323-49.842-49.853v-7.622c-27.53 0-49.853-22.323-49.853-49.842v-7.633c-27.53 0-49.842-22.312-49.842-49.841v-7.622h44.413v7.622c0 27.53 22.312 49.841 49.842 49.841v7.633c0 27.518 22.323 49.842 49.842 49.842v7.622c0 27.53 22.323 49.853 49.853 49.853z"/><path d="m159.377 267.989h-93.83c-4.267 0-7.726-3.459-7.726-7.726s3.459-7.726 7.726-7.726h93.83c4.267 0 7.726 3.459 7.726 7.726s-3.459 7.726-7.726 7.726z"/><path d="m177.06 325.46h-61.667c-4.267 0-7.726-3.459-7.726-7.726s3.459-7.726 7.726-7.726h61.667c4.267 0 7.726 3.459 7.726 7.726 0 4.266-3.459 7.726-7.726 7.726z"/></g></g><path d="m375.237 281.145-116.63 109.471-36.064 33.848h-85.796l36.055-33.848 30.658-28.775 42.889-40.274 88.699-83.237c6.111-5.749 15.718-5.444 21.459.677l19.409 20.67c5.738 6.121 5.432 15.728-.679 21.468z" fill="#ffc250"/><path d="m172.801 390.616h85.806l-36.064 33.848-50.196 24.758-35.601-24.758z" fill="#e7a52e"/><path d="m487.136 424.464h-411.155c-13.732 0-24.864 11.132-24.864 24.864 0 13.732 11.132 24.864 24.864 24.864h411.155c13.732 0 24.864-11.132 24.864-24.864 0-13.732-11.132-24.864-24.864-24.864z" fill="#ffc250"/><path d="m125.934 466.911c4.498 4.498 10.72 7.28 17.582 7.28h-67.538c-6.872 0-13.085-2.782-17.582-7.28-4.498-4.497-7.28-10.72-7.28-17.582 0-13.734 11.128-24.862 24.862-24.862h67.538c-13.734 0-24.862 11.128-24.862 24.862 0 6.862 2.782 13.084 7.28 17.582z" fill="#e7a52e"/></g></svg>