<svg id="Capa_1" enable-background="new 0 0 512 512" height="512" viewBox="0 0 512 512" width="512" xmlns="http://www.w3.org/2000/svg"><g><path d="m242.612 468.748 66.456 13.417 26.063 29.83h-130.821c9.91-16.751 22.952-31.43 38.302-43.247z" fill="#ede6e3"/><path d="m465.943 511.995h-130.811l29.346-37.03 63.174-6.217c15.349 11.817 28.391 26.507 38.291 43.247z" fill="#ede6e3"/><path d="m48.072 443.819-9.613-28.839c-8.337-25.012-6.639-52.283 4.736-76.068 2.16-4.516 8.406-4.981 11.211-.835l17.304 25.58 19.69-70.884c1.739-6.259 10.581-6.35 12.448-.128l16.739 55.798c5.014 16.713 5.645 34.434 1.833 51.461l-9.602 42.887" fill="#e04b66"/><path d="m.162 424.271c10.241 34.084 41.847 58.922 79.267 58.922s69.025-24.838 79.267-58.922z" fill="#ffc250"/><path d="m103.175 479.731c-7.52 2.256-15.494 3.461-23.745 3.461-37.426 0-69.032-24.838-79.272-58.926h47.501c7.983 26.569 28.937 47.513 55.516 55.465z" fill="#e7a52e"/><path d="m335.135 511.995 109.854-51.345c47.285-22.101 73.972-73.075 65.195-124.527l-5.772-33.833c-6.104-35.783-9.173-72.017-9.173-108.317v-33.868c.001-88.424-71.68-160.105-160.104-160.105-88.424 0-160.105 71.681-160.105 160.105v33.868c0 36.299-3.068 72.534-9.173 108.317l-5.772 33.833c-8.777 51.452 17.91 102.426 65.195 124.527z" fill="#ede6e3"/><path d="m290.275 460.653 44.854 51.344-109.847-51.344c-47.295-22.107-73.977-73.08-65.2-124.527l5.769-33.831c6.109-35.788 9.179-72.019 9.179-108.322v-33.862c0-44.215 17.925-84.247 46.893-113.216 28.969-28.969 69.001-46.893 113.206-46.893-18.059 0-34.398 17.925-46.224 46.893-11.837 28.968-19.151 69.001-19.151 113.216v33.862c0 36.303-1.257 72.534-3.75 108.322l-2.359 33.831c-3.585 51.447 7.314 102.419 26.63 124.527z" fill="#d8cec9"/><path d="m486.979 320.847c0 54.846-44.452 99.298-99.298 99.298h-20.614l-27.487-11.644-36.394 11.644h-20.603c-27.423 0-52.25-11.115-70.216-29.082-17.966-17.966-29.082-42.793-29.082-70.216 0-5.202.587-10.26 1.71-15.123 7.613-33.017 13.629-66.374 17.534-99.958 5.666-48.737 46.667-85.659 95.744-85.659h73.719c49.077 0 90.068 36.921 95.744 85.669 3.904 33.573 9.921 66.93 17.534 99.947 1.122 4.863 1.709 9.921 1.709 15.124z" fill="#9d6b6b"/><path d="m302.801 391.067c17.966 17.966.385 29.082.385 29.082h-20.607c-27.423 0-52.25-11.116-70.216-29.082s-29.082-42.793-29.082-70.217c0-5.202.587-10.26 1.71-15.123 7.613-33.017 13.629-66.374 17.534-99.958 5.666-48.737 46.667-85.659 95.744-85.659h73.719c2.812 0 5.604.124 8.365.361-45.307 3.914-82.053 39.352-87.389 85.298-3.904 33.584-9.921 66.94-17.534 99.958-1.123 4.862-1.71 9.921-1.71 15.123-.001 27.424 11.115 52.251 29.081 70.217z" fill="#8b5e5e"/><path d="m286.765 489.383c-2.586 7.005-4.904 14.566-6.912 22.612h-75.543c9.91-16.751 22.942-31.441 38.302-43.247z" fill="#d8cec9"/><path d="m456.367 198.565v77.582c0 61.697-50.015 111.712-111.712 111.712h-19.038c-61.702 0-111.722-50.02-111.722-111.722v-2.559c0-23.441 7.318-46.298 20.933-65.381 10.765-15.102 27.701-24.498 46.049-25.765 1.422-.103 2.843-.154 4.275-.154h26.929c34.14 0 61.821-27.681 61.821-61.82l7.191 16.781c13.515 31.544 41.649 54.465 75.274 61.326z" fill="#ffddce"/><path d="m368.628 385.274c-7.716 1.7-15.741 2.586-23.972 2.586h-19.038c-61.702 0-111.722-50.02-111.722-111.722v-2.559c0-23.441 7.318-46.298 20.933-65.381 10.765-15.102 27.701-24.498 46.049-25.765v93.715c0 53.465 37.57 98.165 87.75 109.126z" fill="#ffcbbe"/><g fill="#2b4d66"><path d="m277.553 237.063c-2.924 0-5.626 1.292-7.841 3.462l-5.109-3.635c-3.479-2.475-8.302-1.659-10.775 1.817-2.474 3.477-1.66 8.301 1.817 10.775l8.393 5.971c0 .044-.005.087-.005.132 0 10.213 6.064 18.522 13.519 18.522 7.454 0 13.518-8.309 13.518-18.522.001-10.214-6.063-18.522-13.517-18.522z"/><path d="m416.441 238.707c-2.473-3.476-7.297-4.292-10.775-1.817l-5.109 3.635c-2.214-2.17-4.917-3.462-7.841-3.462-7.454 0-13.518 8.308-13.518 18.521s6.064 18.522 13.518 18.522c7.455 0 13.519-8.309 13.519-18.522 0-.045-.005-.087-.005-.132l8.393-5.971c3.478-2.473 4.291-7.297 1.818-10.774z"/></g><path d="m294.933 218.331c-1.977 0-3.955-.754-5.463-2.263-6.13-6.129-16.105-6.13-22.236 0-3.017 3.018-7.909 3.018-10.927 0-3.017-3.018-3.017-7.909.001-10.927 12.156-12.156 31.934-12.154 44.088 0 3.018 3.017 3.018 7.909.001 10.927-1.51 1.508-3.488 2.263-5.464 2.263z" fill="#eaac9d"/><path d="m409.663 218.331c-1.978 0-3.955-.754-5.464-2.263-2.969-2.97-6.918-4.605-11.117-4.605s-8.148 1.635-11.117 4.605c-3.018 3.017-7.91 3.018-10.927 0-3.018-3.017-3.018-7.909-.001-10.927 5.888-5.888 13.717-9.131 22.044-9.131s16.156 3.243 22.044 9.131c3.017 3.018 3.017 7.909-.001 10.927-1.506 1.508-3.484 2.263-5.461 2.263z" fill="#eaac9d"/><path d="m335.135 314.97c-14.268 0-27.077-9.541-31.15-23.203-1.219-4.089 1.108-8.392 5.197-9.612 4.092-1.22 8.392 1.108 9.612 5.197 2.135 7.162 8.855 12.165 16.341 12.165 7.495 0 14.214-4.999 16.34-12.157 1.213-4.091 5.516-6.423 9.606-5.208 4.091 1.215 6.423 5.516 5.207 9.606-4.058 13.668-16.868 23.212-31.153 23.212z" fill="#eaa598"/><g><path d="m102.177 473.125h-45.495c-10.734 0-19.435 8.701-19.435 19.435 0 10.734 8.701 19.435 19.435 19.435h45.495c10.734 0 19.435-8.701 19.435-19.435 0-10.734-8.702-19.435-19.435-19.435z" fill="#ffddce"/><path d="m71.506 506.312c3.514 3.514 8.376 5.688 13.742 5.688h-28.571c-5.366 0-10.229-2.174-13.742-5.688-3.514-3.524-5.688-8.386-5.688-13.752 0-10.732 8.698-19.43 19.43-19.43h28.571c-10.732 0-19.44 8.698-19.44 19.43 0 5.366 2.174 10.228 5.698 13.752z" fill="#ffcbbe"/></g><path d="m303.186 385.325h63.881v34.82h-63.881z" fill="#ffcbbe"/></g></svg>