<svg id="Capa_1" enable-background="new 0 0 512 512" height="512" viewBox="0 0 512 512" width="512" xmlns="http://www.w3.org/2000/svg"><g><path d="m209.632 90.913v359.822c-60.544 0-109.621-49.078-109.621-109.621v-197.229h-28.795c-19.625 0-36.18-13.155-41.31-31.142-1.071-3.75-1.648-7.716-1.648-11.816v-3.637h-16.738c-4.305 0-8.076-2.899-9.17-7.063-1.534-5.836-2.35-11.962-2.35-18.279 0-19.872 8.056-37.859 21.077-50.87 13.012-13.022 30.999-21.078 50.861-21.078h46.78c50.21 0 90.914 40.703 90.914 90.913z" fill="#b3e59f"/><path d="m129.411 143.885h-58.195c-23.725 0-42.959-19.233-42.959-42.959v-3.636h-16.737c-4.305 0-8.076-2.899-9.17-7.063-1.534-5.836-2.35-11.962-2.35-18.279 0-19.872 8.056-37.859 21.077-50.87 13.012-13.022 30.998-21.078 50.86-21.078h46.781c2.009 0 3.997.062 5.975.196-17.699 1.329-33.605 9.066-45.421 20.882-13.021 13.011-21.077 30.998-21.077 50.87 0 8.922 1.628 17.462 4.605 25.343h23.653v3.637c0 23.724 19.233 42.957 42.958 42.957z" fill="#95d6a4"/><path d="m209.639 445.046v5.687c-60.544 0-109.632-49.078-109.632-109.621v-197.229h17.575c9.593 0 17.369 7.776 17.369 17.369v179.86c0 48.325 31.277 89.347 74.688 103.934z" fill="#95d6a4"/><path d="m512 71.948c0 6.315-.814 12.445-2.349 18.276-1.092 4.172-4.862 7.067-9.169 7.067h-16.74v3.637c0 4.1-.577 8.066-1.648 11.816-5.13 17.987-21.685 31.142-41.31 31.142h-28.794v197.228c0 60.544-49.078 109.621-109.621 109.621v-359.822c-.001-50.211 40.702-90.913 90.913-90.913h46.78c19.862 0 37.849 8.056 50.86 21.077 13.022 13.012 21.078 30.999 21.078 50.871z" fill="#b3e59f"/><path d="m442.246.031c-49.088 1.288-88.493 41.485-88.493 90.883v347.047c-15.319 8.159-32.811 12.774-51.385 12.774v-359.822c0-50.211 40.703-90.913 90.914-90.913h46.78c.732 0 1.463.01 2.184.031z" fill="#95d6a4"/><g fill="#2b4d66"><path d="m46.177 37.663c-7.455 0-13.519 8.309-13.519 18.522s6.064 18.522 13.519 18.522c7.454 0 13.518-8.309 13.518-18.522s-6.064-18.522-13.518-18.522z"/><ellipse cx="106.529" cy="56.185" rx="13.519" ry="18.522"/></g><path d="m131.369 125.064c0 4.265-3.451 7.726-7.726 7.726-4.265 0-7.726-3.461-7.726-7.726 0-6.799-5.522-12.321-12.311-12.321h-73.7c-1.071-3.75-1.648-7.716-1.648-11.816v-3.637h75.348c15.308 0 27.763 12.455 27.763 27.774z" fill="#95d6a4"/><path d="m94.645 36.05c-3.576 0-6.787-2.497-7.552-6.136-.879-4.176 1.793-8.274 5.969-9.152l17.357-3.654c4.175-.883 8.274 1.793 9.152 5.968.879 4.176-1.793 8.274-5.969 9.152l-17.357 3.654c-.537.113-1.073.168-1.6.168z" fill="#7dc283"/><path d="m59.48 36.05c-.528 0-1.063-.054-1.6-.168l-17.357-3.654c-4.176-.879-6.848-4.976-5.969-9.152.878-4.177 4.984-6.846 9.152-5.968l17.357 3.654c4.176.879 6.848 4.976 5.969 9.152-.765 3.639-3.977 6.136-7.552 6.136z" fill="#7dc283"/><g fill="#2b4d66"><path d="m465.823 37.663c-7.454 0-13.518 8.309-13.518 18.522s6.064 18.522 13.518 18.522c7.455 0 13.519-8.309 13.519-18.522s-6.064-18.522-13.519-18.522z"/><ellipse cx="405.471" cy="56.185" rx="13.519" ry="18.522"/></g><path d="m483.742 97.29v3.637c0 4.1-.577 8.066-1.648 11.816h-73.699c-6.789 0-12.311 5.522-12.311 12.321 0 4.265-3.461 7.726-7.726 7.726-4.275 0-7.726-3.461-7.726-7.726 0-15.319 12.455-27.774 27.763-27.774z" fill="#95d6a4"/><path d="m417.355 36.05c-.528 0-1.063-.054-1.6-.168l-17.357-3.654c-4.176-.879-6.848-4.976-5.969-9.152.878-4.177 4.988-6.846 9.152-5.968l17.357 3.654c4.176.879 6.848 4.976 5.969 9.152-.765 3.639-3.976 6.136-7.552 6.136z" fill="#7dc283"/><path d="m452.52 36.05c-3.576 0-6.787-2.497-7.552-6.136-.879-4.176 1.793-8.274 5.969-9.152l17.357-3.654c4.172-.883 8.274 1.793 9.152 5.968.879 4.176-1.793 8.274-5.969 9.152l-17.357 3.654c-.537.113-1.073.168-1.6.168z" fill="#7dc283"/><path d="m310.816 257.411v199.773c0 15.133-6.14 28.845-16.061 38.766-9.92 9.91-23.622 16.05-38.755 16.05-30.267 0-54.816-24.539-54.816-54.816v-199.773" fill="#b3e59f"/><path d="m276.047 508.219c-6.212 2.442-12.98 3.781-20.047 3.781-30.267 0-54.816-24.539-54.816-54.816v-199.773h40.085v199.773c0 23.2 14.422 43.041 34.778 51.035z" fill="#95d6a4"/><path d="m358.256 188.533c0 18.152-6.562 34.779-17.451 47.615-1.308 1.556-2.689 3.049-4.131 4.491-2.606 2.607-5.408 5.017-8.376 7.211-12.228 9.035-27.362 14.371-43.731 14.371h-57.134c-16.37 0-31.503-5.337-43.731-14.371-4.615-3.41-8.808-7.335-12.507-11.703-10.889-12.836-17.451-29.463-17.451-47.615 0-20.346 8.241-38.766 21.582-52.107 13.331-13.33 31.761-21.582 52.107-21.582h57.134c40.702.002 73.689 32.998 73.689 73.69z" fill="#b3e59f"/><path d="m288.21 262.141c-1.205.052-2.421.082-3.637.082h-57.143c-40.692 0-73.689-32.986-73.689-73.689 0-20.346 8.252-38.766 21.582-52.107 13.341-13.33 31.761-21.582 52.107-21.582h57.144c1.216 0 2.431.031 3.637.082-18.904.927-35.943 8.973-48.47 21.5-13.341 13.341-21.582 31.761-21.582 52.107-.001 39.488 31.038 71.701 70.051 73.607z" fill="#95d6a4"/><path d="m340.805 236.148c-1.308 1.556-2.689 3.049-4.131 4.491-2.606 2.607-5.408 5.017-8.376 7.211l-.937-3.307c-3.431-12.166-14.659-20.655-27.32-20.655h-88.08c-12.661 0-23.89 8.489-27.32 20.655l-.937 3.307c-4.615-3.41-8.808-7.335-12.507-11.703 6.521-16.514 22.716-27.712 40.764-27.712h88.08c18.048.002 34.242 11.2 40.764 27.713z" fill="#95d6a4"/><g fill="#2b4d66"><path d="m300.05 158.587c-7.454 0-13.518 8.309-13.518 18.522s6.064 18.522 13.518 18.522c7.455 0 13.519-8.309 13.519-18.522s-6.064-18.522-13.519-18.522z"/><path d="m211.95 158.587c-7.455 0-13.519 8.309-13.519 18.522s6.064 18.522 13.519 18.522c7.454 0 13.518-8.309 13.518-18.522s-6.065-18.522-13.518-18.522z"/></g><g fill="#7dc283"><path d="m221.693 155.268c-.528 0-1.062-.054-1.6-.167l-17.358-3.654c-4.176-.879-6.848-4.977-5.969-9.152.879-4.176 4.978-6.845 9.152-5.969l17.358 3.654c4.176.879 6.848 4.977 5.969 9.152-.765 3.638-3.976 6.136-7.552 6.136z"/><path d="m290.307 155.268c-3.576 0-6.787-2.497-7.552-6.136-.879-4.176 1.793-8.273 5.969-9.152l17.358-3.654c4.174-.877 8.274 1.794 9.152 5.969.879 4.176-1.793 8.273-5.969 9.152l-17.358 3.654c-.537.112-1.073.167-1.6.167z"/></g></g></svg>