<svg id="Capa_1" enable-background="new 0 0 512 512" height="512" viewBox="0 0 512 512" width="512" xmlns="http://www.w3.org/2000/svg"><g><path d="m490.739 89.083c-11.742 0-21.261 9.519-21.261 21.261v189.426h-42.521v-115.165c0-11.742-9.518-21.261-21.261-21.261s-21.261 9.518-21.261 21.261v199.832h-111.577c-11.742 0-21.261 9.518-21.261 21.261s9.518 21.261 21.261 21.261h132.838c11.742 0 21.261-9.518 21.261-21.261v-63.406h42.521v127.188h-426.956v-426.959h222.141v42.521h-158.359c-11.742 0-21.261 9.518-21.261 21.261v299.394c0 11.742 9.518 21.261 21.261 21.261h85.042c11.742 0 21.261-9.518 21.261-21.261v-63.782h108.047c11.742 0 21.261-9.518 21.261-21.261v-129.308c0-11.742-9.518-21.261-21.261-21.261s-21.261 9.518-21.261 21.261v108.048h-86.786v-86.788h33.725c11.742 0 21.261-9.518 21.261-21.261 0-11.742-9.518-21.261-21.261-21.261h-54.986c-11.742 0-21.261 9.518-21.261 21.261v193.091h-42.521v-256.872h278.132c11.742 0 21.261-9.518 21.261-21.261s-9.518-21.261-21.261-21.261h-98.512v-42.521h183.555c11.742 0 21.261-9.518 21.261-21.261-.001-11.741-9.519-21.26-21.261-21.26h-469.478c-11.742 0-21.26 9.519-21.26 21.261v469.479c0 11.741 9.518 21.26 21.26 21.26h469.478c11.742 0 21.261-9.519 21.261-21.261v-380.395c-.001-11.742-9.519-21.261-21.261-21.261z" fill="#698ed5"/><g fill="#4073c8"><path d="m170.086 191.346v193.091h21.925v-193.091c0-11.742 9.518-21.261 21.261-21.261h-21.925c-11.743 0-21.261 9.519-21.261 21.261z"/><path d="m299.393 191.346v108.048h21.925v-108.048c0-7.726 4.135-14.469 10.298-18.191-3.204-1.935-6.946-3.069-10.963-3.069-11.741-.001-21.26 9.518-21.26 21.26z"/><path d="m384.436 184.605v199.831h21.925v-199.831c0-7.726 4.135-14.469 10.298-18.191-3.204-1.935-6.946-3.069-10.963-3.069-11.742-.001-21.26 9.518-21.26 21.26z"/><path d="m272.858 426.958h21.925c-11.742 0-21.261-9.519-21.261-21.261s9.518-21.261 21.261-21.261h-21.925c-11.742 0-21.261 9.519-21.261 21.261s9.519 21.261 21.261 21.261z"/><path d="m469.478 110.344v189.426h21.925v-189.426c0-7.725 4.135-14.468 10.298-18.191-3.204-1.936-6.946-3.069-10.962-3.069-11.742-.001-21.261 9.518-21.261 21.26z"/><path d="m469.478 342.291h21.925v127.188h-21.925z"/><path d="m21.926 490.739v-469.478c0-11.742 9.518-21.261 21.26-21.261h-21.925c-11.742 0-21.26 9.519-21.26 21.261v469.479c0 11.741 9.518 21.26 21.26 21.26h21.925c-11.742 0-21.26-9.519-21.26-21.261z"/><path d="m106.304 426.958h21.925c-11.742 0-21.261-9.519-21.261-21.261v-299.394c0-11.742 9.518-21.261 21.261-21.261h-21.925c-11.742 0-21.261 9.518-21.261 21.261v299.394c0 11.742 9.519 21.261 21.261 21.261z"/></g></g></svg>