<svg id="Capa_1" enable-background="new 0 0 512 512" height="512" viewBox="0 0 512 512" width="512" xmlns="http://www.w3.org/2000/svg"><g><g fill="#e04b66"><path d="m500.543 350.204h-12.546l-17.159-17.159c-3.018-3.017-7.909-3.017-10.928 0-3.017 3.017-3.017 7.909 0 10.927l17.16 17.16v12.546c0 4.267 3.459 7.726 7.726 7.726s7.726-3.459 7.726-7.726v-8.02h8.02c4.268 0 7.726-3.459 7.726-7.726.002-4.269-3.457-7.728-7.725-7.728z"/><path d="m483.182 448.139h-12.545l-15.687-15.687c-3.018-3.017-7.909-3.017-10.928 0-3.017 3.017-3.017 7.909 0 10.927l15.687 15.687v12.546c0 4.267 3.459 7.726 7.726 7.726s7.726-3.459 7.726-7.726v-8.02h8.019c4.268 0 7.726-3.459 7.726-7.726.002-4.268-3.456-7.727-7.724-7.727z"/><path d="m49.896 335.238c-3.018-3.017-7.909-3.017-10.928 0l-14.966 14.966h-12.545c-4.268 0-7.726 3.459-7.726 7.726s3.459 7.726 7.726 7.726h8.02v8.02c0 4.267 3.459 7.726 7.726 7.726s7.726-3.459 7.726-7.726v-12.546l14.967-14.967c3.017-3.016 3.017-7.908 0-10.925z"/><path d="m67.977 432.452c-3.018-3.017-7.909-3.017-10.928 0l-15.687 15.687h-12.544c-4.268 0-7.726 3.459-7.726 7.726s3.459 7.726 7.726 7.726h8.019v8.02c0 4.267 3.459 7.726 7.726 7.726s7.726-3.459 7.726-7.726v-12.546l15.687-15.687c3.018-3.016 3.018-7.909.001-10.926z"/></g><path d="m385.829 448.674c14.595 0 26.426-11.831 26.426-26.426s-11.831-26.426-26.426-26.426c-21.279 0-38.59-17.312-38.59-38.59v-110.467c0-35.655-29.007-64.661-64.661-64.661h-26.443c-14.595 0-26.426 11.831-26.426 26.426s11.831 26.426 26.426 26.426h26.443c6.512 0 11.809 5.298 11.809 11.809v110.467c-.001 50.421 41.021 91.442 91.442 91.442z" fill="#95d6a4"/><path d="m438.681 448.674c14.595 0 26.426-11.831 26.426-26.426s-11.831-26.426-26.426-26.426c-21.279 0-38.59-17.312-38.59-38.59v-110.467c0-35.655-29.007-64.661-64.661-64.661h-26.443c-14.595 0-26.426 11.831-26.426 26.426s11.831 26.426 26.426 26.426h26.443c6.512 0 11.809 5.298 11.809 11.809v110.467c0 50.421 41.021 91.442 91.442 91.442z" fill="#b3e59f"/><path d="m447.097 447.302c-2.643.898-5.475 1.374-8.414 1.374-50.421 0-91.445-41.024-91.445-91.445v-110.461c0-6.511-5.296-11.807-11.807-11.807h24.249c6.511 0 11.818 5.296 11.818 11.807v110.461c0 45.02 32.694 82.545 75.599 90.071z" fill="#95d6a4"/><path d="m454.923 351.114c14.595 0 26.426-11.831 26.426-26.426s-11.831-26.426-26.426-26.426c-11.953 0-21.677-9.724-21.677-21.677v-127.381c0-35.654-29.007-64.661-64.661-64.661h-26.443c-14.595 0-26.426 11.831-26.426 26.426s11.831 26.426 26.426 26.426h26.443c6.512 0 11.809 5.298 11.809 11.809v127.381c0 41.095 33.434 74.529 74.529 74.529z" fill="#b3e59f"/><path d="m462.767 349.94c-2.484.761-5.116 1.173-7.843 1.173-41.087 0-74.522-33.434-74.522-74.532l-39.152-109.935c0-6.521 33.866-29.255 27.345-29.255h-25.853c-14.819 0-27.3-12.128-27.016-26.944.276-14.358 11.996-25.908 26.421-25.908h26.447c.118 0 .237 0 .355.001 17.89.097 32.246 14.857 32.302 32.748.155 49.673.238 159.295.238 159.295.001 36.572 26.48 67.079 61.278 73.357z" fill="#95d6a4"/><path d="m439.791 429.974h-.528c-4.268 0-7.726-3.459-7.726-7.726s3.459-7.726 7.726-7.726h.528c4.268 0 7.726 3.459 7.726 7.726s-3.459 7.726-7.726 7.726z" fill="#2b4d66"/><path d="m453.93 332.414h-.528c-4.268 0-7.726-3.459-7.726-7.726s3.459-7.726 7.726-7.726h.528c4.268 0 7.726 3.459 7.726 7.726s-3.459 7.726-7.726 7.726z" fill="#2b4d66"/><path d="m126.171 448.674c-14.595 0-26.426-11.831-26.426-26.426s11.831-26.426 26.426-26.426c21.279 0 38.59-17.312 38.59-38.59v-110.467c0-35.655 29.007-64.661 64.661-64.661h26.443c14.595 0 26.426 11.831 26.426 26.426s-11.831 26.426-26.426 26.426h-26.443c-6.512 0-11.809 5.298-11.809 11.809v110.467c.001 50.421-41.021 91.442-91.442 91.442z" fill="#95d6a4"/><path d="m73.319 448.674c-14.595 0-26.426-11.831-26.426-26.426s11.831-26.426 26.426-26.426c21.279 0 38.59-17.312 38.59-38.59v-110.467c0-35.655 29.007-64.661 64.661-64.661h26.443c14.595 0 26.426 11.831 26.426 26.426s-11.831 26.426-26.426 26.426h-26.443c-6.512 0-11.809 5.298-11.809 11.809v110.467c0 50.421-41.021 91.442-91.442 91.442z" fill="#b3e59f"/><path d="m201.887 182.109c-35.654 0-64.66 29.005-64.66 64.659v110.461c0 21.278-17.314 38.593-38.593 38.593-14.598 0-26.426 11.828-26.426 26.426 0 11.522 7.368 21.321 17.653 24.925-5.359.983-10.898 1.501-16.543 1.501-14.587 0-26.426-11.828-26.426-26.426s11.839-26.426 26.426-26.426c21.289 0 38.593-17.314 38.593-38.593v-110.461c0-35.654 29.005-64.659 64.659-64.659z" fill="#95d6a4"/><path d="m57.077 351.114c-14.595 0-26.426-11.831-26.426-26.426s11.831-26.426 26.426-26.426c11.953 0 21.677-9.724 21.677-21.677v-127.381c0-35.654 29.007-64.661 64.661-64.661h26.443c14.595 0 26.426 11.831 26.426 26.426s-11.831 26.426-26.426 26.426h-26.443c-6.512 0 29.287 11.091 29.287 17.602l-41.096 121.587c0 41.096-33.434 74.53-74.529 74.53z" fill="#b3e59f"/><path d="m170.202 84.549c-35.358.338-64.025 29.206-64.025 64.649v127.384c0 11.955-9.725 21.68-21.68 21.68-14.598 0-26.426 11.828-26.426 26.426 0 10.993 6.712 20.422 16.268 24.407-5.539 1.321-11.321 2.019-17.262 2.019-14.598 0-26.426-11.839-26.426-26.426 0-14.598 11.828-26.426 26.426-26.426 11.955 0 21.68-9.725 21.68-21.68v-127.385c0-35.654 29.005-64.659 64.66-64.659h26.447c.116 0 .221 0 .338.011z" fill="#95d6a4"/><path d="m380.481 61.372v87.832l-9.18 13.931-110.215 7.208h-117.161l-12.315-21.138v-87.833c0-8.182 3.309-15.581 8.668-20.94s12.758-8.668 20.929-8.668c13.012 0 24.048 8.382 28.012 20.042.381 1.11.698 2.252.941 3.414v-22.293c0-9.101 3.689-17.325 9.64-23.287 5.962-5.962 14.197-9.64 23.287-9.64 3.848 0 7.537.655 10.972 1.881 12.779 4.514 21.944 16.701 21.944 31.045h.074c0-9.101 3.689-17.325 9.64-23.287 5.962-5.961 14.197-9.639 23.287-9.639 18.181 0 32.927 14.735 32.927 32.927v22.24c1.205-5.687 4.059-10.771 8.012-14.735 5.359-5.359 12.769-8.668 20.94-8.668 16.353 0 29.598 13.255 29.598 29.608z" fill="#b3e59f"/><path d="m161.212 31.764c5.232 0 10.147 1.364 14.418 3.742-2.4 1.332-4.587 2.992-6.522 4.926-5.359 5.359-8.668 12.758-8.668 20.94v127.198l-28.826-39.366v-87.832c0-8.182 3.308-15.581 8.668-20.94s12.759-8.668 20.93-8.668z" fill="#95d6a4"/><path d="m350.884 31.764c5.232 0 10.147 1.364 14.418 3.742-2.4 1.332-4.587 2.992-6.522 4.926-5.359 5.359-8.668 12.758-8.668 20.94v108.971h-28.826v-108.971c0-8.182 3.308-15.581 8.668-20.94s12.759-8.668 20.93-8.668z" fill="#95d6a4"/><path d="m234.059 1.881c-2.093 1.269-4.006 2.78-5.729 4.514-5.592 5.592-9.048 13.308-9.048 21.839v113.664h-29.122v-108.971c0-9.101 3.689-17.325 9.64-23.287 5.962-5.962 14.197-9.64 23.287-9.64 3.848 0 7.537.655 10.972 1.881z" fill="#95d6a4"/><path d="m299.976 1.881c-2.093 1.269-4.006 2.78-5.729 4.514-5.592 5.592-9.048 13.308-9.048 21.839v113.664h-29.122v-108.971c0-9.101 3.689-17.325 9.64-23.287 5.962-5.962 14.197-9.64 23.287-9.64 3.848 0 7.537.655 10.972 1.881z" fill="#95d6a4"/><path d="m389.929 512h-267.853c21.744-36.755 58.178-63.787 101.225-72.999v-56.674h65.403v56.674c43.047 9.212 79.481 36.244 101.225 72.999z" fill="#ffddce"/><path d="m242.187 382.323v56.678c-18.192 9.207-33.582 36.246-42.768 72.999h-77.343c21.743-36.753 58.179-63.792 101.222-72.999v-56.678z" fill="#ffcbbe"/><g fill="#ffcbbe"><circle cx="110.64" cy="266.647" r="41.873"/><circle cx="401.373" cy="266.647" r="41.873"/></g><path d="m136.768 277.728c-2.714 0-5.347-1.433-6.76-3.972-2.473-4.446-6.679-6.95-12.861-7.654-5.391-.615-10.102.472-10.148.483-4.145.975-8.308-1.575-9.302-5.71-.995-4.135 1.522-8.292 5.652-9.306.707-.174 7.12-1.671 14.972-.882 11.46 1.15 20.171 6.531 25.192 15.558 2.073 3.729.732 8.434-2.997 10.508-1.189.66-2.477.975-3.748.975z" fill="#eaac9d"/><path d="m375.245 277.728c-1.271 0-2.558-.314-3.748-.975-3.729-2.074-5.07-6.779-2.997-10.508 5.021-9.028 13.731-14.408 25.192-15.559 7.845-.788 14.265.709 14.971.882 4.144 1.017 6.679 5.201 5.662 9.345-1.015 4.134-5.182 6.666-9.315 5.67-.144-.033-4.812-1.092-10.145-.482-6.181.705-10.388 3.208-12.86 7.654-1.413 2.54-4.046 3.973-6.76 3.973z" fill="#eaac9d"/><path d="m380.4 149.204v120.798c0 63.306-51.319 114.625-114.625 114.625h-19.534c-63.306 0-114.636-51.319-114.636-114.625v-120.798c4.598 1.543 9.524 2.389 14.64 2.389 21.764 0 39.967-15.221 44.565-35.59 7.653 5.782 17.187 9.217 27.515 9.217 15.644 0 29.439-7.864 37.683-19.841 8.234 11.976 22.028 19.841 37.673 19.841 10.327 0 19.862-3.435 27.515-9.217 4.598 20.369 22.8 35.59 44.565 35.59 5.115 0 10.041-.846 14.639-2.389z" fill="#ffddce"/><path d="m290.372 381.974c-7.917 1.744-16.152 2.653-24.597 2.653h-19.534c-63.306 0-114.636-51.319-114.636-114.625v-120.798c4.598 1.543 9.524 2.389 14.64 2.389 21.764 0 39.967-15.221 44.565-35.59 2.917 2.198 6.12 4.069 9.524 5.528v148.471c0 54.86 38.55 100.725 90.038 111.972z" fill="#ffcbbe"/><g fill="#2b4d66"><path d="m196.923 229.901c-3.063 0-5.887 1.384-8.184 3.696l-5.219-3.713c-3.479-2.474-8.301-1.66-10.775 1.817s-1.66 8.301 1.817 10.775l8.508 6.053c-.002.125-.014.247-.014.373 0 10.477 6.22 19.001 13.867 19.001s13.868-8.524 13.868-19.001-6.222-19.001-13.868-19.001z"/><path d="m339.269 231.702c-2.473-3.476-7.297-4.291-10.775-1.817l-5.22 3.713c-2.297-2.313-5.122-3.697-8.185-3.697-7.647 0-13.867 8.524-13.867 19.001s6.22 19.001 13.867 19.001 13.868-8.524 13.868-19.001c0-.126-.012-.248-.014-.374l8.508-6.052c3.478-2.473 4.291-7.297 1.818-10.774z"/></g><path d="m303.436 222.507c-4.268 0-7.726-3.459-7.726-7.726s3.459-7.726 7.726-7.726c9.006 0 16.333-7.327 16.333-16.334 0-4.267 3.459-7.726 7.726-7.726s7.726 3.459 7.726 7.726c0 17.526-14.258 31.786-31.785 31.786z" fill="#eaac9d"/><path d="m209.773 222.507c-17.527 0-31.787-14.26-31.787-31.787 0-4.267 3.459-7.726 7.726-7.726 4.268 0 7.726 3.459 7.726 7.726 0 9.007 7.327 16.334 16.334 16.334 4.268 0 7.726 3.459 7.726 7.726s-3.458 7.727-7.725 7.727z" fill="#eaac9d"/><path d="m256.006 309.636c-14.55 0-27.615-9.731-31.77-23.664-1.219-4.089 1.108-8.392 5.196-9.612 4.091-1.22 8.392 1.108 9.613 5.197 2.216 7.435 9.191 12.627 16.961 12.627 7.779 0 14.753-5.189 16.959-12.618 1.215-4.091 5.517-6.422 9.606-5.208 4.091 1.215 6.423 5.516 5.207 9.606-4.139 13.937-17.204 23.672-31.772 23.672z" fill="#e04b66"/><path d="m72.737 429.974h-.528c-4.268 0-7.726-3.459-7.726-7.726s3.459-7.726 7.726-7.726h.528c4.268 0 7.726 3.459 7.726 7.726.001 4.267-3.458 7.726-7.726 7.726z" fill="#2b4d66"/><path d="m58.599 332.414h-.529c-4.268 0-7.726-3.459-7.726-7.726s3.459-7.726 7.726-7.726h.528c4.268 0 7.726 3.459 7.726 7.726.001 4.267-3.458 7.726-7.725 7.726z" fill="#2b4d66"/><path d="m288.71 382.328v23.445c-7.41 1.501-15.084 2.294-22.938 2.294h-19.534c-7.854 0-15.528-.793-22.938-2.294v-23.445z" fill="#ffcbbe"/></g></svg>