<svg id="Capa_1" enable-background="new 0 0 512 512" height="512" viewBox="0 0 512 512" width="512" xmlns="http://www.w3.org/2000/svg"><g><path d="m195.955 511.995h-91.88c-51.232 0-87.185-50.501-70.419-98.911l30.141-87.026 36.445-24.569 31.315 24.569z" fill="#ffc250"/><path d="m145.872 512h-41.794c-51.24 0-87.193-50.499-70.422-98.916l30.143-87.018 20.057-13.072 21.737 13.072-30.143 87.018c-16.771 48.417 19.182 98.916 70.422 98.916z" fill="#e7a52e"/><path d="m401.913 242.814v51.812c22.432 4.599 39.631 24.189 40.56 47.659.446 11.281-2.792 21.784-8.608 30.405 18.653 10.552 31.328 30.436 31.649 53.319.487 34.725-28.494 63.143-63.223 63.143h-139.183c-35.221 0-63.774-28.553-63.774-63.774l2.707-142.485" fill="#b3e59f"/><path d="m397.725 426.012c.488 34.725-28.498 63.142-63.223 63.142h-65.451c-35.213 0-63.772-28.549-63.772-63.772l2.706-142.491 126.141-25.293v37.024c22.424 4.599 39.629 24.194 40.555 47.666.448 11.273-2.788 21.783-8.607 30.401 18.648 10.551 31.325 30.441 31.651 53.323z" fill="#95d6a4"/><path d="m452.422 511.995h-63.619l-31.912-10.926-34.402 10.926-33.771-9.898-32.542 9.898h-12.18l-51.884-15.722s20.18-9.495 31.596-19.719c19.025-17.039 42.435-29.281 68.331-34.822v-54.55h62.952v54.55c41.433 8.866 76.502 34.885 97.431 70.263z" fill="#ffddce"/><path d="m310.216 387.177v54.554c-17.51 8.862-32.324 34.888-41.165 70.264h-25.056l-51.884-15.722s20.18-9.495 31.595-19.719c19.025-17.04 42.435-29.284 68.328-34.822v-54.554h18.182z" fill="#ffcbbe"/><path d="m289.332 478.838c-18.312 0-33.157 14.845-33.157 33.157h66.314c0-18.312-14.845-33.157-33.157-33.157z" fill="#eca900"/><path d="m301.176 481.014c-12.463 4.772-21.315 16.838-21.315 30.981h-23.686c0-18.314 14.844-33.158 33.158-33.158 4.171 0 8.17.773 11.843 2.177z" fill="#e7a52e"/><path d="m355.646 478.838c-18.312 0-33.157 14.845-33.157 33.157h66.314c0-18.312-14.845-33.157-33.157-33.157z" fill="#eca900"/><path d="m367.49 481.014c-12.464 4.772-21.315 16.838-21.315 30.981h-23.686c0-18.314 14.844-33.158 33.158-33.158 4.171 0 8.17.773 11.843 2.177z" fill="#e7a52e"/><g><circle cx="463.437" cy="275.836" fill="#ffcbbe" r="40.304"/></g><path d="m438.095 286.791c-1.271 0-2.559-.314-3.748-.975-3.729-2.074-5.071-6.779-2.997-10.508 4.881-8.776 13.343-14.006 24.472-15.123 7.602-.765 13.823.688 14.508.856 4.144 1.017 6.679 5.201 5.662 9.345-1.014 4.134-5.176 6.665-9.313 5.67-.143-.033-4.595-1.039-9.68-.456-5.843.669-9.815 3.031-12.144 7.219-1.414 2.54-4.046 3.972-6.76 3.972z" fill="#eaac9d"/><path d="m443.25 153.266v125.8c0 60.934-49.396 110.33-110.33 110.33h-18.802c-60.934 0-110.34-49.396-110.34-110.33v-125.8z" fill="#ffddce"/><path d="m356.596 386.841c-7.621 1.679-15.546 2.554-23.676 2.554h-18.802c-60.934 0-110.34-49.396-110.34-110.33v-125.8h66.153v125.8c0 52.805 37.106 96.951 86.665 107.776z" fill="#ffcbbe"/><path d="m403.895 242.032c-2.474-3.478-7.298-4.29-10.775-1.817l-5.057 3.597c-2.174-2.103-4.819-3.35-7.677-3.35-7.363 0-13.353 8.207-13.353 18.294 0 10.088 5.99 18.294 13.353 18.294s13.353-8.207 13.353-18.294c0-.006-.001-.011-.001-.017l8.339-5.932c3.478-2.474 4.292-7.297 1.818-10.775z" fill="#2b4d66"/><path d="m397.124 227.147c-1.977 0-3.955-.755-5.463-2.263-6.017-6.017-15.807-6.017-21.824 0-3.017 3.017-7.909 3.017-10.927 0s-3.018-7.909 0-10.927c12.042-12.042 31.635-12.043 43.678 0 3.018 3.017 3.018 7.909 0 10.927-1.51 1.508-3.487 2.263-5.464 2.263z" fill="#eaac9d"/><path d="m323.518 317.503c-14.133 0-26.821-9.451-30.857-22.983-1.22-4.09 1.107-8.393 5.196-9.612 4.089-1.222 8.393 1.107 9.612 5.196 2.098 7.034 8.697 11.947 16.049 11.947 7.36 0 13.958-4.909 16.046-11.938 1.214-4.091 5.513-6.424 9.606-5.207 4.091 1.215 6.422 5.516 5.207 9.606-4.021 13.536-16.71 22.991-30.859 22.991z" fill="#e04b66"/><path d="m380.421.005c-22.292 0-42.813 7.572-59.14 20.278-16.328-12.707-36.849-20.278-59.141-20.278-53.228 0-96.377 43.15-96.377 96.377v415.613h78.232v-229.101c53.12-2 95.622-45.465 96.077-98.968 0 0 25.742 8.834 40.349 8.834 53.228 0 96.378-43.15 96.378-96.377-.001-53.229-43.151-96.378-96.378-96.378z" fill="#b3e59f"/><path d="m260.311 204.652v-107.116c0-36.262 19.8-68.269 49.262-85.061-13.999-7.942-30.193-12.475-47.438-12.475-53.229 0-96.372 43.154-96.372 96.382v415.608h78.231v-229.097c17.822-.669 34.449-6.016 48.696-14.845-19.615-14.206-32.379-37.312-32.379-63.396z" fill="#95d6a4"/><g fill="#e7a52e"><path d="m117.825 418.314c-6.264 0-11.974-2.414-16.249-6.361-4.275 3.947-9.985 6.361-16.249 6.361-13.22 0-23.975-10.756-23.975-23.975 0-4.267 3.459-7.726 7.726-7.726s7.726 3.459 7.726 7.726c0 4.699 3.823 8.523 8.523 8.523 4.699 0 8.523-3.823 8.523-8.523 0-4.267 3.459-7.726 7.726-7.726s7.726 3.459 7.726 7.726c0 4.699 3.823 8.523 8.523 8.523 4.699 0 8.523-3.823 8.523-8.523 0-4.267 3.459-7.726 7.726-7.726s7.726 3.459 7.726 7.726c0 13.219-10.755 23.975-23.975 23.975z"/><path d="m79.574 459.799c-13.22 0-23.975-10.756-23.975-23.976 0-4.267 3.459-7.726 7.726-7.726s7.726 3.459 7.726 7.726c0 4.7 3.823 8.523 8.523 8.523s8.523-3.823 8.523-8.523c0-4.267 3.459-7.726 7.726-7.726s7.726 3.459 7.726 7.726c0 13.221-10.755 23.976-23.975 23.976z"/><path d="m119.934 491.782c-13.22 0-23.975-10.756-23.975-23.975 0-4.267 3.459-7.726 7.726-7.726s7.726 3.459 7.726 7.726c0 4.699 3.823 8.523 8.523 8.523s8.523-3.823 8.523-8.523c0-4.267 3.459-7.726 7.726-7.726s7.726 3.459 7.726 7.726c0 13.219-10.755 23.975-23.975 23.975z"/></g><path d="m292.04 387.177h62.948v22.404h-62.948z" fill="#ffcbbe"/><g><path d="m168.167 235.109h24.569v24.569c0 37.514-30.411 67.925-67.925 67.925h-24.569v-24.569c0-37.514 30.411-67.925 67.925-67.925z" fill="#ffc250"/><path d="m192.74 235.105v.041c-36.519 1.133-65.776 31.09-65.776 67.888v24.528c-.711.031-1.432.041-2.153.041h-24.569v-24.569c0-37.518 30.41-67.929 67.929-67.929z" fill="#e7a52e"/><path d="m32.832 235.109h-24.569v24.569c0 37.514 30.411 67.925 67.925 67.925h24.569v-24.569c0-37.514-30.411-67.925-67.925-67.925z" fill="#ffc250"/><path d="m100.758 327.593v.01h-24.57c-37.519 0-67.929-30.41-67.929-67.929v-24.569h24.569c.258 0 .525 0 .783.01v24.559c.001 37.261 29.989 67.506 67.147 67.919z" fill="#e7a52e"/></g></g></svg>