<svg id="Capa_1" enable-background="new 0 0 512 512" height="512" viewBox="0 0 512 512" width="512" xmlns="http://www.w3.org/2000/svg"><g><g><path d="m420.138 512h-328.269c26.651-45.044 71.294-78.17 124.054-89.467v-69.446h80.148v69.446c52.76 11.297 97.416 44.423 124.067 89.467z" fill="#ffddce"/><g fill="#ffcbbe"><path d="m296.071 391.865v30.438c-9.086 1.848-18.496 2.818-28.125 2.818h-23.885c-9.642 0-19.051-.969-28.138-2.818v-30.438z"/><path d="m239.069 353.075v69.461c-22.294 11.283-41.156 44.421-52.414 89.463h-94.787c26.647-45.043 71.301-78.18 124.051-89.463v-69.461z"/></g></g><g fill="#8b5e5e"><path d="m384.4 102.384h-25.065v25.065c0 35.469 28.753 64.222 64.222 64.222h25.065v-25.065c.001-35.469-28.752-64.222-64.222-64.222z"/><path d="m127.6 102.384h25.065v25.065c0 35.469-28.753 64.222-64.222 64.222h-25.066v-25.065c0-35.469 28.754-64.222 64.223-64.222z"/></g><path d="m416.376 260.624c0 22.737-17.74 41.33-40.137 42.694v14.022c0 19.189-15.567 34.745-34.756 34.745h-170.966c-19.189 0-34.756-15.556-34.756-34.745v-14.022c-22.396-1.364-40.137-19.956-40.137-42.694 0-21.224 15.449-38.826 35.715-42.193v-84.982c0-54.425 44.121-98.546 98.546-98.546h52.23c54.425 0 98.546 44.122 98.546 98.546v84.982c20.266 3.367 35.715 20.969 35.715 42.193z" fill="#9d6b6b"/><path d="m282.115 34.903c-43.695 0-79.122 35.427-79.122 79.123v238.059h-32.476c-19.189 0-34.756-15.556-34.756-34.745v-14.022c-22.396-1.364-40.137-19.956-40.137-42.694 0-21.224 15.449-38.826 35.715-42.193v-84.982c0-54.425 44.121-98.546 98.546-98.546h52.23z" fill="#8b5e5e"/><path d="m291.683 259.622c-14.999 0-28.166 7.81-35.683 19.578-7.517-11.768-20.684-19.578-35.683-19.578-23.374 0-42.322 18.948-42.322 42.322v16.542c0 33.487 27.146 60.633 60.633 60.633h34.743c33.487 0 60.633-27.146 60.633-60.633v-16.542c.001-23.374-18.947-42.322-42.321-42.322z" fill="#ffcbbe"/><path d="m275.156 379.079c-.597.021-1.193.032-1.79.032h-34.735c-33.488 0-60.636-27.148-60.636-60.626v-16.547c0-11.688 4.741-22.268 12.391-29.929 7.661-7.661 18.241-12.391 29.929-12.391 6.894 0 13.404 1.652 19.157 4.571-4.006 2.035-7.629 4.677-10.772 7.82-7.661 7.661-12.402 18.241-12.402 29.929v16.547c.001 32.881 26.19 59.657 58.858 60.594z" fill="#eaac9d"/><g fill="#2b4d66"><path d="m196.445 207.013c-7.707 0-13.978 8.591-13.978 19.151s6.271 19.152 13.978 19.152 13.978-8.592 13.978-19.152-6.271-19.151-13.978-19.151z"/><path d="m315.555 207.013c-7.707 0-13.978 8.591-13.978 19.151s6.271 19.152 13.978 19.152 13.978-8.592 13.978-19.152-6.27-19.151-13.978-19.151z"/></g><g><path d="m65.257 10.404-14.816 72.975c-4.975 24.505 13.755 47.419 38.76 47.419h68.897c20.777 0 37.619-16.843 37.619-37.619 0-20.777-16.843-37.619-37.619-37.619h-67.125v-42.572c0-7.173-5.815-12.988-12.988-12.988-6.177 0-11.499 4.35-12.728 10.404z" fill="#ede6e3"/><path d="m195.716 93.177c0 20.777-16.845 37.622-37.622 37.622h-68.893c-25.007 0-43.738-22.918-38.762-47.424l1.172-5.753c5.136 15.545 19.775 27.18 37.59 27.18h68.894c16.217 0 30.025-10.25 35.321-24.623 1.491 4.048 2.3 8.427 2.3 12.998z" fill="#d8cec9"/><path d="m446.743 10.404 14.816 72.975c4.975 24.505-13.755 47.419-38.76 47.419h-68.897c-20.777 0-37.619-16.843-37.619-37.619 0-20.777 16.843-37.619 37.619-37.619h67.125v-42.572c0-7.173 5.815-12.988 12.988-12.988 6.177 0 11.499 4.35 12.728 10.404z" fill="#ede6e3"/><path d="m316.284 93.177c0 20.777 16.845 37.622 37.622 37.622h68.894c25.007 0 43.738-22.918 38.762-47.424l-1.172-5.753c-5.136 15.545-19.775 27.18-37.59 27.18h-68.894c-16.217 0-30.025-10.25-35.321-24.623-1.492 4.048-2.301 8.427-2.301 12.998z" fill="#d8cec9"/></g><g fill="#2b4d66"><path d="m305.25 196.583c-4.268 0-7.726-3.459-7.726-7.726s3.459-7.726 7.726-7.726c9.691 0 17.575-7.884 17.575-17.576 0-4.267 3.459-7.726 7.726-7.726s7.726 3.459 7.726 7.726c.001 18.212-14.815 33.028-33.027 33.028z"/><path d="m206.751 196.583c-18.212 0-33.028-14.816-33.028-33.029 0-4.267 3.459-7.726 7.726-7.726 4.268 0 7.726 3.459 7.726 7.726 0 9.692 7.884 17.576 17.575 17.576 4.268 0 7.726 3.459 7.726 7.726s-3.458 7.727-7.725 7.727z"/></g><g><path d="m256 410.109c-16.22 0-32.439-6.173-44.787-18.521-24.696-24.696-24.696-64.88 0-89.576 6.892-6.893 18.067-6.893 24.958 0 6.893 6.892 6.893 18.066 0 24.958-10.934 10.934-10.934 28.724 0 39.659 10.936 10.934 28.724 10.933 39.658-.001s10.934-28.724 0-39.658c-6.893-6.892-6.893-18.066 0-24.958 6.892-6.893 18.067-6.893 24.958 0 24.696 24.696 24.696 64.879 0 89.575-12.348 12.347-28.567 18.522-44.787 18.522z" fill="#ffc250"/><g fill="#e7a52e"><path d="m275.829 366.628c-3.321 3.321-7.28 5.618-11.482 6.922 9.632 2.988 20.563.691 28.176-6.922 10.934-10.934 10.934-28.724 0-39.658-6.893-6.892-6.893-18.066 0-24.958 1.252-1.252 2.649-2.27 4.132-3.068-6.682-3.591-15.186-2.573-20.826 3.068-6.893 6.892-6.893 18.066 0 24.958 10.934 10.934 10.934 28.725 0 39.658z"/><path d="m227.906 391.588c-24.696-24.696-24.696-64.88 0-89.576 1.252-1.252 2.649-2.27 4.132-3.068-6.682-3.591-15.186-2.573-20.826 3.068-24.696 24.696-24.696 64.879 0 89.576 12.348 12.348 28.567 18.521 44.787 18.521 2.789 0 5.577-.196 8.346-.561-13.334-1.759-26.214-7.736-36.439-17.96z"/></g></g></g></svg>