<svg id="Capa_1" enable-background="new 0 0 512 512" height="512" viewBox="0 0 512 512" width="512" xmlns="http://www.w3.org/2000/svg"><g><path d="m159.918 73.224h43.142v134.14h-43.142z" fill="#ede6e3"/><path d="m159.918 73.224h21.122v134.14h-21.122z" fill="#d8cec9"/><path d="m234.429 73.224h43.142v134.14h-43.142z" fill="#ede6e3"/><path d="m234.429 73.224h21.122v134.14h-21.122z" fill="#d8cec9"/><path d="m308.939 73.224h43.142v134.14h-43.142z" fill="#ede6e3"/><g fill="#d8cec9"><path d="m159.918 73.224h43.142v25.109h-43.142z"/><path d="m234.429 73.224h43.142v25.109h-43.142z"/><path d="m308.939 73.224h43.142v25.109h-43.142z"/><path d="m308.939 73.224h21.122v134.14h-21.122z"/></g><path d="m247.772 2.909-101.338 48.62c-18.25 8.756-12.013 36.173 8.228 36.173h202.676c20.241 0 26.478-27.417 8.229-36.173l-101.339-48.62c-5.201-2.495-11.255-2.495-16.456 0z" fill="#ede6e3"/><path d="m193.719 87.699h-39.054c-20.243 0-26.486-27.413-8.231-36.17l101.338-48.624c5.202-2.493 11.25-2.493 16.452 0l11.301 5.419-90.038 43.206c-18.254 8.756-12.011 36.169 8.232 36.169z" fill="#d8cec9"/><path d="m355.864 192.886h-199.728c-5.012 0-9.075 4.063-9.075 9.075v49.848h217.879v-49.848c0-5.012-4.064-9.075-9.076-9.075z" fill="#ede6e3"/><path d="m199.94 192.896c-5.007 0-9.076 4.059-9.076 9.066v49.85h-43.804v-49.85c0-5.007 4.059-9.066 9.076-9.066z" fill="#d8cec9"/><path d="m512 510.961-91.28-224.751c-15.095-37.166-51.208-61.477-91.323-61.477h-73.397-73.397c-40.115 0-76.228 24.311-91.323 61.477l-91.28 224.751" fill="#b3e59f"/><path d="m216.313 224.739c-21.685 0-41.218 24.312-49.377 61.471l-49.356 224.755h-117.574l91.274-224.754c15.102-37.159 51.21-61.471 91.326-61.471h33.707z" fill="#95d6a4"/><path d="m467.048 280.916h-3.426v-6.166c0-20.055-16.258-36.313-36.313-36.313-20.055 0-36.313 16.258-36.313 36.313v6.166h-3.426c-16.271 0-29.462 13.19-29.462 29.462 0 16.271 13.19 29.462 29.462 29.462h79.478c16.271 0 29.462-13.19 29.462-29.462-.001-16.272-13.191-29.462-29.462-29.462z" fill="#ede6e3"/><path d="m445.467 243.302c-2.751 1.587-5.285 3.533-7.52 5.769-6.573 6.572-10.632 15.659-10.632 25.682v6.16h-3.431c-16.267 0-29.463 13.197-29.463 29.463 0 8.138 3.297 15.504 8.633 20.841 5.326 5.326 12.702 8.623 20.83 8.623h-36.314c-8.138 0-15.494-3.297-20.83-8.623-5.336-5.337-8.633-12.702-8.633-20.841 0-16.267 13.197-29.463 29.463-29.463h3.431v-6.16c0-10.024 4.069-19.11 10.631-25.682 6.573-6.573 15.648-10.632 25.682-10.632 6.615.001 12.817 1.763 18.153 4.863z" fill="#d8cec9"/><path d="m198.881 391.099h-3.913v-7.043c0-22.907-18.569-41.476-41.476-41.476-22.906 0-41.476 18.569-41.476 41.476v7.043h-3.913c-18.584 0-33.65 15.066-33.65 33.65 0 18.584 15.066 33.65 33.65 33.65h90.777c18.584 0 33.65-15.066 33.65-33.65.001-18.585-15.064-33.65-33.649-33.65z" fill="#ede6e3"/><path d="m174.233 348.138c-3.142 1.812-6.036 4.036-8.589 6.589-7.507 7.507-12.143 17.885-12.143 29.334v7.036h-3.918c-18.579 0-33.652 15.073-33.652 33.652 0 9.295 3.765 17.708 9.86 23.803 6.083 6.083 14.508 9.849 23.792 9.849h-41.477c-9.295 0-17.697-3.765-23.792-9.849-6.095-6.095-9.86-14.508-9.86-23.803 0-18.579 15.073-33.652 33.652-33.652h3.918v-7.036c0-11.449 4.648-21.827 12.143-29.334 7.507-7.507 17.873-12.143 29.334-12.143 7.554 0 14.637 2.012 20.732 5.554z" fill="#d8cec9"/><path d="m86.828 115.407h-2.73v-4.915c0-15.985-12.958-28.943-28.943-28.943-15.985 0-28.943 12.958-28.943 28.943v4.915h-2.73c-12.969 0-23.482 10.513-23.482 23.482 0 12.969 10.513 23.482 23.482 23.482h63.346c12.969 0 23.482-10.513 23.482-23.482 0-12.969-10.513-23.482-23.482-23.482z" fill="#ede6e3"/><path d="m66.725 83.959c-3.338 1.452-6.346 3.523-8.89 6.068-5.233 5.233-8.478 12.465-8.478 20.46v4.914h-2.73c-12.97 0-23.488 10.518-23.488 23.488 0 6.48 2.627 12.352 6.882 16.606 4.244 4.244 10.116 6.871 16.607 6.871h-23.15c-6.48 0-12.352-2.627-16.596-6.871-4.255-4.254-6.882-10.126-6.882-16.606 0-12.97 10.518-23.488 23.478-23.488h2.73v-4.914c0-7.994 3.235-15.226 8.478-20.46 5.244-5.233 12.475-8.478 20.47-8.478 4.11 0 8.025.855 11.569 2.41z" fill="#d8cec9"/></g></svg>