<svg id="Capa_1" enable-background="new 0 0 512 512" height="512" viewBox="0 0 512 512" width="512" xmlns="http://www.w3.org/2000/svg"><g><path d="m494.57 151.938c22.566-22.566 22.566-59.152 0-81.718-13.821-13.821-32.901-19.161-50.798-16.052-1.868-30.227-26.962-54.168-57.659-54.168-31.913 0-57.783 25.87-57.783 57.783-.001-31.913-25.871-57.783-57.784-57.783-30.698 0-55.792 23.941-57.66 54.168-17.898-3.11-36.977 2.23-50.798 16.052-22.566 22.566-22.566 59.152 0 81.718 12.794 12.794 13.783 33.371 1.966 47.072-8.726 10.117-14.002 23.291-14.002 37.701 0 29.806 22.57 54.334 51.55 57.444-12.086 9.991-19.795 25.09-19.795 41.995 0 16.604 7.431 31.469 19.147 41.457 7.807 6.655 10.203 17.878 5.467 26.978-3.907 7.507-6.115 16.039-6.115 25.088 0 30.797 25.558 55.624 56.621 54.428h142.795c31.063 1.196 56.621-23.631 56.621-54.428 0-9.049-2.209-17.58-6.115-25.088-4.736-9.1-2.34-20.323 5.467-26.978 11.716-9.988 19.147-24.853 19.147-41.457 0-16.905-7.708-32.003-19.794-41.994 28.984-3.105 51.559-27.636 51.559-57.445 0-14.41-5.276-27.584-14.002-37.701-11.818-13.701-10.829-34.278 1.965-47.072z" fill="#9d6b6b"/><path d="m339.144 484.1h-82.208c-31.07 1.195-56.628-23.632-56.628-54.424 0-9.045 2.215-17.585 6.119-25.085 4.739-9.107 2.338-20.325-5.47-26.98-11.713-9.993-19.141-24.858-19.141-41.454 0-16.915 7.706-32.007 19.79-42-28.979-3.111-51.55-27.64-51.55-57.442 0-14.412 5.274-27.588 14-37.704 5.553-6.439 8.283-14.402 8.283-22.355 0-8.962-3.472-17.935-10.25-24.714-11.28-11.28-16.926-26.074-16.926-40.867 0-14.783 5.645-29.566 16.926-40.857 13.825-13.815 32.904-19.161 50.798-16.05.938-15.113 7.685-28.659 18.028-38.415 10.343-9.766 24.291-15.751 39.641-15.751 17.163 0 32.584 7.489 43.164 19.378-8.334 9.364-13.67 21.469-14.495 34.789-17.904-3.111-36.983 2.236-50.808 16.05-11.28 11.291-16.926 26.074-16.926 40.857 0 14.793 5.645 29.586 16.926 40.867 6.778 6.779 10.25 15.751 10.25 24.714 0 7.953-2.73 15.916-8.283 22.355-8.726 10.116-14 23.292-14 37.704 0 29.803 22.571 54.331 51.55 57.442-12.084 9.993-19.79 25.085-19.79 42 0 16.596 7.427 31.461 19.141 41.454 7.809 6.655 10.209 17.873 5.47 26.98-3.904 7.5-6.119 16.04-6.119 25.085 0 29.42 23.334 53.393 52.508 54.423z" fill="#8b5e5e"/><g fill="#ffcbbe"><circle cx="186.66" cy="272.88" r="40.808"/><circle cx="470.002" cy="272.88" r="40.808"/></g><path d="m212.256 283.876c-2.714 0-5.347-1.433-6.76-3.972-2.375-4.271-6.423-6.679-12.375-7.36-5.222-.597-9.788.455-9.833.465-4.14.976-8.306-1.576-9.3-5.711-.993-4.135 1.522-8.291 5.652-9.304.692-.17 6.98-1.634 14.657-.865 11.235 1.129 19.778 6.407 24.704 15.264 2.074 3.729.732 8.434-2.997 10.508-1.189.66-2.478.975-3.748.975z" fill="#eaac9d"/><path d="m444.407 283.876c-1.271 0-2.559-.314-3.748-.975-3.729-2.074-5.07-6.779-2.997-10.508 4.927-8.857 13.469-14.135 24.704-15.264 7.68-.771 13.966.695 14.657.865 4.144 1.017 6.679 5.201 5.662 9.345-1.015 4.134-5.187 6.666-9.314 5.67-.155-.035-4.669-1.056-9.83-.464-5.951.681-9.999 3.089-12.374 7.36-1.413 2.538-4.046 3.97-6.76 3.971z" fill="#eaac9d"/><path d="m434.1 502.642-180.878-12.333c17.823-30.127-9.644-31.865 23.749-43.891 6.311-2.273 12.817-4.139 19.486-5.566v-55.233h63.74v55.233c24.422 5.226 46.661 16.338 65.162 31.779 13.281 11.083-.113 15.043 8.741 30.011z" fill="#ffddce"/><path d="m316.038 385.615v55.237c-10.732 5.946-20.369 19.525-28.027 38.434-3.897 9.624-7.282.629-10.037 12.711l-44.668 11.143c17.821-30.124 10.271-44.696 43.666-56.721 6.314-2.274 12.822-4.139 19.493-5.566v-55.237h19.573z" fill="#ffcbbe"/><path d="m458.849 511.995h-261.043c17.822-30.122 45.77-53.548 79.168-65.57 0 0 47.48 67.805 148.374 26.218l.01-.01c13.28 11.084 24.632 24.404 33.491 39.362z" fill="#698ed5"/><path d="m276.974 446.425c-33.398 12.022-61.346 35.448-79.168 65.57h80.167c4.336-19.015 10.232-35.361 17.232-47.856-12.238-9.164-18.231-17.714-18.231-17.714z" fill="#4073c8"/><path d="m449.56 190.664v85.484c0 52.961-36.86 97.31-86.318 108.807-.01 0-.01 0-.021.01-8.149 1.896-16.648 2.895-25.373 2.895h-19.048c-61.697 0-111.712-50.015-111.712-111.712v-85.484c0-1.195.021-2.4.052-3.585.082-2.823 1.205-5.532 3.193-7.53l.031-.031c8.149-8.159 19.419-13.197 31.853-13.197 14 0 27.413-3.245 39.404-9.117 5.079-2.472 9.89-5.419 14.392-8.787 15.143-11.342 26.712-27.475 32.316-46.584 5.604 19.11 17.173 35.242 32.317 46.584 15.154 11.342 33.882 17.904 53.796 17.904 12.424 0 23.663 5.027 31.812 13.155 2.019 2.009 3.173 4.749 3.255 7.603.03 1.195.051 2.39.051 3.585z" fill="#ffddce"/><path d="m363.242 384.954c-.01 0-.01 0-.021.01-8.149 1.896-16.648 2.895-25.373 2.895h-19.048c-61.697 0-111.712-50.015-111.712-111.712v-85.484c0-1.195.021-2.4.052-3.585.082-2.823 1.205-5.532 3.193-7.53l.031-.031c8.149-8.159 19.419-13.197 31.853-13.197 14 0 27.413-3.245 39.404-9.117-3.07 10.621-4.708 21.85-4.708 33.46v85.484c0 52.962 36.86 97.321 86.329 108.807z" fill="#ffcbbe"/><g fill="#2b4d66"><path d="m270.75 231.914c-7.454 0-13.518 8.308-13.518 18.521s6.064 18.521 13.518 18.521c7.455 0 13.519-8.308 13.519-18.521s-6.065-18.521-13.519-18.521z"/><path d="m385.913 231.914c-7.454 0-13.518 8.308-13.518 18.521s6.064 18.521 13.518 18.521c7.455 0 13.519-8.308 13.519-18.521s-6.065-18.521-13.519-18.521z"/></g><g fill="#eaac9d"><path d="m254.263 226.773c-.637 0-1.283-.079-1.929-.245-4.133-1.062-6.622-5.273-5.56-9.406 4.279-16.648 21.3-26.714 37.953-22.436 4.133 1.062 6.623 5.273 5.56 9.406-1.06 4.132-5.268 6.623-9.405 5.561-8.399-2.159-16.983 2.919-19.141 11.315-.897 3.487-4.037 5.805-7.478 5.805z"/><path d="m402.385 226.773c-3.443 0-6.582-2.318-7.478-5.806-1.045-4.067-3.612-7.484-7.226-9.621-3.617-2.137-7.846-2.738-11.914-1.693-4.138 1.062-8.345-1.428-9.405-5.561-1.062-4.133 1.428-8.344 5.56-9.406 8.063-2.071 16.454-.88 23.623 3.358 7.168 4.238 12.258 11.013 14.329 19.078 1.062 4.133-1.428 8.344-5.56 9.406-.646.166-1.293.245-1.929.245z"/></g><path d="m328.331 304.67c-14.268 0-27.077-9.541-31.15-23.203-1.219-4.089 1.108-8.392 5.197-9.612 4.091-1.219 8.392 1.108 9.612 5.197 2.135 7.162 8.855 12.164 16.341 12.164 7.495 0 14.214-4.999 16.34-12.157 1.215-4.091 5.513-6.424 9.607-5.207 4.091 1.215 6.422 5.516 5.206 9.606-4.059 13.667-16.869 23.212-31.153 23.212z" fill="#eaa598"/><g><path d="m115.6 418.699h-63.49c-4.267 0-7.726-3.459-7.726-7.726s3.459-7.726 7.726-7.726h63.49c4.267 0 7.726 3.459 7.726 7.726 0 4.266-3.459 7.726-7.726 7.726z" fill="#8b5e5e"/><g fill="#ffc250"><path d="m60.149 458.259c-4.267 0-7.726-3.459-7.726-7.726v-51.437c0-4.267 3.459-7.726 7.726-7.726s7.726 3.459 7.726 7.726v51.437c0 4.267-3.459 7.726-7.726 7.726z"/><path d="m83.853 458.733c-4.267 0-7.726-3.459-7.726-7.726v-51.91c0-4.267 3.459-7.726 7.726-7.726s7.726 3.459 7.726 7.726v51.91c.001 4.267-3.459 7.726-7.726 7.726z"/><path d="m107.558 458.259c-4.267 0-7.726-3.459-7.726-7.726v-51.437c0-4.267 3.459-7.726 7.726-7.726s7.726 3.459 7.726 7.726v51.437c0 4.267-3.459 7.726-7.726 7.726z"/></g><path d="m101.547 478.953h-35.385c-36.203 0-65.657-29.454-65.657-65.657 0-17.538 6.83-34.026 19.231-46.427l13.084-13.084c7.123-7.124-8.151-13.188-15.866-13.188s-13.971-6.255-13.971-13.971c0-9.424 3.735-18.219 10.517-24.764 6.78-6.543 15.708-9.961 25.138-9.626 18.6.662 33.17 15.983 33.17 34.881 0 17.537-6.829 34.025-19.23 46.426l-13.085 13.085c-7.124 7.124-11.047 16.594-11.047 26.669 0 20.796 16.919 37.715 37.715 37.715h35.385c20.796 0 37.715-16.919 37.715-37.715 0-10.074-3.923-19.545-11.047-26.668l-13.084-13.085c-12.401-12.401-19.23-28.889-19.23-46.426 0-18.898 14.57-34.22 33.171-34.881 9.424-.334 18.356 3.083 25.137 9.627 6.782 6.545 10.517 15.34 10.517 24.764 0 7.716-6.255 13.971-13.971 13.971s-22.99 6.065-15.866 13.188l13.084 13.085c12.401 12.4 19.231 28.888 19.231 46.426.001 36.201-29.453 65.655-65.656 65.655z" fill="#ffc250"/><g fill="#e7a52e"><path d="m153.982 413.29c0 20.799-16.915 37.715-37.715 37.715h-14.721c20.799 0 37.714-16.915 37.714-37.715 0-10.075-3.925-19.542-11.043-26.661l-13.083-13.094c-12.403-12.393-19.233-28.886-19.233-46.419 0-18.904 14.567-34.222 33.171-34.882 2.936-.103 5.831.155 8.612.773-15.586 3.379-27.063 17.328-27.063 34.109 0 17.534 6.83 34.027 19.233 46.419l13.083 13.094c7.12 7.119 11.045 16.586 11.045 26.661z"/><path d="m90.826 478.957h-24.662c-36.2 0-65.653-29.453-65.653-65.663 0-17.534 6.83-34.027 19.223-46.419l13.093-13.083c7.119-7.129-8.159-13.196-15.875-13.196s-13.969-6.253-13.969-13.969c0-9.426 3.74-18.213 10.518-24.765 6.779-6.542 15.71-9.962 25.136-9.622 3.904.134 7.634.927 11.085 2.256-4.255 1.617-8.169 4.1-11.559 7.366-6.778 6.552-10.518 15.339-10.518 24.765 0 7.716 6.387 12.568 13.979 13.969 22.365 4.151 2.781 26.28 2.781 26.28-12.403 12.393-25.583 28.886-25.583 46.419.002 36.21 35.804 65.662 72.004 65.662z"/></g></g><g><path d="m106.602 473.125h-45.495c-10.734 0-19.435 8.701-19.435 19.435 0 10.734 8.701 19.435 19.435 19.435h45.495c10.734 0 19.435-8.701 19.435-19.435 0-10.734-8.701-19.435-19.435-19.435z" fill="#ffddce"/><path d="m75.931 506.312c3.514 3.514 8.376 5.688 13.742 5.688h-28.571c-5.366 0-10.229-2.174-13.742-5.688-3.514-3.524-5.688-8.386-5.688-13.752 0-10.732 8.698-19.43 19.43-19.43h28.571c-10.732 0-19.44 8.698-19.44 19.43 0 5.366 2.175 10.228 5.698 13.752z" fill="#ffcbbe"/></g><path d="m360.204 385.619v22.849c-7.221 1.463-14.7 2.235-22.355 2.235h-19.037c-7.654 0-15.133-.773-22.354-2.235v-22.849z" fill="#ffcbbe"/></g></svg>