<svg id="Capa_1" enable-background="new 0 0 512 512" height="512" viewBox="0 0 512 512" width="512" xmlns="http://www.w3.org/2000/svg"><g><path d="m288.037 384.976v55.516c3.946.844 7.834 1.841 11.66 2.985 5.472 1.636 1.179 20.526 6.373 22.742 5.405 2.305 20.286-12.042 25.349-9.151 23.024 13.147 42.285 32.129 55.775 54.932h-55.776l-75.417-23.856-73.47 23.856h-57.718c13.312-22.503 32.246-41.285 54.869-54.41 5.09-2.953 14.976 5.05 20.418 2.691 5.442-2.358 6.439-15.078 12.188-16.797 3.833-1.146 7.729-2.146 11.682-2.992v-55.516" fill="#ffddce"/><path d="m385.134 281.371c27.529 0 49.845-22.316 49.845-49.845 0-9.006-2.401-17.447-6.579-24.739 11.894-9.11 19.57-23.449 19.57-39.588 0-23.612-16.424-43.375-38.467-48.525 4.83-7.678 7.635-16.759 7.635-26.5 0-27.529-22.316-49.845-49.845-49.845-5.169 0-10.154.787-14.843 2.248-2.632-25.051-23.817-44.577-49.566-44.577-21.575 0-39.944 13.709-46.882 32.889-6.939-19.18-25.308-32.889-46.883-32.889-25.749 0-46.935 19.526-49.566 44.578-4.688-1.461-9.674-2.248-14.843-2.248-27.529 0-49.845 22.316-49.845 49.845 0 9.741 2.805 18.822 7.635 26.5-22.043 5.149-38.467 24.913-38.467 48.525 0 16.139 7.677 30.478 19.57 39.588-4.178 7.292-6.579 15.732-6.579 24.739 0 27.529 22.316 49.845 49.845 49.845" fill="#365e7d"/><path d="m253.133 26.446c-2.936 5.511-4.873 11.631-5.553 18.131-4.687-1.463-9.674-2.246-14.845-2.246-27.527 0-49.85 22.314-49.85 49.85 0 9.735 2.812 18.821 7.644 26.496-22.046 5.151-38.467 24.91-38.467 48.522 0 16.143 7.675 30.483 19.563 39.59-4.172 7.294-6.573 15.731-6.573 24.735 0 27.537 22.314 49.85 49.84 49.85h-88.019c-27.527 0-49.84-22.314-49.84-49.85 0-9.004 2.4-17.441 6.573-24.735-11.888-9.107-19.573-23.447-19.573-39.59 0-23.612 16.431-43.371 38.467-48.522-4.821-7.675-7.634-16.761-7.634-26.496 0-27.537 22.324-49.85 49.85-49.85 5.172 0 10.147.783 14.845 2.246 2.627-25.054 23.818-44.576 49.562-44.576 19.07.001 35.635 10.714 44.01 26.445z" fill="#2b4d66"/><path d="m238.068 384.979v55.516c-23.622 9.024-43.608 35.5-55.537 71.505h-57.721c21.304-36.005 56.99-62.48 99.165-71.505v-55.516z" fill="#ffcbbe"/><path d="m331.421 457.071v54.929h-150.829v-54.929c9.931-5.676 20.562-10.25 31.719-13.598 1.143 3.173 2.637 6.181 4.419 8.983 6.923 10.941 18.275 18.78 31.544 20.995 2.514.433 5.089.649 7.726.649s5.213-.216 7.726-.649c16.668-2.781 30.339-14.453 35.974-29.978 11.169 3.347 21.79 7.921 31.721 13.598z" fill="#ffc250"/><path d="m263.728 473.451v38.549h-15.453v-38.549c2.514.433 5.089.649 7.726.649s5.213-.217 7.727-.649z" fill="#e7a52e"/><path d="m216.728 452.455c-15.072 13.104-27.65 33.914-36.139 59.545v-54.929c9.931-5.676 20.562-10.25 31.719-13.598 1.144 3.172 2.638 6.18 4.42 8.982z" fill="#e7a52e"/><g fill="#ffcbbe"><circle cx="114.344" cy="272.901" r="40.806"/><circle cx="397.666" cy="272.901" r="40.806"/></g><path d="m372.073 283.896c-1.271 0-2.559-.314-3.749-.975-3.729-2.074-5.071-6.779-2.997-10.508 4.926-8.856 13.468-14.134 24.703-15.263 7.677-.77 13.964.695 14.656.865 4.144 1.017 6.679 5.201 5.662 9.345-1.015 4.134-5.181 6.663-9.314 5.67-.153-.036-4.67-1.054-9.828-.465-5.951.681-9.998 3.088-12.373 7.359-1.414 2.54-4.047 3.972-6.76 3.972z" fill="#eaac9d"/><path d="m139.937 283.896c-2.714 0-5.347-1.433-6.759-3.972-2.375-4.271-6.423-6.678-12.374-7.359-5.223-.597-9.786.455-9.832.465-4.139.975-8.306-1.576-9.3-5.711-.993-4.135 1.522-8.291 5.652-9.304.692-.169 6.976-1.634 14.656-.865 11.235 1.129 19.777 6.406 24.702 15.263 2.074 3.729.733 8.434-2.996 10.508-1.189.661-2.478.975-3.749.975z" fill="#eaac9d"/><path d="m377.228 194.175v81.995c0 61.692-50.011 111.703-111.703 111.703h-19.036c-61.692 0-111.714-50.011-111.714-111.703v-81.995c0-.33 0-.67.011-.999.299-38.041 41.471-61.404 74.754-42.955 13.762 7.623 29.605 11.97 46.468 11.97 37.722 0 70.376-21.756 86.044-53.41 21.744 21.899 35.176 52.071 35.176 85.394z" fill="#ffddce"/><path d="m292.321 384.627c-8.581 2.122-17.553 3.245-26.793 3.245h-19.036c-61.692 0-111.713-50.011-111.713-111.703v-81.995c0-.33 0-.67.01-.999.299-38.041 41.472-61.404 74.754-42.955 4.553 2.524 9.333 4.687 14.308 6.448-9.848 8.776-16.327 21.498-16.44 36.506-.01.33-.01.67-.01.999v81.995c-.001 52.453 36.166 96.469 84.92 108.459z" fill="#ffcbbe"/><g fill="#2b4d66"><path d="m203.578 226.787c-7.454 0-13.518 8.308-13.518 18.52s6.064 18.52 13.518 18.52 13.518-8.308 13.518-18.52-6.064-18.52-13.518-18.52z"/><path d="m308.432 226.787c-7.454 0-13.518 8.308-13.518 18.52s6.064 18.52 13.518 18.52 13.518-8.308 13.518-18.52c-.001-10.212-6.065-18.52-13.518-18.52z"/></g><path d="m256.001 303.572c-14.323 0-27.183-9.578-31.272-23.293-1.219-4.09 1.108-8.393 5.197-9.612s8.392 1.108 9.612 5.197c2.151 7.216 8.922 12.256 16.463 12.256 7.551 0 14.32-5.036 16.461-12.247 1.215-4.091 5.516-6.423 9.606-5.208 4.091 1.215 6.422 5.516 5.208 9.606-4.074 13.719-16.935 23.301-31.275 23.301z" fill="#eaa598"/><g><path d="m150.041 77.328c5.428-2.671 3.526-10.841-2.523-10.841h-4.24c-3.884 0-7.386-1.576-9.931-4.121-2.541-2.541-4.106-6.037-4.11-9.914-.009-7.736-5.91-14.059-13.646-14.059h-50.761c-4.924 0-9.375 1.999-12.599 5.213-3.268 3.268-5.266 7.806-5.212 12.799.108 9.834 8.432 17.612 18.267 17.612h.09c-1.03 1.453-1.854 3.07-2.421 4.79-.643 1.999-.955 4.149-.843 6.387.48 9.56 8.69 16.915 18.263 16.915h53.467c.47-10.597 6.68-20.096 16.199-24.781z" fill="#ffc250"/><path d="m118.275 102.111h-38.375c-9.838 0-17.812-7.974-17.812-17.812 0-1.916.309-3.76.865-5.491.567-1.72 1.391-3.338 2.421-4.79h-.546c-9.838 0-17.812-7.974-17.812-17.812 0-4.914 1.988-9.374 5.213-12.599 3.224-3.214 7.675-5.213 12.599-5.213h38.374c-4.914 0-9.375 1.999-12.599 5.213-3.214 3.225-5.213 7.685-5.213 12.599 0 9.838 7.974 17.812 17.812 17.812h.536c-1.03 1.453-1.844 3.07-2.411 4.79-.567 1.731-.865 3.575-.865 5.491.001 9.838 7.974 17.812 17.813 17.812z" fill="#e7a52e"/><path d="m446.716 74.019h-.093c1.03 1.453 1.854 3.07 2.421 4.79.649 1.998.958 4.152.845 6.387-.474 9.56-8.684 16.916-18.265 16.916h-53.466c-.464-10.601-6.676-20.099-16.194-24.786-5.429-2.668-3.523-10.838 2.524-10.838h4.234c3.884 0 7.386-1.576 9.931-4.121s4.11-6.037 4.11-9.91c.01-6.768 4.533-12.455 10.848-13.773.907-.196 1.844-.288 2.802-.288h50.757c4.924 0 9.375 1.998 12.599 5.213 3.276 3.266 5.275 7.809 5.213 12.795-.103 9.837-8.427 17.615-18.266 17.615z" fill="#ffc250"/><path d="m406.457 56.207c0 1.916.299 3.76.865 5.491.567 1.731 1.38 3.338 2.411 4.79h-.536c-9.838 0-17.822 7.974-17.822 17.812 0 4.924 1.999 9.375 5.223 12.599s7.685 5.213 12.599 5.213h-31.039c-.464-10.601-6.676-20.099-16.194-24.786-5.429-2.668-3.523-10.838 2.524-10.838h3.832c3.884 0 7.386-1.576 9.931-4.121s4.121-6.047 4.121-9.931c0-6.799 4.832-12.465 11.239-13.753.907-.196 1.844-.288 2.802-.288h27.856c-9.838 0-17.812 7.974-17.812 17.812z" fill="#e7a52e"/></g><g fill="#eaac9d"><path d="m215.216 213.182c-1.977 0-3.955-.755-5.463-2.263-6.131-6.13-16.105-6.13-22.235 0-3.017 3.017-7.909 3.017-10.927 0s-3.018-7.909 0-10.927c12.155-12.156 31.934-12.156 44.089 0 3.018 3.017 3.018 7.909 0 10.927-1.509 1.509-3.486 2.263-5.464 2.263z"/><path d="m329.949 213.182c-1.977 0-3.955-.755-5.463-2.263-6.131-6.13-16.105-6.13-22.235 0-3.017 3.017-7.909 3.017-10.927 0s-3.018-7.909 0-10.927c12.155-12.156 31.934-12.156 44.089 0 3.018 3.017 3.018 7.909 0 10.927-1.51 1.509-3.487 2.263-5.464 2.263z"/></g><path d="m288.04 384.979v26.321c-7.273 1.483-14.804 2.266-22.52 2.266h-19.027c-7.716 0-15.247-.783-22.52-2.266v-26.321z" fill="#ffcbbe"/></g></svg>