<svg id="Capa_1" enable-background="new 0 0 512 512" height="512" viewBox="0 0 512 512" width="512" xmlns="http://www.w3.org/2000/svg"><g><path d="m183.529 351.088h150.734v130.179h-150.734z" fill="#de1d49"/><path d="m317.219 354.156c-7.345 6.099-12.022 15.288-12.022 25.579 0 9.344 3.853 17.781 10.065 23.818.628.608 1.277 1.195 1.957 1.762-7.345 6.099-12.022 15.288-12.022 25.579 0 18.347 14.876 33.223 33.223 33.223s33.223-14.876 33.223-33.223c0-10.291-4.677-19.481-12.022-25.579 7.345-6.088 12.022-15.288 12.022-25.579 0-3.276-.474-6.449-1.37-9.447-1.885-6.397-5.656-11.981-10.652-16.132 7.345-6.099 12.022-15.288 12.022-25.579s-4.677-19.491-12.022-25.579c7.345-6.099 12.022-15.288 12.022-25.579 0-18.348-14.876-33.223-33.223-33.223s-33.223 14.876-33.223 33.223c0 10.291 4.677 19.481 12.022 25.579-7.345 6.088-12.022 15.288-12.022 25.579s4.677 19.48 12.022 25.578z" fill="#e04b66"/><path d="m317.219 354.156c-7.345 6.099-12.022 15.288-12.022 25.579 0 9.344 3.853 17.781 10.065 23.818 21.531-5.512 40.558-17.286 55.011-33.264-1.885-6.397-5.656-11.981-10.652-16.132 7.345-6.099 12.022-15.288 12.022-25.579s-4.677-19.491-12.022-25.579c7.345-6.099 12.022-15.288 12.022-25.579 0-18.348-14.876-33.223-33.223-33.223s-33.223 14.876-33.223 33.223c0 10.291 4.677 19.481 12.022 25.579-7.345 6.088-12.022 15.288-12.022 25.579s4.677 19.48 12.022 25.578z" fill="#de1d49"/><path d="m327.552 462.296c3.41 1.185 7.067 1.823 10.868 1.823 18.358 0 33.223-14.876 33.223-33.223 0-10.291-4.677-19.491-12.022-25.579 7.345-6.099 12.022-15.288 12.022-25.579s-4.677-19.491-12.022-25.579c7.345-6.099 12.022-15.298 12.022-25.579 0-10.291-4.677-19.491-12.022-25.59 7.345-6.088 12.022-15.288 12.022-25.579 0-18.348-14.865-33.223-33.223-33.223-3.801 0-7.458.639-10.868 1.823 13.011 4.502 22.355 16.864 22.355 31.4 0 10.291-4.677 19.491-12.022 25.579 7.345 6.099 12.022 15.298 12.022 25.59 0 10.281-4.677 19.481-12.022 25.579 7.345 6.088 12.022 15.288 12.022 25.579 0 10.292-4.677 19.481-12.022 25.579 7.345 6.089 12.022 15.288 12.022 25.579 0 14.536-9.343 26.898-22.355 31.4z" fill="#de1d49"/><path d="m345.265 308.783c0-10.29 4.679-19.486 12.024-25.58-7.345-6.094-12.024-15.29-12.024-25.58 0-18.35 14.875-33.225 33.225-33.225s33.225 14.875 33.225 33.225c0 10.29-4.679 19.486-12.024 25.58 7.345 6.094 12.024 15.29 12.024 25.58s-4.679 19.486-12.024 25.58c7.345 6.094 12.024 15.29 12.024 25.58s-4.679 19.486-12.024 25.58c7.345 6.094 12.024 15.29 12.024 25.58 0 18.35-14.875 33.225-33.225 33.225s-33.225-14.875-33.225-33.225c0-10.29 4.679-19.486 12.024-25.58-7.345-6.094-12.024-15.29-12.024-25.58s4.679-19.486 12.024-25.58c-7.345-6.095-12.024-15.29-12.024-25.58z" fill="#e04b66"/><path d="m367.623 442.503c3.41 1.185 7.067 1.823 10.868 1.823 18.358 0 33.223-14.876 33.223-33.223 0-10.291-4.677-19.491-12.022-25.579 7.345-6.099 12.022-15.288 12.022-25.579s-4.677-19.491-12.022-25.579c7.345-6.099 12.022-15.298 12.022-25.579 0-10.291-4.677-19.491-12.022-25.59 7.345-6.088 12.022-15.288 12.022-25.579 0-18.348-14.865-33.223-33.223-33.223-3.801 0-7.458.639-10.868 1.823 13.011 4.502 22.355 16.864 22.355 31.4 0 10.291-4.677 19.491-12.022 25.579 7.345 6.099 12.022 15.298 12.022 25.59 0 10.281-4.677 19.481-12.022 25.579 7.345 6.088 12.022 15.288 12.022 25.579 0 10.292-4.677 19.481-12.022 25.579 7.345 6.089 12.022 15.288 12.022 25.579 0 14.536-9.344 26.898-22.355 31.4z" fill="#de1d49"/><path d="m194.783 354.156c7.345 6.099 12.022 15.288 12.022 25.579 0 9.344-3.853 17.781-10.065 23.818-.628.608-1.277 1.195-1.957 1.762 7.345 6.099 12.022 15.288 12.022 25.579 0 18.347-14.876 33.223-33.223 33.223s-33.223-14.876-33.223-33.223c0-10.291 4.677-19.481 12.022-25.579-7.345-6.088-12.022-15.288-12.022-25.579 0-3.276.474-6.449 1.37-9.447 1.885-6.397 5.656-11.981 10.652-16.132-7.345-6.099-12.022-15.288-12.022-25.579s4.677-19.491 12.022-25.579c-7.345-6.099-12.022-15.288-12.022-25.579 0-18.348 14.876-33.223 33.223-33.223s33.223 14.876 33.223 33.223c0 10.291-4.677 19.481-12.022 25.579 7.345 6.088 12.022 15.288 12.022 25.579s-4.677 19.48-12.022 25.578z" fill="#e04b66"/><path d="m194.783 354.156c7.345 6.099 12.022 15.288 12.022 25.579 0 9.344-3.853 17.781-10.065 23.818-21.531-5.512-40.558-17.286-55.011-33.264 1.885-6.397 5.656-11.981 10.652-16.132-7.345-6.099-12.022-15.288-12.022-25.579s4.677-19.491 12.022-25.579c-7.345-6.099-12.022-15.288-12.022-25.579 0-18.348 14.876-33.223 33.223-33.223s33.223 14.876 33.223 33.223c0 10.291-4.677 19.481-12.022 25.579 7.345 6.088 12.022 15.288 12.022 25.579s-4.677 19.48-12.022 25.578z" fill="#de1d49"/><path d="m184.449 462.296c-3.41 1.185-7.067 1.823-10.868 1.823-18.358 0-33.223-14.876-33.223-33.223 0-10.291 4.677-19.491 12.022-25.579-7.345-6.099-12.022-15.288-12.022-25.579s4.677-19.491 12.022-25.579c-7.345-6.099-12.022-15.298-12.022-25.579 0-10.291 4.677-19.491 12.022-25.59-7.345-6.088-12.022-15.288-12.022-25.579 0-18.348 14.865-33.223 33.223-33.223 3.801 0 7.458.639 10.868 1.823-13.011 4.502-22.355 16.864-22.355 31.4 0 10.291 4.677 19.491 12.022 25.579-7.345 6.099-12.022 15.298-12.022 25.59 0 10.281 4.677 19.481 12.022 25.579-7.345 6.088-12.022 15.288-12.022 25.579 0 10.292 4.677 19.481 12.022 25.579-7.345 6.089-12.022 15.288-12.022 25.579 0 14.536 9.344 26.898 22.355 31.4z" fill="#de1d49"/><path d="m166.737 308.783c0-10.29-4.679-19.486-12.024-25.58 7.345-6.094 12.024-15.29 12.024-25.58 0-18.35-14.875-33.225-33.225-33.225s-33.225 14.875-33.225 33.225c0 10.29 4.679 19.486 12.024 25.58-7.345 6.094-12.024 15.29-12.024 25.58s4.679 19.486 12.024 25.58c-7.345 6.094-12.024 15.29-12.024 25.58s4.679 19.486 12.024 25.58c-7.345 6.094-12.024 15.29-12.024 25.58 0 18.35 14.875 33.225 33.225 33.225s33.225-14.875 33.225-33.225c0-10.29-4.679-19.486-12.024-25.58 7.345-6.094 12.024-15.29 12.024-25.58s-4.679-19.486-12.024-25.58c7.345-6.095 12.024-15.29 12.024-25.58z" fill="#e04b66"/><path d="m144.378 442.503c-3.41 1.185-7.067 1.823-10.868 1.823-18.358 0-33.223-14.876-33.223-33.223 0-10.291 4.677-19.491 12.022-25.579-7.345-6.099-12.022-15.288-12.022-25.579s4.677-19.491 12.022-25.579c-7.345-6.099-12.022-15.298-12.022-25.579 0-10.291 4.677-19.491 12.022-25.59-7.345-6.088-12.022-15.288-12.022-25.579 0-18.348 14.865-33.223 33.223-33.223 3.801 0 7.458.639 10.868 1.823-13.011 4.502-22.355 16.864-22.355 31.4 0 10.291 4.677 19.491 12.022 25.579-7.345 6.099-12.022 15.298-12.022 25.59 0 10.281 4.677 19.481 12.022 25.579-7.345 6.088-12.022 15.288-12.022 25.579 0 10.292 4.677 19.481 12.022 25.579-7.345 6.089-12.022 15.288-12.022 25.579 0 14.536 9.344 26.898 22.355 31.4z" fill="#de1d49"/><path d="m134.883 198.298h-33.223c-7.81 0-15.225-21.168-21.406-25.004-11.481-7.127-19.127-19.849-19.127-34.357 0-17.999 11.771-33.243 28.033-38.47-4.854-6.668-7.725-14.873-7.725-23.752 0-22.317 18.092-40.409 40.409-40.409 2.031 0 4.025.154 5.975.443 1.852-20.6 19.154-36.747 40.236-36.747h175.89c21.082 0 38.384 16.147 40.236 36.747 1.95-.289 3.945-.443 5.975-.443 22.317 0 40.409 18.092 40.409 40.409 0 8.879-2.871 17.083-7.725 23.752 16.262 5.228 28.033 20.471 28.033 38.47 0 13.948-7.067 26.246-17.816 33.508-6.449 4.357-7.522 21.742-15.891 21.742h-36.313l-32.892 80.849h-191.842z" fill="#e04b66"/><path d="m233.413 179.343 21.366 95.693h-98.66l-27.996-87.685-30.436-4.165c-7.807 0-11.253-6.058-17.432-9.893-11.482-7.127-19.128-19.851-19.128-34.364 0-17.997 11.765-33.233 28.031-38.467-4.852-6.665-7.726-14.876-7.726-23.746 0-22.324 18.09-40.414 40.414-40.414 2.029 0 4.018.155 5.975.443 1.843-20.602 19.15-36.745 40.227-36.745h98.67c-21.088 0-38.384 16.143-40.239 36.746-1.947-.288-3.946-.443-5.975-.443-22.324 0-40.414 18.09-40.414 40.414 0 8.87 2.874 17.08 7.726 23.746-16.256 5.233-28.031 20.47-28.031 38.467 0 22.324 18.09 40.414 40.414 40.414h33.214z" fill="#de1d49"/><path d="m386.519 512h-261.047c21.192-35.821 56.7-62.167 98.653-71.144v-55.233h63.741v55.233c41.953 8.977 77.461 35.323 98.653 71.144z" fill="#ffddce"/><path d="m224.127 385.618h63.737v22.684h-63.737z" fill="#ffcbbe"/><path d="m242.531 385.618v55.238c-17.729 8.973-32.729 35.325-41.681 71.144h-75.378c21.191-35.819 56.701-62.171 98.65-71.144v-55.238z" fill="#ffcbbe"/><path d="m377.232 179.346v96.806c0 61.697-50.015 111.712-111.712 111.712h-19.038c-61.697 0-111.723-50.015-111.723-111.712v-96.806c5.831 9.756 16.493 16.287 28.69 16.287 9.22 0 17.565-3.74 23.612-9.787 6.037-6.037 9.776-14.392 9.776-23.612v-.824c5.913 9.416 16.38 15.679 28.309 15.679 6.954 0 13.413-2.122 18.76-5.769 5.347-3.637 9.581-8.777 12.094-14.824 5.017 12.084 16.936 20.593 30.854 20.593 5.965 0 11.559-1.566 16.411-4.306 4.842-2.74 8.932-6.665 11.888-11.373v.824c0 18.44 14.958 33.398 33.398 33.398 9.22 0 17.565-3.74 23.612-9.787 1.947-1.946 3.657-4.12 5.069-6.499z" fill="#ffddce"/><path d="m291.222 384.886c-8.252 1.947-16.854 2.977-25.703 2.977h-19.038c-61.697 0-111.723-50.015-111.723-111.712v-96.806c5.831 9.756 16.493 16.287 28.69 16.287 9.22 0 17.565-3.739 23.612-9.787 6.037-6.037 9.776-14.392 9.776-23.612v-.824c2.205 3.513 5.038 6.593 8.355 9.066v105.676c.001 52.859 36.717 97.136 86.031 108.735z" fill="#ffcbbe"/><path d="m133.044 311.528c7.345 6.089 12.022 15.288 12.022 25.579 0 18.348-14.876 33.223-33.223 33.223s-33.223-14.876-33.223-33.223c0-10.291 4.677-19.491 12.022-25.579-7.345-6.099-12.022-15.288-12.022-25.579s4.677-19.491 12.022-25.579c-7.345-6.099-12.022-15.288-12.022-25.579s4.677-19.491 12.022-25.579c-7.345-6.099-12.022-15.298-12.022-25.59 0-3.606.577-7.077 1.638-10.333 5.934 3.688 12.908 5.882 20.377 6.047.299.01.608.01.907.01h33.213c2.462 4.121 5.8 7.675 9.745 10.405-1.442 7.778-5.604 14.598-11.456 19.46 7.345 6.088 12.022 15.288 12.022 25.579s-4.677 19.481-12.022 25.579c7.345 6.088 12.022 15.288 12.022 25.579 0 7.335-2.38 14.103-6.397 19.604-1.618 2.216-3.513 4.224-5.625 5.976z" fill="#e04b66"/><path d="m122.711 368.507c-3.41 1.185-7.067 1.823-10.868 1.823-18.358 0-33.223-14.876-33.223-33.223 0-10.291 4.677-19.491 12.022-25.579-7.345-6.099-12.022-15.288-12.022-25.579s4.677-19.491 12.022-25.579c-7.345-6.099-12.022-15.298-12.022-25.579 0-10.291 4.677-19.491 12.022-25.589-7.345-6.089-12.022-15.288-12.022-25.579 0-3.606.577-7.077 1.638-10.333 5.934 3.688 12.908 5.882 20.377 6.047-.185 1.401-.278 2.833-.278 4.285 0 10.291 4.677 19.491 12.022 25.579-7.345 6.099-12.022 15.298-12.022 25.589 0 10.281 4.677 19.481 12.022 25.579-7.345 6.088-12.022 15.288-12.022 25.579s4.677 19.481 12.022 25.579c-7.345 6.089-12.022 15.288-12.022 25.579-.001 14.537 9.343 26.899 22.354 31.401z" fill="#de1d49"/><g fill="#2b4d66"><path d="m198.417 237.066c-2.924 0-5.626 1.292-7.84 3.462l-5.109-3.635c-3.477-2.473-8.301-1.66-10.775 1.817-2.473 3.477-1.66 8.301 1.817 10.775l8.393 5.971c0 .045-.005.087-.005.132 0 10.213 6.064 18.521 13.519 18.521s13.519-8.308 13.519-18.521-6.065-18.522-13.519-18.522z"/><path d="m337.305 238.711c-2.474-3.476-7.298-4.29-10.775-1.817l-5.109 3.635c-2.214-2.17-4.916-3.462-7.84-3.462-7.455 0-13.519 8.309-13.519 18.522s6.064 18.521 13.519 18.521c7.454 0 13.518-8.308 13.518-18.521 0-.044-.005-.087-.005-.132l8.393-5.971c3.478-2.474 4.292-7.298 1.818-10.775z"/></g><path d="m215.796 218.335c-1.977 0-3.955-.755-5.463-2.263-2.97-2.969-6.918-4.605-11.118-4.605s-8.148 1.636-11.118 4.605c-3.017 3.017-7.909 3.017-10.927 0s-3.018-7.909 0-10.927c12.155-12.156 31.934-12.156 44.089 0 3.018 3.017 3.018 7.909 0 10.927-1.508 1.508-3.485 2.263-5.463 2.263z" fill="#eaac9d"/><path d="m330.528 218.335c-1.977 0-3.955-.754-5.463-2.263-2.971-2.969-6.918-4.605-11.119-4.605-4.199 0-8.148 1.635-11.117 4.605-3.018 3.017-7.91 3.018-10.927 0-3.018-3.017-3.018-7.909-.001-10.927 5.888-5.888 13.717-9.131 22.044-9.131s16.156 3.243 22.044 9.131c3.018 3.017 3.018 7.909.001 10.927-1.507 1.508-3.485 2.263-5.462 2.263z" fill="#eaac9d"/><path d="m255.999 314.974c-14.268 0-27.077-9.541-31.151-23.203-1.219-4.09 1.108-8.393 5.197-9.612 4.089-1.218 8.392 1.108 9.612 5.197 2.135 7.163 8.856 12.165 16.342 12.165 7.495 0 14.213-4.999 16.339-12.157 1.213-4.091 5.518-6.423 9.606-5.208 4.091 1.215 6.423 5.516 5.207 9.606-4.057 13.668-16.868 23.212-31.152 23.212z" fill="#e04b66"/><path d="m283.749 27.174c-15.325 0-27.749 12.423-27.749 27.749 0-15.325-12.423-27.749-27.749-27.749-15.325 0-27.749 12.423-27.749 27.749v26.54c0 30.65 24.847 55.497 55.497 55.497s55.497-24.847 55.497-55.497v-26.54c.002-15.326-12.421-27.749-27.747-27.749z" fill="#ffc250"/><path d="m263.19 136.495c-2.359.309-4.749.464-7.191.464-30.648 0-55.496-24.848-55.496-55.496v-26.548c0-15.319 12.424-27.743 27.743-27.743 2.493 0 4.904.33 7.201.948-11.837 3.163-20.552 13.959-20.552 26.795v26.548c0 28.206 21.036 51.498 48.295 55.032z" fill="#e7a52e"/><circle cx="256.001" cy="81.958" fill="#ffc250" r="27.035"/><path d="m265.248 107.382c-2.884 1.04-5.996 1.617-9.251 1.617-14.927 0-27.032-12.105-27.032-27.042 0-14.927 12.105-27.032 27.032-27.032 3.255 0 6.367.577 9.251 1.617-10.374 3.781-17.791 13.732-17.791 25.415 0 11.693 7.418 21.645 17.791 25.425z" fill="#e7a52e"/><path d="m378.957 311.528c-7.345 6.089-12.022 15.288-12.022 25.579 0 18.348 14.876 33.223 33.223 33.223 18.348 0 33.223-14.876 33.223-33.223 0-10.291-4.677-19.491-12.022-25.579 7.345-6.099 12.022-15.288 12.022-25.579s-4.677-19.491-12.022-25.579c7.345-6.099 12.022-15.288 12.022-25.579s-4.677-19.491-12.022-25.579c7.345-6.099 12.022-15.298 12.022-25.59 0-3.606-.577-7.077-1.638-10.333-5.934 3.688-14.158-3.227-21.626-3.062-.299.01-.608.01-.907.01l-33.345 2.151c-2.462 4.121-4.418 14.633-8.364 17.363 1.442 7.778 5.604 14.598 11.456 19.46-7.345 6.088-12.022 15.288-12.022 25.579s4.677 19.481 12.022 25.579c-7.345 6.088-12.022 15.288-12.022 25.579 0 7.335 2.38 14.103 6.397 19.604 1.618 2.216 3.514 4.224 5.625 5.976z" fill="#e04b66"/><path d="m389.29 368.507c3.41 1.185 7.067 1.823 10.868 1.823 18.358 0 33.223-14.876 33.223-33.223 0-10.291-4.677-19.491-12.022-25.579 7.345-6.099 12.022-15.288 12.022-25.579s-4.677-19.491-12.022-25.579c7.345-6.099 12.022-15.298 12.022-25.579 0-10.291-4.677-19.491-12.022-25.589 7.345-6.089 12.022-15.288 12.022-25.579 0-3.606-.577-7.077-1.638-10.333-5.934 3.688-12.908 5.882-20.377 6.047.185 1.401.278 2.833.278 4.285 0 10.291-4.677 19.491-12.022 25.579 7.345 6.099 12.022 15.298 12.022 25.589 0 10.281-4.677 19.481-12.022 25.579 7.345 6.088 12.022 15.288 12.022 25.579s-4.677 19.481-12.022 25.579c7.345 6.089 12.022 15.288 12.022 25.579.001 14.537-9.343 26.899-22.354 31.401z" fill="#de1d49"/></g></svg>