<svg id="Capa_1" enable-background="new 0 0 512 512" height="512" viewBox="0 0 512 512" width="512" xmlns="http://www.w3.org/2000/svg"><g><path d="m439.893 512h-261.048c19.233-32.523 50.283-57.237 87.225-68.229 3.75-1.113 7.562-2.091 11.425-2.915v-15.576h63.747v15.576c3.874.824 7.685 1.803 11.445 2.926 36.943 10.991 67.972 35.705 87.206 68.218z" fill="#ffddce"/><path d="m352.688 443.781c-2.009.639-4.059 1.226-6.119 1.751h-.01c-8.839 2.256-18.111 3.451-27.671 3.451h-19.028c-11.775 0-23.138-1.823-33.79-5.213 3.75-1.113 7.562-2.091 11.425-2.915v-41.917l63.747 26.341v15.576c3.874.825 7.686 1.804 11.446 2.926z" fill="#ffcbbe"/><path d="m292.103 384.979v55.516c-23.622 9.024-43.608 35.5-55.537 71.505h-57.721c21.304-36.005 56.99-62.48 99.165-71.505v-55.516z" fill="#ffcbbe"/><path d="m467.842 162.893c12.568-16.976 20.003-37.981 20.003-60.725 0-56.426-45.742-102.168-102.168-102.168-30.346 0-57.596 13.235-76.308 34.241-18.713-21.006-45.963-34.241-76.309-34.241-56.426 0-102.168 45.742-102.168 102.168 0 22.744 7.435 43.749 20.003 60.725-21.344 4.597-37.345 23.57-37.345 46.289 0 26.156 21.203 47.359 47.359 47.359h296.917c26.156 0 47.359-21.203 47.359-47.359.001-22.719-15.999-41.693-37.343-46.289z" fill="#ede6e3"/><path d="m270.255 102.168c0 22.741 7.438 48.838 20 65.816-21.346 4.6-37.346 18.483-37.346 41.194 0 13.075 5.307 24.92 13.869 33.491 8.581 8.571 20.416 13.869 33.491 13.869h-139.358c-13.075 0-24.91-5.298-33.481-13.869s-13.869-20.416-13.869-33.491c0-22.711 16-41.685 37.336-46.285-12.562-16.978-20-37.985-20-60.725 0-56.425 45.743-102.168 102.168-102.168 26.924 0 51.428 10.431 69.674 27.467-19.99 18.644-32.484 45.21-32.484 74.701z" fill="#d8cec9"/><g fill="#ffcbbe"><circle cx="167.699" cy="272.881" r="40.809"/><circle cx="451.045" cy="272.881" r="40.809"/></g><path d="m193.294 283.876c-2.714 0-5.347-1.433-6.76-3.972-2.426-4.361-6.594-6.781-12.743-7.399-5.031-.506-9.388.486-9.431.496-4.139 1.016-8.328-1.518-9.345-5.662s1.518-8.328 5.663-9.345c.69-.17 6.972-1.636 14.657-.864 11.235 1.129 19.778 6.406 24.704 15.263 2.073 3.729.732 8.434-2.997 10.508-1.188.661-2.477.975-3.748.975z" fill="#eaac9d"/><path d="m425.451 283.876c-1.271 0-2.559-.314-3.749-.976-3.729-2.074-5.07-6.778-2.997-10.508 4.927-8.857 13.469-14.135 24.704-15.263 7.68-.772 13.966.694 14.657.864 4.144 1.017 6.679 5.201 5.662 9.345-1.014 4.134-5.187 6.665-9.314 5.67-.155-.035-4.668-1.055-9.83-.465-5.951.681-9.999 3.089-12.374 7.36-1.412 2.54-4.046 3.973-6.759 3.973z" fill="#eaac9d"/><path d="m430.606 164.262v151.544c0 52.137-35.727 95.941-84.032 108.262h-.01c-8.849 2.256-18.121 3.451-27.671 3.451h-19.038c-61.698 0-111.723-50.015-111.723-111.713v-151.554c13.351 11.26 30.596 18.049 49.428 18.049 8.746 0 17.142-1.463 24.982-4.162 21.582-7.428 38.807-24.209 46.832-45.513 10.941 29.03 38.961 49.675 71.814 49.675 18.831 0 36.066-6.779 49.418-18.039z" fill="#ede6e3"/><path d="m346.563 424.068c-8.849 2.256-18.121 3.451-27.671 3.451h-19.038c-61.698 0-111.723-50.015-111.723-111.713v-151.554c13.351 11.26 30.596 18.049 49.428 18.049 8.746 0 17.142-1.463 24.982-4.162v137.668c.001 52.137 35.727 95.93 84.022 108.261z" fill="#d8cec9"/><path d="m406.288 178.098v84.392c0 21.644-22.479 35.953-42.083 26.805-17.379-8.108-36.108-12.156-54.837-12.156-15.885 0-31.771 2.915-46.832 8.746-2.699 1.04-5.367 2.174-8.005 3.41h-.01c-19.604 9.148-42.083-5.161-42.083-26.805v-84.392c7.86 2.72 16.308 4.203 25.106 4.203 8.746 0 17.142-1.463 24.982-4.162h.01c21.582-7.438 38.797-24.209 46.822-45.513 10.941 29.031 38.962 49.675 71.814 49.675 8.798 0 17.245-1.473 25.116-4.203z" fill="#ffddce"/><path d="m262.537 178.139v107.747c-2.699 1.04-5.367 2.174-8.005 3.41h-.01c-19.604 9.148-42.083-5.161-42.083-26.805v-84.392c7.86 2.72 16.308 4.203 25.106 4.203 8.746 0 17.142-1.463 24.982-4.162h.01z" fill="#ffcbbe"/><g fill="#2b4d66"><path d="m251.79 231.914c-7.455 0-13.519 8.309-13.519 18.522s6.064 18.522 13.519 18.522c7.454 0 13.518-8.309 13.518-18.522s-6.064-18.522-13.518-18.522z"/><path d="m366.955 231.914c-7.455 0-13.519 8.309-13.519 18.522s6.064 18.522 13.519 18.522c7.454 0 13.518-8.309 13.518-18.522s-6.064-18.522-13.518-18.522z"/></g><g fill="#d8cec9"><path d="m367.32 220.05c-8.327 0-16.156-3.243-22.044-9.131-3.017-3.017-3.017-7.909.001-10.927 3.017-3.017 7.909-3.017 10.927 0 2.969 2.97 6.917 4.605 11.117 4.605s8.148-1.636 11.119-4.605c3.017-3.017 7.909-3.017 10.927 0 3.017 3.017 3.017 7.909-.001 10.927-5.89 5.888-13.719 9.131-22.046 9.131z"/><path d="m252.589 220.035c-7.984 0-15.967-3.039-22.044-9.116-3.018-3.017-3.018-7.909-.001-10.927 3.018-3.017 7.91-3.017 10.927 0 6.13 6.13 16.105 6.131 22.236 0 3.017-3.017 7.909-3.017 10.927 0 3.017 3.017 3.017 7.909-.001 10.927-6.078 6.077-14.061 9.116-22.044 9.116z"/><path d="m309.372 325.802c-14.269 0-27.078-9.541-31.151-23.203-1.219-4.089 1.108-8.393 5.197-9.612 4.092-1.22 8.392 1.108 9.612 5.197 2.135 7.162 8.855 12.165 16.342 12.165 7.495 0 14.213-4.999 16.339-12.157 1.214-4.091 5.517-6.423 9.606-5.207 4.091 1.215 6.423 5.515 5.207 9.606-4.057 13.666-16.868 23.211-31.152 23.211z"/></g><g><path d="m408.544 31.498-14.041 50.778h-170.269l-14.041-50.778c-2.411-8.736 6.861-16.091 14.814-11.754l39.075 21.314.278.155c4.615 2.514 10.384 1.143 13.361-3.183l23.2-33.594c4.08-5.913 12.816-5.913 16.895 0l23.189 33.594c2.987 4.327 8.757 5.697 13.372 3.183l39.343-21.469c7.963-4.338 17.235 3.018 14.824 11.754z" fill="#ffc250"/><path d="m272.715 82.275h-48.48l-14.041-50.778c-2.411-8.736 6.861-16.091 14.814-11.754l39.075 21.314z" fill="#e7a52e"/></g><path d="m65.557 160.696h28.784v324.132h-28.784z" fill="#365e7d"/><path d="m65.557 160.696h13.661v324.132h-13.661z" fill="#2b4d66"/><path d="m82.579 446.843h-5.26c-12.759 0-23.102 10.343-23.102 23.102v18.953c0 12.759 10.343 23.102 23.102 23.102h5.26c12.759 0 23.102-10.343 23.102-23.102v-18.953c0-12.759-10.343-23.102-23.102-23.102z" fill="#ffddce"/><path d="m90.737 510.511c-2.534.958-5.285 1.483-8.159 1.483h-5.264c-12.754 0-23.097-10.343-23.097-23.097v-18.955c0-12.754 10.343-23.097 23.097-23.097h5.264c2.874 0 5.625.525 8.159 1.483-8.726 3.297-14.938 11.734-14.938 21.613v18.955c0 9.881 6.212 18.319 14.938 21.615z" fill="#ffcbbe"/><path d="m153.079 86.968v82.744c0 32.028-26.064 58.092-58.092 58.092h-30.081c-32.028 0-58.092-26.064-58.092-58.092v-82.744c0-8.54 6.923-15.453 15.453-15.453 8.54 0 15.453 6.913 15.453 15.453v82.744c0 14.845 11.981 26.95 26.774 27.176v-83.888c0-8.53 6.923-15.453 15.453-15.453 8.54 0 15.453 6.923 15.453 15.453v83.888c14.804-.227 26.775-12.331 26.775-27.176v-82.744c0-8.54 6.923-15.453 15.453-15.453 2.297 0 4.481.505 6.439 1.401 5.324 2.442 9.012 7.809 9.012 14.052z" fill="#ffc250"/><g fill="#e7a52e"><path d="m144.137 72.968c-5.274 2.452-8.942 7.788-8.942 14v82.744c0 14.845-11.971 26.95-26.774 27.176h-13.022c14.804-.227 26.775-12.331 26.775-27.176v-82.744c0-8.54 6.923-15.453 15.453-15.453 2.297 0 4.481.505 6.439 1.401.019.031.05.041.071.052z"/><path d="m19.836 169.708v-82.743c0-6.206 3.666-11.542 8.944-14-1.98-.923-4.18-1.452-6.509-1.452-8.534 0-15.453 6.919-15.453 15.453v82.743c0 32.032 26.06 58.093 58.093 58.093h13.018c-32.033-.001-58.093-26.062-58.093-58.094z"/><path d="m77.514 200.443v-87.442c0-6.206 3.666-11.542 8.944-14-1.98-.923-4.18-1.452-6.509-1.452-8.534 0-15.453 6.919-15.453 15.453v83.884c3.853 2.197 8.29 3.485 13.018 3.557z"/></g></g></svg>