<svg id="Capa_1" enable-background="new 0 0 497 497" height="512" viewBox="0 0 497 497" width="512" xmlns="http://www.w3.org/2000/svg"><g><path d="m398.213 432.872h-79.853l-76.294-31.482-63.426 31.482h-79.853c-29.202 0-52.876 23.673-52.876 52.876v11.252h405.176v-11.253c.001-29.202-23.672-52.875-52.874-52.875z" fill="#9d6b6b"/><path d="m59.509 221.032c-18.958-49.262 32.876-114.698 52.5-137.016 3.507-3.988 9.92-3.22 12.383 1.485 4.222 8.065 10.201 20.642 14.754 34.849 2.245 7.004 12.113 7.129 14.412.142 10.409-31.632 34.556-78.387 90.455-119.033 2.674-1.944 6.3-1.944 8.974 0 55.899 40.646 80.046 87.401 90.455 119.033 2.299 6.987 12.168 6.862 14.412-.142 4.553-14.207 10.531-26.784 14.754-34.849 2.463-4.705 8.876-5.473 12.383-1.485 19.624 22.318 71.458 87.754 52.5 137.016l-190.205 27.468z" fill="#e04b66"/><g fill="#de1d49"><path d="m248.418.001v.1c-1.03.03-2.04.49-2.83 1.36-32.63 36.54-48.59 78.01-56.39 108.99-4.93 19.58-28.33 27.35-43.97 15.13 3.37.51 7.04-1.17 8.33-5.09 10.41-31.63 34.56-78.39 90.46-119.03 1.32-.96 2.86-1.44 4.4-1.46z"/><path d="m97.299 221.032 150.12 27.45-.14.02-187.77-27.47c-18.96-49.26 32.87-114.7 52.5-137.01 3.5-3.99 9.92-3.22 12.38 1.48 1.74 3.32 3.77 7.41 5.89 12.06-18.35 29-45.76 81.98-32.98 123.47z"/><path d="m247.419 248.482 1.11-.16-1 .18z"/></g><path d="m338.816 221.03-91.53 27.47-29.77-9.18-59.33-18.29c-9.06-23.54 15.71-54.81 25.09-65.48 1.67-1.9 4.74-1.53 5.92.71 2.01 3.86 4.87 9.87 7.05 16.66 1.07 3.34 5.78 3.4 6.88.07 4.98-15.12 16.52-37.46 43.23-56.89 1.28-.93 3.01-.93 4.29 0 26.71 19.43 38.25 41.77 43.23 56.89 1.09 3.33 5.81 3.27 6.88-.07 2.18-6.79 5.04-12.8 7.05-16.66 1.18-2.24 4.24-2.61 5.92-.71 9.38 10.67 34.15 41.94 25.09 65.48z" fill="#ffc250"/><path d="m217.576 229.13c.27 3.76.24 7.15-.06 10.19l-59.33-18.29c-9.06-23.54 15.71-54.81 25.09-65.48 1.67-1.9 4.74-1.53 5.92.71 2.01 3.86 4.87 9.87 7.05 16.66 1.07 3.34 5.78 3.4 6.88.07 4.98-15.12 16.52-37.46 43.23-56.89 0 0-33.44 49.19-28.78 113.03z" fill="#e7a52e"/><path d="m461.42 221.03v68.78c0 4.9-.25 9.74-.73 14.51-.51 5.08-1.29 10.09-2.32 15-1.18 5.64-2.69 11.15-4.52 16.53-1.74 5.14-3.77 10.14-6.07 15-22.9 48.48-72.24 82.02-129.42 82.02h-139.72c-57.18 0-106.52-33.54-129.42-82.02-2.3-4.86-4.33-9.86-6.07-15-1.83-5.38-3.34-10.89-4.52-16.53-1.03-4.91-1.81-9.92-2.32-15-.48-4.77-.73-9.61-.73-14.51v-68.78z" fill="#ede6e3"/><path d="m296.83 432.87h-118.19c-57.18 0-106.52-33.54-129.42-82.02-2.3-4.86-4.33-9.86-6.07-15-4.91-14.45-7.57-29.93-7.57-46.04v-68.78h118.19v68.78c0 16.11 2.66 31.59 7.57 46.04 1.74 5.14 3.77 10.14 6.07 15 22.9 48.48 72.24 82.02 129.42 82.02z" fill="#d8cec9"/><path d="m453.85 335.85c-1.74 5.14-3.77 10.14-6.07 15h-398.56c-2.3-4.86-4.33-9.86-6.07-15z" fill="#d8cec9"/><path d="m130.3 251.29v60.53c0 4.14-3.36 7.5-7.5 7.5h-84.17c-1.03-4.91-1.81-9.92-2.32-15h78.99v-45.53h-45.53v15.27h22.76c4.14 0 7.5 3.36 7.5 7.5s-3.36 7.5-7.5 7.5h-30.26c-4.14 0-7.5-3.36-7.5-7.5v-30.27c0-4.14 3.36-7.5 7.5-7.5h60.53c4.14 0 7.5 3.36 7.5 7.5z" fill="#c4bcb7"/><path d="m322.371 319.32h-147.742c-4.143 0-7.5-3.358-7.5-7.5v-60.526c0-4.142 3.357-7.5 7.5-7.5h60.525c4.143 0 7.5 3.358 7.5 7.5v30.263c0 4.142-3.357 7.5-7.5 7.5h-30.263c-4.143 0-7.5-3.358-7.5-7.5s3.357-7.5 7.5-7.5h22.763v-15.263h-45.525v45.526h132.742v-45.526h-45.525v15.263h22.763c4.143 0 7.5 3.358 7.5 7.5s-3.357 7.5-7.5 7.5h-30.263c-4.143 0-7.5-3.358-7.5-7.5v-30.263c0-4.142 3.357-7.5 7.5-7.5h60.525c4.143 0 7.5 3.358 7.5 7.5v60.526c0 4.142-3.357 7.5-7.5 7.5z" fill="#d8cec9"/><path d="m460.69 304.32c-.51 5.08-1.29 10.09-2.32 15h-84.17c-4.14 0-7.5-3.36-7.5-7.5v-60.53c0-4.14 3.36-7.5 7.5-7.5h60.53c4.14 0 7.5 3.36 7.5 7.5v30.27c0 4.14-3.36 7.5-7.5 7.5h-30.26c-4.14 0-7.5-3.36-7.5-7.5s3.36-7.5 7.5-7.5h22.76v-15.27h-45.53v45.53z" fill="#d8cec9"/><path d="m167.41 350.85h-118.19c-2.3-4.86-4.33-9.86-6.07-15h118.19c1.74 5.14 3.77 10.14 6.07 15z" fill="#c4bcb7"/><path d="m213.892 432.87c-29.2 0-52.88 23.67-52.88 52.88v11.25h-115.1v-11.25c0-29.21 23.67-52.88 52.88-52.88z" fill="#8b5e5e"/></g></svg>