<svg id="Capa_1" enable-background="new 0 0 512 512" height="512" viewBox="0 0 512 512" width="512" xmlns="http://www.w3.org/2000/svg"><g><g><path d="m386.828 512h-261.646c21.242-35.902 56.825-62.305 98.877-71.309v-55.352h63.882v55.352c42.052 9.004 77.644 35.407 98.887 71.309z" fill="#ffddce"/><g fill="#ffcbbe"><path d="m287.941 385.339v24.261c-7.242 1.473-14.742 2.246-22.417 2.246h-19.038c-7.685 0-15.185-.773-22.427-2.246v-24.261z"/><path d="m242.507 385.33v55.364c-17.77 8.993-32.803 35.405-41.776 71.306h-75.55c21.239-35.901 56.83-62.313 98.875-71.306v-55.364z"/></g></g><path d="m402.878 150.972c11.648-15.734 18.539-35.202 18.539-56.281 0-52.297-42.395-94.691-94.691-94.691-28.125 0-53.381 12.266-70.724 31.735-17.343-19.469-42.599-31.735-70.724-31.735-52.296 0-94.691 42.394-94.691 94.691 0 21.079 6.891 40.547 18.539 56.281-19.782 4.26-34.612 21.845-34.612 42.901 0 24.242 19.652 43.893 43.893 43.893h275.188c24.242 0 43.893-19.652 43.893-43.893.001-21.056-14.828-38.641-34.61-42.901z" fill="#e04b66"/><path d="m247.569 237.764h-129.16c-12.118 0-23.087-4.91-31.031-12.854s-12.854-18.922-12.854-31.04c0-21.049 14.829-38.634 34.604-42.898-11.642-15.735-18.536-35.205-18.536-56.281-.001-52.296 42.394-94.691 94.69-94.691 24.954 0 47.664 9.667 64.576 25.457-102.564 53.027-44.29 219.395-2.289 212.307z" fill="#de1d49"/><g fill="#ffcbbe"><circle cx="114.332" cy="272.881" r="40.809"/><circle cx="397.679" cy="272.881" r="40.809"/></g><path d="m139.574 283.291c-2.637.001-5.206-1.35-6.65-3.782-6.01-10.118-21.802-6.535-21.962-6.499-4.143.977-8.306-1.576-9.3-5.711-.993-4.135 1.522-8.291 5.652-9.304.676-.166 6.815-1.596 14.358-.894 11.024 1.03 19.509 6.049 24.537 14.517 2.179 3.669.971 8.409-2.697 10.589-1.238.734-2.597 1.084-3.938 1.084z" fill="#eaac9d"/><path d="m372.43 283.291c-1.343 0-2.703-.35-3.941-1.087-3.668-2.181-4.873-6.922-2.692-10.59 5.034-8.466 13.521-13.484 24.545-14.514 7.546-.705 13.684.728 14.359.894 4.144 1.017 6.679 5.201 5.662 9.345s-5.199 6.681-9.345 5.662c-.123-.029-15.92-3.611-21.939 6.51-1.445 2.431-4.013 3.78-6.649 3.78z" fill="#eaac9d"/><path d="m134.142 361.853c0 11.217 9.093 20.31 20.31 20.31 11.217 0 20.31-9.093 20.31-20.31v22.677c0 11.217 9.093 20.31 20.31 20.31 11.217 0 20.31-9.093 20.31-20.31v14.731c0 11.217 9.093 20.31 20.31 20.31 11.217 0 20.31-9.093 20.31-20.31 0 11.217 9.093 20.31 20.31 20.31 11.217 0 20.31-9.093 20.31-20.31v-14.731c0 11.217 9.093 20.31 20.31 20.31 11.217 0 20.31-9.093 20.31-20.31v-22.677c0 11.217 9.093 20.31 20.31 20.31 11.217 0 20.31-9.093 20.31-20.31l-.623-197.591c-13.351 11.26-30.586 18.038-49.418 18.038-32.853 0-60.873-20.645-71.814-49.675-10.941 29.03-38.961 49.675-71.814 49.675-18.832 0-36.077-6.789-49.428-18.049z" fill="#e04b66"/><path d="m199.919 389.606c0 4.904 1.731 9.395 4.615 12.898-2.823 1.494-6.047 2.339-9.467 2.339-11.208 0-20.305-9.097-20.305-20.315v-22.674c0 5.614-2.277 10.683-5.954 14.361-3.667 3.678-8.757 5.954-14.361 5.954-11.208 0-20.305-9.096-20.305-20.315l.618-197.599c13.351 11.26 30.596 18.049 49.428 18.049 5.563 0 10.982-.587 16.205-1.72z" fill="#de1d49"/><path d="m352.124 178.376v102.276c0 31.925-25.878 57.814-57.803 57.814h-79.087c-5.275 0-10.374-.7-15.226-2.04-24.539-6.676-42.577-29.123-42.577-55.774v-103.152c8.334 3.101 17.359 4.801 26.774 4.801 5.542 0 10.951-.587 16.153-1.71 25.662-5.491 46.564-23.828 55.661-47.965 10.941 29.03 38.961 49.675 71.814 49.675 8.488 0 16.657-1.37 24.291-3.925z" fill="#ffddce"/><path d="m200.358 180.591-.35 155.836c-24.539-6.676-42.577-29.123-42.577-55.774v-103.153c8.334 3.101 17.359 4.801 26.774 4.801 5.542 0 10.95-.587 16.153-1.71z" fill="#ffcbbe"/><g fill="#2b4d66"><ellipse cx="198.423" cy="250.436" rx="13.519" ry="18.522"/><ellipse cx="313.588" cy="250.436" rx="13.519" ry="18.522"/></g><path d="m215.803 218.333c-1.977 0-3.955-.755-5.463-2.263-6.131-6.13-16.105-6.13-22.235 0-3.017 3.017-7.909 3.017-10.927 0s-3.018-7.909 0-10.927c12.155-12.156 31.934-12.156 44.089 0 3.018 3.017 3.018 7.909 0 10.927-1.509 1.508-3.487 2.263-5.464 2.263z" fill="#eaac9d"/><path d="m330.535 218.333c-1.977 0-3.955-.755-5.463-2.263-2.97-2.969-6.918-4.605-11.118-4.605s-8.147 1.635-11.117 4.605c-3.017 3.017-7.909 3.018-10.927 0-3.017-3.017-3.018-7.909 0-10.927 5.888-5.888 13.717-9.131 22.044-9.131s16.156 3.243 22.044 9.131c3.018 3.017 3.018 7.909 0 10.927-1.509 1.508-3.486 2.263-5.463 2.263z" fill="#eaac9d"/><path d="m256.006 308.147c-14.267 0-27.077-9.541-31.15-23.203-1.22-4.089 1.107-8.392 5.196-9.612 4.085-1.222 8.392 1.107 9.612 5.196 2.136 7.163 8.857 12.165 16.343 12.165 7.495 0 14.214-4.999 16.339-12.157 1.215-4.092 5.515-6.423 9.606-5.208s6.422 5.516 5.208 9.606c-4.06 13.668-16.87 23.213-31.154 23.213z" fill="#eaa598"/><g fill="#ede6e3"><path d="m373.365 58.837c17.887-6.591 41.578-22.149 56.426-58.831 0 0 49.18 73.14-34.29 111.458-16.382 7.521-35.563-1.827-39.717-19.368l-.162-.682c-3.267-13.796 4.44-27.675 17.743-32.577z"/><path d="m138.639 58.837c-17.887-6.591-41.578-22.149-56.426-58.831 0 0-49.18 73.14 34.29 111.458 16.382 7.521 35.563-1.827 39.717-19.368l.162-.682c3.268-13.796-4.44-27.675-17.743-32.577z"/></g><g fill="#d8cec9"><path d="m430.153.554c-4.255 38.343-22.324 59.503-37.416 70.701-11.384 8.448-14.876 23.931-7.86 36.252l.35.608c1.143 1.999 2.483 3.812 3.977 5.408-14.69 2.967-29.793-6.109-33.419-21.428l-.165-.68c-3.266-13.805 4.44-27.681 17.74-32.585 17.894-6.593 41.578-22.149 56.433-58.823-.001.001.123.186.36.547z"/><path d="m155.63 94.208c-5.13 16.164-23.416 24.467-39.126 17.256-83.476-38.323-34.295-111.455-34.295-111.455 1.617 4.007 3.348 7.757 5.161 11.27-5.779 24.683-2.73 59.441 46.544 82.054 7.201 3.307 14.947 3.358 21.716.875z"/></g></g></svg>