<svg id="Capa_1" enable-background="new 0 0 512 512" height="512" viewBox="0 0 512 512" width="512" xmlns="http://www.w3.org/2000/svg"><g><circle cx="268.057" cy="243.863" fill="#9d6b6b" r="243.863"/><path d="m282.339 487.311c-4.727.278-9.485.412-14.284.412-134.685 0-243.86-109.175-243.86-243.86 0-134.675 109.175-243.86 243.86-243.86 4.799 0 9.557.134 14.284.412-128.032 7.394-229.576 113.562-229.576 243.448 0 129.885 101.544 236.054 229.576 243.448z" fill="#8b5e5e"/><circle cx="268.057" cy="243.863" fill="#ffc250" r="148.653"/><path d="m287.735 391.225c-6.437.855-13.007 1.298-19.681 1.298-82.1 0-148.65-66.56-148.65-148.66s66.55-148.65 148.65-148.65c6.673 0 13.244.443 19.681 1.298-72.801 9.619-128.99 71.925-128.99 147.352s56.189 137.743 128.99 147.362z" fill="#e7a52e"/><g><path d="m398.834 178.703-228.014 228.014-65.459-65.46 228.013-228.013 59.132 6.335z" fill="#ede6e3"/><path d="m392.506 119.579-247.443 247.443-32.733-32.734 221.044-221.044z" fill="#d8cec9"/><path d="m64.945 363.018h60.275v107.964h-60.275z" fill="#365e7d" transform="matrix(.707 .707 -.707 .707 322.713 54.903)"/><path d="m70.562 349.457h21.918v107.964h-21.918z" fill="#2b4d66" transform="matrix(.707 .707 -.707 .707 309.152 60.521)"/><circle cx="30.22" cy="481.863" fill="#e04b66" r="30.137"/><path d="m19.483 510.027c-3.867-1.464-7.479-3.75-10.581-6.853-11.768-11.767-11.76-30.854.008-42.622s30.847-11.768 42.615 0c3.102 3.102 5.389 6.714 6.852 10.581-10.749-4.092-23.376-1.806-32.034 6.853-8.658 8.658-10.945 21.286-6.86 32.041z" fill="#de1d49"/><path d="m87.424 467.279-42.621-42.621c-7.757-7.757-20.334-7.757-28.091 0-7.757 7.757-7.757 20.334 0 28.091l42.621 42.621c7.757 7.757 20.334 7.757 28.091 0 7.757-7.757 7.757-20.333 0-28.091z" fill="#ffc250"/><path d="m32.456 460.269c0 5.083 1.937 10.166 5.818 14.047l-21.563-21.563c-3.881-3.881-5.818-8.964-5.818-14.047s1.937-10.166 5.818-14.047c7.755-7.755 20.332-7.763 28.095 0l21.563 21.563c-7.756-7.756-20.339-7.755-28.095 0-3.881 3.881-5.818 8.964-5.818 14.047z" fill="#e7a52e"/><path d="m198.825 406.623-93.365-93.365c-7.757-7.757-20.334-7.757-28.091 0-7.757 7.757-7.757 20.334 0 28.091l93.365 93.365c7.757 7.757 20.334 7.757 28.091 0 7.757-7.757 7.757-20.334 0-28.091z" fill="#ffc250"/><path d="m101.072 356.813c0 5.083 1.944 10.173 5.818 14.048l-29.522-29.522c-3.874-3.874-5.811-8.957-5.811-14.04s1.937-10.166 5.811-14.04c7.763-7.763 20.332-7.763 28.088-.007l29.522 29.522c-7.756-7.756-20.332-7.763-28.095 0-3.874 3.873-5.811 8.956-5.811 14.039z" fill="#e7a52e"/></g><g><circle cx="268.057" cy="47.605" fill="#ede6e3" r="19.851"/><path d="m275.302 66.091c-2.245.886-4.686 1.37-7.24 1.37-10.958 0-19.856-8.888-19.856-19.856 0-10.958 8.898-19.845 19.856-19.845 2.554 0 4.995.484 7.24 1.37-7.384 2.894-12.605 10.072-12.605 18.476-.001 8.413 5.221 15.591 12.605 18.485z" fill="#d8cec9"/><circle cx="268.053" cy="440.116" fill="#ede6e3" r="19.851"/><path d="m275.297 458.602c-2.245.886-4.686 1.37-7.24 1.37-10.958 0-19.856-8.888-19.856-19.856 0-10.958 8.898-19.845 19.856-19.845 2.554 0 4.995.484 7.24 1.37-7.384 2.894-12.605 10.072-12.605 18.476 0 8.413 5.221 15.591 12.605 18.485z" fill="#d8cec9"/></g><g><circle cx="169.928" cy="73.897" fill="#ede6e3" r="19.851"/><path d="m177.173 92.383c-2.245.886-4.686 1.37-7.24 1.37-10.958 0-19.856-8.888-19.856-19.856 0-10.958 8.898-19.845 19.856-19.845 2.554 0 4.995.484 7.24 1.37-7.384 2.894-12.605 10.072-12.605 18.476-.001 8.413 5.22 15.591 12.605 18.485z" fill="#d8cec9"/><circle cx="366.181" cy="413.823" fill="#ede6e3" r="19.851"/><path d="m373.425 432.309c-2.245.886-4.686 1.37-7.24 1.37-10.958 0-19.856-8.888-19.856-19.856 0-10.958 8.898-19.845 19.856-19.845 2.554 0 4.995.484 7.24 1.37-7.384 2.894-12.605 10.072-12.605 18.476 0 8.413 5.221 15.591 12.605 18.485z" fill="#d8cec9"/></g><g><circle cx="98.092" cy="145.732" fill="#ede6e3" r="19.851"/><path d="m105.336 164.218c-2.245.886-4.686 1.37-7.24 1.37-10.958 0-19.856-8.888-19.856-19.856 0-10.958 8.898-19.845 19.856-19.845 2.554 0 4.995.484 7.24 1.37-7.384 2.894-12.605 10.072-12.605 18.476 0 8.413 5.221 15.591 12.605 18.485z" fill="#d8cec9"/><circle cx="438.016" cy="341.988" fill="#ede6e3" r="19.851"/><path d="m445.26 360.474c-2.245.886-4.686 1.37-7.24 1.37-10.958 0-19.856-8.888-19.856-19.856 0-10.958 8.898-19.845 19.856-19.845 2.554 0 4.995.484 7.24 1.37-7.384 2.894-12.605 10.072-12.605 18.476-.001 8.413 5.221 15.591 12.605 18.485z" fill="#d8cec9"/></g><g><circle cx="71.799" cy="243.858" fill="#ede6e3" r="19.851"/><path d="m79.044 262.344c-2.245.886-4.686 1.37-7.24 1.37-10.958 0-19.856-8.888-19.856-19.856 0-10.958 8.898-19.845 19.856-19.845 2.554 0 4.995.484 7.24 1.37-7.384 2.894-12.605 10.072-12.605 18.476-.001 8.413 5.221 15.591 12.605 18.485z" fill="#d8cec9"/><circle cx="464.309" cy="243.86" fill="#ede6e3" r="19.851"/><path d="m471.553 262.346c-2.245.886-4.686 1.37-7.24 1.37-10.958 0-19.856-8.888-19.856-19.856 0-10.958 8.898-19.845 19.856-19.845 2.554 0 4.995.484 7.24 1.37-7.384 2.894-12.605 10.072-12.605 18.476 0 8.414 5.221 15.591 12.605 18.485z" fill="#d8cec9"/></g><g><circle cx="438.016" cy="145.733" fill="#ede6e3" r="19.851"/><path d="m445.26 164.218c-2.245.886-4.686 1.37-7.24 1.37-10.958 0-19.856-8.888-19.856-19.856 0-10.958 8.898-19.845 19.856-19.845 2.554 0 4.995.484 7.24 1.37-7.384 2.894-12.605 10.072-12.605 18.476-.001 8.414 5.221 15.591 12.605 18.485z" fill="#d8cec9"/></g><g><circle cx="366.181" cy="73.898" fill="#ede6e3" r="19.851"/><path d="m373.425 92.384c-2.245.886-4.686 1.37-7.24 1.37-10.958 0-19.856-8.888-19.856-19.856 0-10.958 8.898-19.845 19.856-19.845 2.554 0 4.995.484 7.24 1.37-7.384 2.894-12.605 10.072-12.605 18.476 0 8.413 5.221 15.591 12.605 18.485z" fill="#d8cec9"/></g></g></svg>