<svg id="Capa_1" enable-background="new 0 0 512 512" height="512" viewBox="0 0 512 512" width="512" xmlns="http://www.w3.org/2000/svg"><g><path d="m247.561 8.719-219.917 105.585c-18.7 8.978-12.305 37.074 8.439 37.074h439.834c20.744 0 27.139-28.095 8.439-37.074l-219.917-105.585c-5.335-2.562-11.543-2.562-16.878 0z" fill="#ede6e3"/><path d="m406.899 123.9c-1.121 0-2.26-.245-3.339-.763l-147.56-70.846-147.56 70.846c-3.848 1.846-8.462.225-10.309-3.621-1.847-3.847-.225-8.462 3.621-10.309l150.904-72.451c2.114-1.015 4.574-1.015 6.688 0l150.904 72.451c3.847 1.847 5.468 6.463 3.621 10.309-1.328 2.768-4.092 4.383-6.97 4.384z" fill="#d8cec9"/><g><g><path d="m68.961 179.463h72.461v232.4h-72.461z" fill="#ede6e3"/><path d="m68.961 179.463h26.589v232.4h-26.589z" fill="#d8cec9"/><path d="m141.422 194.614h-72.461c-11.939 0-21.618-9.679-21.618-21.618 0-11.939 9.679-21.618 21.618-21.618l37.608-24.254 34.853 24.254c11.939 0 21.618 9.679 21.618 21.618 0 11.939-9.679 21.618-21.618 21.618z" fill="#ede6e3"/><path d="m112.371 194.616h-43.407c-11.939 0-21.621-9.682-21.621-21.621 0-5.965 2.423-11.369 6.337-15.284 3.914-3.914 9.319-6.327 15.284-6.327h43.407c-5.964 0-11.369 2.413-15.284 6.327-3.914 3.914-6.337 9.319-6.337 15.284 0 11.94 9.682 21.621 21.621 21.621z" fill="#d8cec9"/><path d="m141.422 439.948-37.608 21.871-34.853-21.871c-11.939 0-21.618-9.679-21.618-21.618 0-11.939 9.679-21.618 21.618-21.618h72.461c11.939 0 21.618 9.679 21.618 21.618 0 11.94-9.679 21.618-21.618 21.618z" fill="#ede6e3"/><path d="m112.371 439.951h-43.407c-11.939 0-21.621-9.682-21.621-21.621 0-5.965 2.423-11.369 6.337-15.284 3.914-3.914 9.319-6.327 15.284-6.327h43.407c-5.964 0-11.369 2.413-15.284 6.327-3.914 3.914-6.337 9.319-6.337 15.284 0 11.939 9.682 21.621 21.621 21.621z" fill="#d8cec9"/></g><g><path d="m219.769 179.463h72.461v232.4h-72.461z" fill="#ede6e3"/><path d="m219.769 179.463h26.589v232.4h-26.589z" fill="#d8cec9"/><path d="m292.231 194.614h-72.461c-11.939 0-21.618-9.679-21.618-21.618 0-11.939 9.679-21.618 21.618-21.618l37.608-24.254 34.853 24.254c11.939 0 21.618 9.679 21.618 21.618 0 11.939-9.679 21.618-21.618 21.618z" fill="#ede6e3"/><path d="m263.179 194.616h-43.407c-11.939 0-21.621-9.682-21.621-21.621 0-5.965 2.423-11.369 6.337-15.284 3.914-3.914 9.319-6.327 15.284-6.327h43.407c-5.964 0-11.369 2.413-15.283 6.327s-6.337 9.319-6.337 15.284c-.001 11.94 9.681 21.621 21.62 21.621z" fill="#d8cec9"/><path d="m292.231 439.948-37.608 21.871-34.853-21.871c-11.939 0-21.618-9.679-21.618-21.618 0-11.939 9.679-21.618 21.618-21.618h72.461c11.939 0 21.618 9.679 21.618 21.618 0 11.94-9.679 21.618-21.618 21.618z" fill="#ede6e3"/><path d="m263.179 439.951h-43.407c-11.939 0-21.621-9.682-21.621-21.621 0-5.965 2.423-11.369 6.337-15.284 3.914-3.914 9.319-6.327 15.284-6.327h43.407c-5.964 0-11.369 2.413-15.283 6.327s-6.337 9.319-6.337 15.284c-.001 11.939 9.681 21.621 21.62 21.621z" fill="#d8cec9"/></g><g><path d="m370.578 179.463h72.461v232.4h-72.461z" fill="#ede6e3"/><path d="m370.578 179.463h26.589v232.4h-26.589z" fill="#d8cec9"/><path d="m443.039 194.614h-72.461c-11.939 0-21.618-9.679-21.618-21.618 0-11.939 9.679-21.618 21.618-21.618l37.608-24.254 34.853 24.254c11.939 0 21.618 9.679 21.618 21.618 0 11.939-9.679 21.618-21.618 21.618z" fill="#ede6e3"/><path d="m413.988 194.616h-43.407c-11.939 0-21.621-9.682-21.621-21.621 0-5.965 2.423-11.369 6.337-15.284 3.914-3.914 9.319-6.327 15.284-6.327h43.407c-5.964 0-11.369 2.413-15.283 6.327s-6.337 9.319-6.337 15.284c-.001 11.94 9.681 21.621 21.62 21.621z" fill="#d8cec9"/><path d="m443.039 439.948-37.608 21.871-34.853-21.871c-11.939 0-21.618-9.679-21.618-21.618 0-11.939 9.679-21.618 21.618-21.618h72.461c11.939 0 21.618 9.679 21.618 21.618 0 11.94-9.679 21.618-21.618 21.618z" fill="#ede6e3"/><path d="m413.988 439.951h-43.407c-11.939 0-21.621-9.682-21.621-21.621 0-5.965 2.423-11.369 6.337-15.284 3.914-3.914 9.319-6.327 15.284-6.327h43.407c-5.964 0-11.369 2.413-15.283 6.327s-6.337 9.319-6.337 15.284c-.001 11.939 9.681 21.621 21.62 21.621z" fill="#d8cec9"/></g></g><path d="m475.891 472.577-208.84 13.758-230.942-13.758c-9.01 0-16.314-7.304-16.314-16.314 0-9.01 7.304-16.314 16.314-16.314h439.781c9.01 0 16.314 7.304 16.314 16.314.001 9.01-7.303 16.314-16.313 16.314z" fill="#ede6e3"/><path d="m495.686 505.205h-479.372c-9.01 0-16.314-7.304-16.314-16.314 0-9.01 7.304-16.314 16.314-16.314h479.371c9.01 0 16.314 7.304 16.314 16.314.001 9.01-7.303 16.314-16.313 16.314z" fill="#ede6e3"/><g fill="#d8cec9"><path d="m99.649 494.871c-9.009 0-16.319-7.3-16.319-16.308 0-2.113.404-4.132 1.139-5.985l-.003-.001h391.429c4.504 0 8.584-1.823 11.535-4.774 2.382-2.381 4.038-5.509 4.577-8.998h-399.423c-9.009 0-16.319-7.3-16.319-16.309 0-.87.073-1.719.197-2.547h-40.353c-4.504 0-8.584 1.823-11.535 4.784-2.951 2.951-4.774 7.031-4.774 11.535 0 9.008 7.3 16.309 16.309 16.309h.002l-.002.001h-19.795c-4.504 0-8.584 1.822-11.535 4.773s-4.774 7.031-4.774 11.535c0 9.019 7.3 16.319 16.309 16.319h479.382c4.504 0 8.584-1.822 11.535-4.774 1.564-1.574 2.817-3.458 3.634-5.56z"/><circle cx="256" cy="99.667" r="23.816"/><path d="m84.922 151.381h-48.83c-20.748 0-27.145-28.093-8.447-37.076l219.922-105.584c2.668-1.288 5.553-1.927 8.437-1.927-2.246 0-4.492.639-6.562 1.927l-171.082 105.583c-14.556 8.984-9.58 37.077 6.562 37.077z"/></g></g></svg>