<svg id="Capa_1" enable-background="new 0 0 512 512" height="512" viewBox="0 0 512 512" width="512" xmlns="http://www.w3.org/2000/svg"><g><path d="m48.724 430.552h37.179v43.927h-37.179z" fill="#365e7d"/><path d="m434.033 512h-262.387c13.434-22.715 32.595-41.63 55.496-54.764h151.395c22.901 13.134 42.062 32.049 55.496 54.764z" fill="#ede6e3"/><path d="m378.535 457.236-2.802 2.802c-36.273 30.988-87.359 35.201-127.66 12.63-6.346-3.534-12.424-7.757-18.131-12.63l-2.802-2.802c13.403-7.695 28.093-13.413 43.669-16.74v-55.516h64.067v55.516c15.566 3.327 30.256 9.044 43.659 16.74z" fill="#ffddce"/><path d="m284.899 384.976v55.516c-13.825 5.285-26.393 16.534-36.829 32.173-6.346-3.534-12.424-7.757-18.131-12.63l-2.802-2.802c13.403-7.695 28.093-13.413 43.669-16.74v-55.516h14.093z" fill="#ffcbbe"/><path d="m334.875 384.979v22.849c-7.263 1.473-14.773 2.246-22.468 2.246h-19.13c-7.695 0-15.205-.773-22.468-2.246v-22.849z" fill="#ffcbbe"/><path d="m248.075 472.668c-7.417 11.095-13.763 24.395-18.708 39.332h-57.721c13.434-22.715 32.595-41.63 55.496-54.764l2.802 2.802c5.707 4.872 11.785 9.096 18.131 12.63z" fill="#d8cec9"/><path d="m302.84 494.613c-20.578 0-41.155-5.252-59.509-15.755-3.704-2.119-4.988-6.84-2.868-10.543 2.12-3.705 6.842-4.987 10.543-2.868 31.971 18.297 71.694 18.296 103.667 0 3.703-2.12 8.424-.836 10.543 2.868 2.12 3.703.836 8.424-2.868 10.543-18.354 10.504-38.931 15.755-59.508 15.755z" fill="#365e7d"/><g><g><circle cx="379.856" cy="460.032" fill="#eca900" r="24.551"/><path d="m390.084 482.366c-3.111 1.432-6.573 2.225-10.219 2.225-13.567 0-24.56-10.992-24.56-24.56 0-13.557 10.992-24.549 24.56-24.549 3.647 0 7.108.793 10.219 2.225-8.458 3.863-14.34 12.414-14.34 22.324 0 9.921 5.882 18.461 14.34 22.335z" fill="#e7a52e"/></g><g><circle cx="225.823" cy="460.032" fill="#eca900" r="24.551"/><path d="m236.051 482.366c-3.111 1.432-6.573 2.225-10.219 2.225-13.567 0-24.56-10.992-24.56-24.56 0-13.557 10.992-24.549 24.56-24.549 3.647 0 7.108.793 10.219 2.225-8.458 3.863-14.34 12.414-14.34 22.324 0 9.921 5.883 18.461 14.34 22.335z" fill="#e7a52e"/></g></g><path d="m431.304 281.371c27.529 0 49.845-22.316 49.845-49.845 0-9.006-2.401-17.447-6.579-24.739 11.894-9.11 19.57-23.449 19.57-39.588 0-23.612-16.424-43.375-38.467-48.525 4.831-7.678 7.635-16.759 7.635-26.5 0-27.529-22.316-49.845-49.845-49.845-5.169 0-10.154.787-14.843 2.248-2.631-25.051-23.816-44.577-49.565-44.577-21.575 0-39.944 13.709-46.882 32.889-6.939-19.18-25.308-32.889-46.883-32.889-25.749 0-46.935 19.526-49.566 44.578-4.688-1.461-9.674-2.248-14.843-2.248-27.529 0-49.845 22.316-49.845 49.845 0 9.741 2.805 18.822 7.635 26.5-22.043 5.149-38.467 24.913-38.467 48.525 0 16.139 7.677 30.478 19.57 39.588-4.178 7.292-6.579 15.732-6.579 24.739 0 27.529 22.316 49.845 49.845 49.845" fill="#365e7d"/><path d="m299.304 26.446c-2.936 5.511-4.873 11.631-5.553 18.131-4.687-1.463-9.674-2.246-14.845-2.246-27.527 0-49.85 22.314-49.85 49.85 0 9.735 2.812 18.821 7.644 26.496-22.046 5.151-38.467 24.91-38.467 48.522 0 16.143 7.675 30.483 19.563 39.59-4.172 7.294-6.573 15.731-6.573 24.735 0 27.537 22.314 49.85 49.84 49.85h-88.019c-27.527 0-49.84-22.314-49.84-49.85 0-9.004 2.4-17.441 6.573-24.735-11.888-9.107-19.573-23.447-19.573-39.59 0-23.612 16.431-43.371 38.467-48.522-4.821-7.675-7.634-16.761-7.634-26.496 0-27.537 22.324-49.85 49.85-49.85 5.172 0 10.147.783 14.845 2.246 2.627-25.054 23.818-44.576 49.562-44.576 19.069.001 35.635 10.714 44.01 26.445z" fill="#2b4d66"/><g fill="#ffcbbe"><circle cx="160.5" cy="272.883" r="40.809"/><circle cx="443.845" cy="272.883" r="40.809"/></g><path d="m180.944 283.878c-2.714 0-5.347-1.433-6.76-3.972-2.375-4.271-6.423-6.679-12.375-7.36-5.225-.597-9.788.455-9.833.465-4.141.975-8.306-1.576-9.3-5.711-.993-4.135 1.522-8.291 5.652-9.304.692-.17 6.976-1.635 14.657-.865 11.235 1.129 19.778 6.407 24.704 15.264 2.074 3.729.732 8.434-2.997 10.508-1.189.661-2.478.975-3.748.975z" fill="#eaac9d"/><path d="m423.401 283.878c-1.271 0-2.559-.314-3.748-.975-3.729-2.074-5.071-6.779-2.997-10.508 4.926-8.857 13.468-14.135 24.704-15.264 7.681-.771 13.965.695 14.657.865 4.144 1.017 6.679 5.201 5.662 9.345-1.015 4.134-5.181 6.663-9.314 5.67-.153-.035-4.667-1.053-9.829-.465-5.952.681-10 3.089-12.375 7.36-1.413 2.54-4.046 3.972-6.76 3.972z" fill="#eaac9d"/><path d="m423.405 197.249v78.902c0 61.697-50.015 111.713-111.713 111.713h-19.038c-61.698 0-111.713-50.015-111.713-111.713v-78.902c20.985-.01 38.209-16.04 40.115-36.53 5.12 2.359 10.807 3.678 16.813 3.678 17.359 0 32.162-10.971 37.828-26.373 7.077 6.181 16.339 9.931 26.476 9.931s19.388-3.75 26.476-9.931c5.666 15.401 20.459 26.373 37.828 26.373 6.006 0 11.693-1.319 16.813-3.678 1.906 20.49 19.14 36.53 40.115 36.53z" fill="#ffddce"/><path d="m337.076 384.958c-8.159 1.906-16.658 2.905-25.384 2.905h-19.038c-61.698 0-111.713-50.015-111.713-111.713v-78.902c20.985-.01 38.209-16.04 40.115-36.53 5.12 2.359 10.807 3.678 16.813 3.678 5.924 0 11.538-1.277 16.596-3.564-2.431 9.539-3.719 19.532-3.719 29.834v85.485c.001 52.961 36.86 97.321 86.33 108.807z" fill="#ffcbbe"/><g fill="#2b4d66"><path d="m244.59 231.916c-7.454 0-13.519 8.309-13.519 18.522s6.064 18.521 13.519 18.521 13.519-8.308 13.519-18.521-6.065-18.522-13.519-18.522z"/><path d="m359.755 231.916c-7.454 0-13.519 8.309-13.519 18.522s6.065 18.521 13.519 18.521 13.519-8.308 13.519-18.521-6.065-18.522-13.519-18.522z"/></g><path d="m257.113 224.908c-17.19 0-31.175-13.985-31.175-31.175 0-4.267 3.459-7.726 7.726-7.726s7.726 3.459 7.726 7.726c0 8.67 7.053 15.722 15.722 15.722 4.267 0 7.726 3.459 7.726 7.726.002 4.268-3.458 7.727-7.725 7.727z" fill="#eaac9d"/><path d="m348.396 224.908c-4.267 0-7.726-3.459-7.726-7.726s3.459-7.726 7.726-7.726c8.67 0 15.722-7.053 15.722-15.722 0-4.267 3.459-7.726 7.726-7.726s7.726 3.459 7.726 7.726c.001 17.19-13.984 31.174-31.174 31.174z" fill="#eaac9d"/><path d="m302.173 304.673c-14.268 0-27.077-9.541-31.151-23.203-1.219-4.09 1.108-8.393 5.197-9.612 4.09-1.219 8.392 1.108 9.612 5.197 2.135 7.163 8.856 12.165 16.342 12.165 7.495 0 14.214-4.999 16.339-12.157 1.215-4.091 5.515-6.422 9.606-5.208 4.091 1.215 6.422 5.516 5.208 9.606-4.059 13.667-16.869 23.212-31.153 23.212z" fill="#eaa598"/><path d="m69.366 446.843h-5.26c-12.759 0-23.102 10.343-23.102 23.102v18.953c0 12.759 10.343 23.102 23.102 23.102h5.26c12.759 0 23.102-10.343 23.102-23.102v-18.953c0-12.759-10.343-23.102-23.102-23.102z" fill="#ffddce"/><path d="m77.524 510.511c-2.534.958-5.285 1.483-8.159 1.483h-5.265c-12.754 0-23.097-10.343-23.097-23.097v-18.955c0-12.754 10.343-23.097 23.097-23.097h5.264c2.874 0 5.625.525 8.159 1.483-8.726 3.297-14.938 11.734-14.938 21.613v18.955c.001 9.881 6.213 18.319 14.939 21.615z" fill="#ffcbbe"/><path d="m99.169 273.462v140.794l-34.158 32.583-30.857-32.583v-140.794l32.502-29.804z" fill="#ede6e3"/><path d="m99.322 414.261h-65.172c-8.997 0-16.291 7.294-16.291 16.291 0 8.997 7.294 16.291 16.291 16.291h65.171c8.997 0 16.291-7.294 16.291-16.291 0-8.997-7.293-16.291-16.29-16.291z" fill="#9d6b6b"/><path d="m53.494 442.07c2.946 2.946 7.026 4.77 11.517 4.77h-30.854c-4.502 0-8.581-1.823-11.528-4.77-2.946-2.946-4.77-7.026-4.77-11.517 0-8.993 7.294-16.287 16.297-16.287h30.854c-8.993 0-16.287 7.294-16.287 16.287.001 4.491 1.824 8.57 4.771 11.517z" fill="#8b5e5e"/><path d="m66.656 243.658v170.598h-32.502v-140.794z" fill="#d8cec9"/></g></svg>