<svg id="Capa_1" enable-background="new 0 0 512 512" height="512" viewBox="0 0 512 512" width="512" xmlns="http://www.w3.org/2000/svg"><g><path d="m268.086 246.64-5.613-16.821c-15.086-45.277-12.009-94.658 8.578-137.697 2.107-4.401 6.34-6.676 10.592-6.676 3.674 0 7.347 1.697 9.697 5.166l31.329 46.303 35.655-128.318c3.133-11.338 19.152-11.506 22.527-.242l30.303 101.017c7.609 25.393 9.644 52.074 6.019 78.223-.668 4.819 5.24 7.658 8.571 4.111 5.701-6.072 12.66-14.419 18.634-24.307 3.429-5.675 12.083-3.665 12.62 2.945 3.047 37.456-3.268 112.052-94.116 142.444" fill="#e04b66"/><path d="m279.561 229.464c0-28.223 33.705-66.592 33.705-66.592s16.444 32.887 16.444 60.293c0 0 26.036-28.776 35.628-65.775 0 0 44.95 89.34-22.745 135.11l-59.342-14.523z" fill="#ffc250"/><path d="m240.435 400.09-15.484 15.483-11.754 11.754-39.044 39.044-11.754 11.754-23.56 23.56c-13.753 13.752-36.046 13.752-49.799 0l-24.292-24.292c-11.816-11.816-13.485-29.937-4.976-43.525 1.38-2.235 3.039-4.337 4.976-6.274l101.596-101.596 72.164 1.926z" fill="#ede6e3"/><path d="m90.4 502.97c-.449-.42-.911-.854-1.353-1.295l-24.289-24.289c-13.75-13.75-13.751-36.043-.007-49.786l101.599-101.599 72.166 1.917.695 26.242-45.924-1.222-101.6 101.599c-13.302 13.301-13.729 34.603-1.287 48.433z" fill="#d8cec9"/><path d="m362.882 312.787-109.234-109.234c-8.892-8.892-23.309-8.892-32.201 0l-33.931 33.931 141.435 141.435 33.931-33.931c8.892-8.892 8.892-23.309 0-32.201z" fill="#ede6e3"/><path d="m298.114 248.026c-8.89-8.901-23.303-8.901-32.203 0l-33.924 33.923-44.462-44.463 33.924-33.934c8.89-8.89 23.313-8.89 32.203 0z" fill="#d8cec9"/><path d="m267.421 427.074-128.06-128.06c-19.395-19.395-19.395-50.841 0-70.237 19.395-19.395 50.841-19.395 70.236 0l128.059 128.059c19.395 19.395 19.395 50.841 0 70.237-19.394 19.396-50.84 19.396-70.235.001z" fill="#365e7d"/><path d="m209.589 369.255-70.235-70.235c-19.392-19.392-19.392-50.843.007-70.242 9.7-9.7 22.401-14.546 35.118-14.546 12.709.007 25.425 4.853 35.118 14.546l70.235 70.235c-9.693-9.693-22.409-14.539-35.118-14.546-12.716 0-25.418 4.846-35.118 14.546-19.399 19.4-19.399 50.85-.007 70.242z" fill="#2b4d66"/><path d="m174.154 466.371-11.754 11.754-102.627-44.256c1.38-2.235 3.039-4.337 4.976-6.274l5.872-5.872z" fill="#d8cec9"/><path d="m224.952 415.573-11.755 11.754-103.532-44.648 11.754-11.754z" fill="#d8cec9"/><g><g><circle cx="262.731" cy="352.152" fill="#ffc250" r="18.877"/><path d="m255.276 369.493c-2.142-.918-4.145-2.251-5.893-3.999-7.372-7.372-7.372-19.318 0-26.69s19.326-7.379 26.698-.007c1.748 1.748 3.081 3.751 3.999 5.893-6.898-2.965-15.195-1.632-20.819 3.992-5.624 5.623-6.957 13.92-3.985 20.811z" fill="#e7a52e"/></g><g><circle cx="214.284" cy="303.704" fill="#ffc250" r="18.877"/><path d="m206.828 321.045c-2.142-.918-4.145-2.251-5.893-3.999-7.372-7.372-7.372-19.318 0-26.69s19.326-7.379 26.698-.007c1.748 1.748 3.081 3.751 3.999 5.893-6.898-2.965-15.195-1.632-20.819 3.992-5.624 5.623-6.957 13.92-3.985 20.811z" fill="#e7a52e"/></g><g><circle cx="165.836" cy="255.256" fill="#ffc250" r="18.877"/><path d="m158.381 272.597c-2.142-.918-4.145-2.251-5.893-3.999-7.372-7.372-7.372-19.318 0-26.69s19.326-7.379 26.698-.007c1.748 1.748 3.081 3.751 3.999 5.893-6.898-2.965-15.195-1.632-20.819 3.992s-6.957 13.92-3.985 20.811z" fill="#e7a52e"/></g><g><circle cx="311.179" cy="400.599" fill="#ffc250" r="18.877"/><path d="m303.723 417.94c-2.142-.918-4.145-2.251-5.893-3.999-7.372-7.372-7.372-19.319 0-26.69 7.372-7.372 19.326-7.379 26.698-.007 1.748 1.748 3.081 3.751 3.999 5.893-6.898-2.965-15.195-1.632-20.819 3.992-5.624 5.623-6.957 13.92-3.985 20.811z" fill="#e7a52e"/></g></g></g></svg>