<svg id="Capa_1" enable-background="new 0 0 512 512" height="512" viewBox="0 0 512 512" width="512" xmlns="http://www.w3.org/2000/svg"><g><path d="m188.14 0h30.238v339.672h-30.238z" fill="#9d6b6b"/><path d="m188.14 249.989h30.238v44.842h-30.238z" fill="#8b5e5e"/><path d="m188.14 0h15.119v339.672h-15.119z" fill="#8b5e5e"/><path d="m489.072 479.842h-479.45v-57.048c27.93 0 49.237-22.836 49.237-49.112 0-4.412-.599-8.928-1.87-13.443l-10.499-37.303h337.589c11.821 0 22.526-4.784 30.265-12.534 8.029-8.029 12.885-19.23 12.524-31.567-.692-23.229-20.232-41.487-43.471-41.487v-49.288c28.746 5.9 54.434 20.18 74.418 40.164 26.68 26.669 43.171 63.517 43.171 104.229 0 23.797-5.652 46.281-15.675 66.183-6.985 13.887-6.675 29.945.269 43.088 2.397 4.557 5.611 8.762 9.579 12.41l2.893 2.656c8.917 8.183 3.13 23.052-8.98 23.052z" fill="#9d6b6b"/><path d="m457.877 280.137v.011c0 23.631-19.157 42.789-42.789 42.789h-31.009c11.821 0 22.526-4.784 30.265-12.534 8.029-8.029 12.885-19.23 12.524-31.567-.692-23.229-20.232-41.487-43.471-41.487h31.691c23.631-.001 42.789 19.157 42.789 42.788z" fill="#8b5e5e"/><path d="m489.075 479.842h-479.453v-57.048c27.93 0 49.237-22.836 49.237-49.112 0-4.412-.599-8.928-1.87-13.443l-10.499-37.303h44.731c-6.458 32.445-17.049 118.788 53.277 118.788h341.081c2.397 4.557 5.611 8.762 9.579 12.41l2.892 2.654c8.917 8.183 3.127 23.054-8.975 23.054z" fill="#8b5e5e"/><path d="m456.541 391.061c0-24.966-20.239-45.204-45.204-45.204s-45.204 20.239-45.204 45.204z" fill="#ede6e3"/><path d="m411.337 345.728c-7.782 0-14.112 8.671-14.112 19.328s6.33 19.329 14.112 19.329 14.112-8.671 14.112-19.329-6.331-19.328-14.112-19.328z" fill="#2b4d66"/><path d="m329.266 275.759h-281.764c47.388-71.659 47.388-170.248 0-241.907h281.765c47.378 71.659 47.378 170.248-.001 241.907z" fill="#ede6e3"/><path d="m169.866 275.756h-122.363c47.387-71.659 47.387-170.246 0-241.905h125.711c32.838 45.661 69.882 132.376-3.348 241.905z" fill="#d8cec9"/><g><path d="m180.436 154.805c0 43.731-11.765 85.433-34.078 120.953h-18.451l2.823-4.265c22.406-33.893 34.254-74.235 34.254-116.689 0-42.443-11.847-82.796-34.254-116.689l-2.823-4.265h18.44c22.325 35.522 34.089 77.235 34.089 120.955z" fill="#4073c8"/><path d="m282.867 154.805c0 43.731-11.765 85.433-34.078 120.953h-18.451l2.823-4.265c22.406-33.893 34.254-74.235 34.254-116.689 0-42.443-11.847-82.796-34.254-116.689l-2.823-4.265h18.44c22.324 35.522 34.089 77.235 34.089 120.955z" fill="#698ed5"/></g><g><g><path d="m329.779 397.013-22.268 50.187c7.45 6.882 10.075 17.979 5.745 27.754l-10.013 22.567c-5.456 12.286-19.829 17.835-32.115 12.379l-8.297-3.679h-.01l-3.741-1.663c-12.286-5.445-17.824-19.829-12.379-32.115l10.013-22.567c4.34-9.775 14.321-15.283 24.417-14.373l22.257-50.187c2.387-5.383 7.677-8.587 13.206-8.587.134 0 .269 0 .403.011 1.819.051 3.668.455 5.435 1.23 7.295 3.234 10.581 11.759 7.347 19.043z" fill="#ffc250"/><path d="m316.997 376.74-27.672 62.401c-4.65 1.509-10.715 8.742-15.055 18.517l-10.013 22.578c-5.445 12.265-6.086 23.9-1.436 25.987l-3.741-1.663c-12.286-5.445-17.824-19.829-12.379-32.115l10.013-22.567c4.34-9.775 14.321-15.283 24.417-14.373l22.257-50.187c2.387-5.383 7.677-8.587 13.206-8.587.134-.001.269-.001.403.009z" fill="#e7a52e"/></g></g><g><g><path d="m234.254 397.013-22.268 50.187c7.45 6.882 10.075 17.979 5.745 27.754l-10.013 22.567c-5.456 12.286-19.829 17.835-32.115 12.379l-8.297-3.679h-.01l-3.741-1.663c-12.286-5.445-17.824-19.829-12.379-32.115l10.013-22.567c4.34-9.775 14.321-15.283 24.417-14.373l22.257-50.187c2.387-5.383 7.677-8.587 13.206-8.587.134 0 .269 0 .403.011 1.819.051 3.668.455 5.435 1.23 7.296 3.234 10.581 11.759 7.347 19.043z" fill="#ffc250"/><path d="m221.472 376.74-27.672 62.401c-4.65 1.509-10.715 8.742-15.055 18.517l-10.013 22.578c-5.445 12.265-6.086 23.9-1.436 25.987l-3.741-1.663c-12.286-5.445-17.824-19.829-12.379-32.115l10.013-22.567c4.34-9.775 14.321-15.283 24.417-14.373l22.257-50.187c2.387-5.383 7.677-8.587 13.206-8.587.135-.001.269-.001.403.009z" fill="#e7a52e"/></g></g><g><g><path d="m138.73 397.013-22.268 50.187c7.45 6.882 10.075 17.979 5.745 27.754l-10.013 22.567c-5.456 12.286-19.829 17.835-32.115 12.379l-8.297-3.679h-.01l-3.741-1.663c-12.286-5.445-17.824-19.829-12.379-32.115l10.013-22.567c4.34-9.775 14.321-15.283 24.417-14.373l22.257-50.187c2.387-5.383 7.677-8.587 13.206-8.587.134 0 .269 0 .403.011 1.819.051 3.668.455 5.435 1.23 7.295 3.234 10.581 11.759 7.347 19.043z" fill="#ffc250"/><path d="m125.948 376.74-27.672 62.401c-4.65 1.509-10.715 8.742-15.055 18.517l-10.013 22.578c-5.445 12.265-6.086 23.9-1.436 25.987l-3.741-1.663c-12.286-5.445-17.824-19.829-12.379-32.115l10.013-22.567c4.34-9.775 14.321-15.283 24.417-14.373l22.257-50.187c2.387-5.383 7.677-8.587 13.206-8.587.134-.001.268-.001.403.009z" fill="#e7a52e"/></g></g></g></svg>