<svg id="Capa_1" enable-background="new 0 0 512 512" height="512" viewBox="0 0 512 512" width="512" xmlns="http://www.w3.org/2000/svg"><g><circle cx="96.253" cy="490.191" fill="#ffc250" r="21.808"/><circle cx="184.944" cy="490.191" fill="#ffc250" r="21.808"/><circle cx="273.635" cy="490.191" fill="#ffc250" r="21.808"/><circle cx="362.327" cy="490.191" fill="#ffc250" r="21.808"/><path d="m104.433 510.413c-2.524 1.02-5.285 1.587-8.18 1.587-12.043 0-21.809-9.766-21.809-21.809s9.766-21.809 21.809-21.809c2.895 0 5.656.567 8.18 1.587-7.994 3.235-13.629 11.074-13.629 20.223-.001 9.147 5.634 16.987 13.629 20.221z" fill="#e7a52e"/><path d="m193.131 510.413c-2.524 1.02-5.285 1.587-8.18 1.587-12.043 0-21.809-9.766-21.809-21.809s9.766-21.809 21.809-21.809c2.895 0 5.656.567 8.18 1.587-7.994 3.235-13.64 11.064-13.64 20.223.001 9.157 5.646 16.987 13.64 20.221z" fill="#e7a52e"/><path d="m281.819 510.413c-2.524 1.02-5.285 1.587-8.18 1.587-12.043 0-21.809-9.766-21.809-21.809s9.766-21.809 21.809-21.809c2.895 0 5.656.567 8.18 1.587-7.994 3.235-13.629 11.074-13.629 20.223 0 9.147 5.635 16.987 13.629 20.221z" fill="#e7a52e"/><path d="m370.507 510.413c-2.524 1.02-5.285 1.587-8.18 1.587-12.043 0-21.809-9.766-21.809-21.809s9.766-21.809 21.809-21.809c2.895 0 5.656.567 8.18 1.587-7.994 3.235-13.629 11.074-13.629 20.223 0 9.147 5.635 16.987 13.629 20.221z" fill="#e7a52e"/><path d="m81.981 305.489h-65.262l2.583-2.583c21.709-21.709 33.906-51.154 33.906-81.855v-43.005c0-14.618 5.924-27.846 15.504-37.416 9.57-9.581 22.798-15.504 37.416-15.504 28.289 0 51.396 22.19 52.848 50.108" fill="#9d6b6b"/><path d="m123.652 128.092c-7.582 2.648-14.371 6.974-19.924 12.537-9.581 9.57-15.504 22.798-15.504 37.416v43c0 30.709-12.197 60.152-33.903 81.858l-2.586 2.586h-35.016l2.586-2.586c21.706-21.706 33.903-51.149 33.903-81.858v-43c0-14.618 5.924-27.846 15.504-37.416 9.57-9.581 22.798-15.504 37.416-15.504 6.14 0 12.043 1.041 17.524 2.967z" fill="#8b5e5e"/><path d="m495.281 115.669v82.476c0 18.698-15.164 33.862-33.862 33.862-6.49 0-12.702-1.854-17.987-5.172-5.295-3.327-9.663-8.107-12.496-13.949l-5.944-12.269h-20.696c-4.646 0-9.169-.546-13.495-1.576v54.435c0 23.097-7.86 44.359-21.057 61.255v116.792l-24.664 16.308-27.741-16.308v-81.899c-8.344 2.267-17.111 3.482-26.167 3.482h-121.099c-12.517 11.219-28.402 18.76-45.956 20.923v57.494h-42.135v-162.069c0-53.085 43.041-96.126 96.126-96.126h79.612v-14.423c.001-87.761 71.145-158.905 158.906-158.905h49.5v63.727c17.483 10.683 29.155 29.947 29.155 51.942z" fill="#9d6b6b"/><g fill="#8b5e5e"><path d="m459.161 0c-87.761 0-158.906 71.144-158.906 158.905v14.423h-42.536v-14.423c0-87.761 71.145-158.905 158.905-158.905z"/><path d="m345.079 331.697v116.133l-27.743-16.309v-81.899z"/><path d="m243.791 173.33c-53.085 0-96.126 43.041-96.126 96.126v98.094c-7.366 3.235-15.267 5.46-23.55 6.48v57.494l-16.177 15.278-25.958-15.278v-162.068c0-53.085 43.041-96.126 96.126-96.126z"/><path d="m416.913 54.836 49.212-54.836v63.727"/><path d="m477.005 228.204c-4.542 2.366-9.679 3.727-15.135 3.798-13.326.174-25.441-7.759-31.244-19.757l-5.624-11.629h-20.707c-32.055 0-58.04-25.986-58.04-58.04v-17.091h14.072c9.439 0 17.09 7.652 17.09 17.09 0 32.055 25.986 58.04 58.04 58.04h8.253c7.61 0 14.55 4.35 17.868 11.198l.519 1.071c2.823 5.841 7.201 10.621 12.486 13.949.784.495 1.598.959 2.422 1.371z"/><path d="m367.701 54.836 49.212-54.836v54.836"/><path d="m194.828 290.315c0 24.086-9.344 46.255-24.755 62.789-12.517 11.219-28.402 18.76-45.956 20.923v2.431c-3.904-1.834-7.634-2.844-11.013-2.431v7.726h-.01c-3.843 0-7.18-2.874-7.654-6.789-.525-4.234 2.493-8.087 6.727-8.612 38.312-4.698 67.209-37.385 67.209-76.038 0-4.265 3.461-7.726 7.726-7.726 4.265.001 7.726 3.462 7.726 7.727z"/><path d="m467.817 149.098c-1.977 0-3.955-.755-5.463-2.263l-15.261-15.261c-3.018-3.017-3.018-7.909 0-10.927 3.017-3.017 7.909-3.017 10.927 0l15.261 15.261c3.018 3.017 3.018 7.909 0 10.927-1.509 1.508-3.487 2.263-5.464 2.263z"/></g><path d="m384.196 468.383h-309.139c-10.18 0-18.432-8.252-18.432-18.432 0-10.18 8.252-18.432 18.432-18.432h309.139c10.18 0 18.432 8.252 18.432 18.432 0 10.18-8.252 18.432-18.432 18.432z" fill="#ffc250"/><path d="m107.939 468.381h-32.884c-10.178 0-18.43-8.251-18.43-18.43 0-5.09 2.06-9.705 5.398-13.042 3.338-3.338 7.943-5.398 13.032-5.398h32.883c-5.089 0-9.694 2.06-13.032 5.398s-5.398 7.953-5.398 13.042c.001 10.178 8.253 18.43 18.431 18.43z" fill="#e7a52e"/></g></svg>