<svg id="Capa_1" enable-background="new 0 0 512 512" height="512" viewBox="0 0 512 512" width="512" xmlns="http://www.w3.org/2000/svg"><g><g><ellipse cx="366.725" cy="286.847" fill="#b3e59f" rx="24.632" ry="44.228" transform="matrix(.961 -.278 .278 .961 -65.28 113.237)"/><path d="m354.432 244.362 24.587 84.97c-16.752-4.711-30.762-17.695-35.954-35.638-5.193-17.944-.283-36.412 11.367-49.332z" fill="#95d6a4"/></g><g><ellipse cx="481.949" cy="264.014" fill="#b3e59f" rx="24.632" ry="44.228" transform="matrix(.802 -.597 .597 .802 -62.281 340.119)"/><path d="m455.533 228.542 52.832 70.945c-17.34 1.465-35.015-5.779-46.172-20.761-11.156-14.982-13.037-33.998-6.66-50.184z" fill="#95d6a4"/></g><g><ellipse cx="445.656" cy="357.5" fill="#b3e59f" rx="24.632" ry="44.228" transform="matrix(.33 -.944 .944 .33 -38.9 660.19)"/><path d="m487.405 372.097-83.499-29.195c13.546-10.924 32.246-14.819 49.879-8.654 17.633 6.166 29.841 20.868 33.62 37.849z" fill="#95d6a4"/></g><g><ellipse cx="332.498" cy="409.669" fill="#b3e59f" rx="24.632" ry="44.228" transform="matrix(.868 -.497 .497 .868 -159.66 219.5)"/><path d="m354.485 448.044-43.973-76.751c17.391.618 34.073 9.923 43.359 26.13 9.286 16.208 8.88 35.314.614 50.621z" fill="#95d6a4"/></g><g><ellipse cx="369.711" cy="189.354" fill="#b3e59f" rx="44.228" ry="24.632" transform="matrix(.988 -.155 .155 .988 -24.827 59.428)"/><path d="m413.407 182.517-87.392 13.674c6.786-16.024 21.433-28.285 39.888-31.173 18.455-2.887 36.156 4.313 47.504 17.499z" fill="#95d6a4"/></g><g><ellipse cx="431.648" cy="107.475" fill="#b3e59f" rx="44.228" ry="24.632" transform="matrix(.178 -.984 .984 .178 248.934 513.044)"/><path d="m439.533 63.956-15.771 87.038c-12.909-11.67-19.682-29.531-16.351-47.911s15.941-32.737 32.122-39.127z" fill="#95d6a4"/></g><g><ellipse cx="145.275" cy="286.847" fill="#b3e59f" rx="44.228" ry="24.632" transform="matrix(.278 -.961 .961 .278 -170.649 346.666)"/><path d="m157.568 244.362-24.587 84.97c16.752-4.711 30.762-17.695 35.954-35.638 5.193-17.944.283-36.412-11.367-49.332z" fill="#95d6a4"/></g><g><ellipse cx="30.051" cy="264.014" fill="#b3e59f" rx="44.228" ry="24.632" transform="matrix(.597 -.802 .802 .597 -199.647 130.428)"/><path d="m56.467 228.542-52.832 70.945c17.34 1.465 35.015-5.779 46.172-20.761s13.037-33.998 6.66-50.184z" fill="#95d6a4"/></g><g><ellipse cx="66.344" cy="357.5" fill="#b3e59f" rx="44.228" ry="24.632" transform="matrix(.944 -.33 .33 .944 -114.276 41.93)"/><path d="m24.595 372.097 83.499-29.195c-13.546-10.924-32.246-14.819-49.879-8.654-17.633 6.166-29.841 20.868-33.62 37.849z" fill="#95d6a4"/></g><g><ellipse cx="179.502" cy="409.669" fill="#b3e59f" rx="44.228" ry="24.632" transform="matrix(.497 -.868 .868 .497 -265.194 361.763)"/><path d="m157.515 448.044 43.973-76.751c-17.391.618-34.073 9.923-43.359 26.13-9.286 16.208-8.88 35.314-.614 50.621z" fill="#95d6a4"/></g><g><ellipse cx="142.289" cy="189.354" fill="#b3e59f" rx="24.632" ry="44.228" transform="matrix(.155 -.988 .988 .155 -66.785 300.662)"/><path d="m98.593 182.517 87.392 13.674c-6.786-16.024-21.433-28.285-39.888-31.173-18.455-2.887-36.156 4.313-47.504 17.499z" fill="#95d6a4"/></g><g><ellipse cx="80.352" cy="107.475" fill="#b3e59f" rx="24.632" ry="44.228" transform="matrix(.984 -.178 .178 .984 -17.875 16.049)"/><path d="m72.467 63.956 15.771 87.038c12.909-11.67 19.682-29.531 16.351-47.911s-15.941-32.737-32.122-39.127z" fill="#95d6a4"/></g><path d="m320.984 373.753h-129.968c-75.081 0-136.164-61.083-136.164-136.164s61.083-136.164 136.164-136.164c8.607 0 15.585 6.978 15.585 15.585s-6.978 15.585-15.585 15.585c-57.895 0-104.995 47.1-104.995 104.995s47.1 104.995 104.995 104.995h129.967c57.895 0 104.996-47.1 104.996-104.995s-47.101-104.995-104.996-104.995c-8.607 0-15.585-6.978-15.585-15.585s6.978-15.585 15.585-15.585c75.081 0 136.165 61.083 136.165 136.164s-61.083 136.164-136.164 136.164z" fill="#b3e59f"/><g fill="#95d6a4"><path d="m320.984 132.594c57.895 0 104.996 47.1 104.996 104.995s-47.101 104.995-104.996 104.995h17.621c57.895 0 104.996-47.1 104.996-104.995s-47.101-104.995-104.996-104.995c-8.607 0-15.585-6.978-15.585-15.585 0-7.074 4.717-13.039 11.175-14.942-4.349-.421-8.754-.643-13.211-.643-8.607 0-15.585 6.978-15.585 15.585s6.977 15.585 15.585 15.585z"/><path d="m72.473 237.589c0-70.625 54.048-128.856 122.953-135.522-1.399-.412-2.876-.643-4.409-.643-75.081 0-136.164 61.083-136.164 136.164s61.083 136.164 136.164 136.164h17.621c-75.082.001-136.165-61.082-136.165-136.163z"/></g></g></svg>