<svg id="Capa_1" enable-background="new 0 0 512 512" height="512" viewBox="0 0 512 512" width="512" xmlns="http://www.w3.org/2000/svg"><g><g><path d="m87.932 146.288-50.285 142.304c-3.72 10.527 4.089 21.569 15.254 21.569h58.981l-19.02 90.645c-2.361 11.252 12.16 17.909 19.144 8.776l90.208-117.965c8.141-10.646.55-26.006-12.851-26.006h-47.268l68.015-108.523c5.216-8.323-.767-19.133-10.589-19.133h-99.807c-5.296 0-10.018 3.339-11.782 8.333z" fill="#eca900"/><g fill="#e7a52e"><path d="m111.049 410.688c-7.261 7.439-20.441.883-18.187-9.882l19.02-90.646h5.607c4.98 0 8.699 4.58 7.676 9.454l-17.036 81.192c-.855 4.075.505 7.55 2.92 9.882z"/><path d="m134.266 137.956c-5.296 0-10.021 3.337-11.786 8.333l-50.286 142.303c-3.72 10.526 4.092 21.568 15.256 21.568h-34.547c-11.164 0-18.975-11.042-15.256-21.568l50.286-142.303c1.765-4.996 6.484-8.333 11.78-8.333z"/></g></g><g><path d="m211.873 334.889-33.283 94.191c-2.462 6.968 2.707 14.276 10.097 14.276h39.04l-12.589 59.998c-1.563 7.448 8.049 11.854 12.671 5.809l59.708-78.081c5.388-7.046.364-17.213-8.506-17.213h-31.286l45.019-71.831c3.453-5.509-.507-12.664-7.009-12.664h-66.061c-3.508-.001-6.633 2.209-7.801 5.515z" fill="#eca900"/><g fill="#e7a52e"><path d="m227.174 509.894c-4.806 4.924-13.53.584-12.038-6.541l12.589-59.998h3.711c3.296 0 5.758 3.032 5.081 6.258l-11.276 53.741c-.566 2.697.335 4.997 1.933 6.54z"/><path d="m242.542 329.374c-3.506 0-6.633 2.208-7.801 5.516l-33.284 94.19c-2.462 6.967 2.708 14.276 10.098 14.276h-22.867c-7.389 0-12.56-7.309-10.098-14.276l33.284-94.19c1.168-3.307 4.292-5.516 7.797-5.516z"/></g></g><g><path d="m315.643 10.72-64.686 183.058c-4.785 13.542 5.26 27.746 19.623 27.746h75.873l-24.467 116.606c-3.037 14.474 15.642 23.038 24.626 11.289l116.042-151.749c10.472-13.694.707-33.454-16.532-33.454h-60.805l87.494-139.604c6.71-10.706-.986-24.612-13.621-24.612h-128.39c-6.813 0-12.887 4.295-15.157 10.72z" fill="#eca900"/><g fill="#e7a52e"><path d="m345.381 350.841c-9.341 9.57-26.295 1.135-23.395-12.712l24.467-116.606h7.212c6.406 0 11.19 5.892 9.875 12.162l-21.915 104.444c-1.1 5.242.65 9.713 3.756 12.712z"/><path d="m375.248.001c-6.813 0-12.89 4.292-15.161 10.719l-64.688 183.057c-4.785 13.54 5.263 27.745 19.625 27.745h-44.441c-14.361 0-24.41-14.204-19.625-27.745l64.688-183.057c2.271-6.427 8.341-10.719 15.154-10.719h44.448z"/></g></g></g></svg>